<svg id="e3f714d7-d411-484e-a3c8-1eb7183e7636" data-name="Слой 1" xmlns="http://www.w3.org/2000/svg" xmlns:xlink="http://www.w3.org/1999/xlink" viewBox="0 0 1473.69925 506.58951">
  <defs>
    <linearGradient id="fe512b0f-2539-444f-8edb-809d0d7cd032" data-name="Безымянный градиент 22" x1="7.06025" y1="149.46504" x2="166.51081" y2="149.46504" gradientUnits="userSpaceOnUse">
      <stop offset="0" stop-color="#009ee2"/>
      <stop offset="0.03731" stop-color="#009be2" stop-opacity="0.95102"/>
      <stop offset="0.30619" stop-color="#0085e2" stop-opacity="0.61701"/>
      <stop offset="0.54629" stop-color="#0075e2" stop-opacity="0.35208"/>
      <stop offset="0.74913" stop-color="#0068e2" stop-opacity="0.16097"/>
      <stop offset="0.90681" stop-color="#0061e2" stop-opacity="0.04352"/>
      <stop offset="1" stop-color="#005ee2" stop-opacity="0"/>
    </linearGradient>
    <linearGradient id="a4527f68-a7eb-4092-99f4-cd6d768640b0" data-name="Безымянный градиент 75" x1="7.06025" y1="149.46504" x2="166.51081" y2="149.46504" gradientUnits="userSpaceOnUse">
      <stop offset="0" stop-color="#005ee2"/>
      <stop offset="0.71397" stop-color="#fff"/>
      <stop offset="0.71608" stop-color="#f6f9fe"/>
      <stop offset="0.72761" stop-color="#c8dcf9"/>
      <stop offset="0.7406" stop-color="#9dc1f4"/>
      <stop offset="0.75456" stop-color="#77a9f0"/>
      <stop offset="0.76976" stop-color="#5795ec"/>
      <stop offset="0.78655" stop-color="#3b84e9"/>
      <stop offset="0.8055" stop-color="#2576e6"/>
      <stop offset="0.82765" stop-color="#146be4"/>
      <stop offset="0.85501" stop-color="#0963e3"/>
      <stop offset="0.89341" stop-color="#025fe2"/>
      <stop offset="1" stop-color="#005ee2"/>
    </linearGradient>
    <linearGradient id="a59b2334-b74b-4e2f-95c8-f11f2f9eeb66" data-name="Безымянный градиент 12" x1="8.08627" y1="149.46505" x2="165.53683" y2="149.46505" gradientUnits="userSpaceOnUse">
      <stop offset="0" stop-color="#fff"/>
      <stop offset="1" stop-color="#005ee2" stop-opacity="0.8"/>
    </linearGradient>
    <linearGradient id="efd7e2b0-03f0-4b0e-b46a-6f173cf52c1f" data-name="Безымянный градиент 46" x1="219.39073" y1="145.81772" x2="-24.82905" y2="144.76278" gradientUnits="userSpaceOnUse">
      <stop offset="0" stop-color="#f5f5f5" stop-opacity="0.3"/>
      <stop offset="0.71616" stop-color="#fff"/>
    </linearGradient>
    <linearGradient id="f15fb349-5bc3-4f91-b53a-e467d35c810f" x1="139.58079" y1="85.58869" x2="322.97395" y2="85.58869" xlink:href="#a59b2334-b74b-4e2f-95c8-f11f2f9eeb66"/>
    <linearGradient id="ef251a3e-66e3-4d97-838c-ab2c62e73732" x1="189.03289" y1="97.52515" x2="293.47245" y2="55.85482" xlink:href="#efd7e2b0-03f0-4b0e-b46a-6f173cf52c1f"/>
    <linearGradient id="f0ce3414-cf7a-4454-a392-16539b925a3d" x1="138.41602" y1="85.5887" x2="324.1388" y2="85.5887" xlink:href="#fe512b0f-2539-444f-8edb-809d0d7cd032"/>
    <linearGradient id="e468c78f-9f32-4902-882f-234c5aada5bd" data-name="Безымянный градиент 35" x1="138.41602" y1="85.5887" x2="324.1388" y2="85.5887" gradientUnits="userSpaceOnUse">
      <stop offset="0" stop-color="#005ee2"/>
      <stop offset="0.33843" stop-color="#fff"/>
      <stop offset="0.34331" stop-color="#f6f9fe"/>
      <stop offset="0.36997" stop-color="#c8dcf9"/>
      <stop offset="0.40001" stop-color="#9dc1f4"/>
      <stop offset="0.4323" stop-color="#77a9f0"/>
      <stop offset="0.46745" stop-color="#5795ec"/>
      <stop offset="0.50629" stop-color="#3b84e9"/>
      <stop offset="0.55014" stop-color="#2576e6"/>
      <stop offset="0.60135" stop-color="#146be4"/>
      <stop offset="0.66465" stop-color="#0963e3"/>
      <stop offset="0.75347" stop-color="#025fe2"/>
      <stop offset="1" stop-color="#005ee2"/>
    </linearGradient>
    <linearGradient id="a3efed9b-1b2e-45cb-bae0-c13bbc3119e4" x1="145.39679" y1="199.63028" x2="276.35852" y2="199.63028" xlink:href="#fe512b0f-2539-444f-8edb-809d0d7cd032"/>
    <linearGradient id="b8becaa0-acb9-499a-81ec-7bb0b21aa833" x1="146.21814" y1="199.63028" x2="275.53719" y2="199.63028" xlink:href="#a59b2334-b74b-4e2f-95c8-f11f2f9eeb66"/>
    <linearGradient id="aa00a55f-ed8f-4b37-baa4-c8f01f6dc553" x1="145.39679" y1="199.63028" x2="276.35852" y2="199.63028" xlink:href="#e468c78f-9f32-4902-882f-234c5aada5bd"/>
    <linearGradient id="e0e8d874-0d3c-4a27-93c6-89e5450ab661" data-name="Безымянный градиент 58" x1="171.49193" y1="185.14112" x2="233.73369" y2="202.54771" gradientUnits="userSpaceOnUse">
      <stop offset="0.14378" stop-color="#f5f5f5" stop-opacity="0.2"/>
      <stop offset="1" stop-color="#fff"/>
    </linearGradient>
    <clipPath id="b4b23baf-832f-4a20-81d7-22d6e821e855" transform="translate(-6.07724 -18.31272)">
      <path d="M260.255,74.205l-1.10119-.785c-2.42566-6.33429-8.54554-11.48676-16.49537-14.03931l-1.48425-1.36652-3.80835.10791a38.28815,38.28815,0,0,0-6.063-.48205c-12.67053,0-23.43493,6.12616-27.37939,14.66052l-1.61279,2.80705v4.99056l.023.07336c.48144,11.74823,13.26147,21.16132,28.96923,21.16132,16.0127,0,28.99219-9.78034,28.99219-21.84638Z" style="fill: none"/>
    </clipPath>
    <clipPath id="be1d6284-2a60-4756-86bc-98b6d6f256e3" transform="translate(-6.07724 -18.31272)">
      <path d="M115.85928,142.0276l-1.10525-.78786c-2.43458-6.35759-8.577-11.529-16.55606-14.091l-1.48971-1.37155-3.82236.10831a38.42841,38.42841,0,0,0-6.0853-.48383c-12.71715,0-23.52117,6.1487-27.48014,14.71447l-1.61873,2.81738v5.00892l.023.07363C58.208,159.80757,71.035,169.25529,86.8006,169.25529c16.07161,0,29.09887-9.81632,29.09887-21.92676Z" style="fill: none"/>
    </clipPath>
    <clipPath id="b8d09740-2f84-4f5e-b1ae-0421dc7e0dd1" transform="translate(-6.07724 -18.31272)">
      <path d="M234.095,193.59567l-.88267-.6292c-1.94428-5.07724-6.84965-9.20719-13.22183-11.25318l-1.1897-1.09533-3.05258.08649a30.68915,30.68915,0,0,0-4.85977-.38639c-10.156,0-18.78424,4.91042-21.94591,11.75112l-1.29274,2.25v4.00017l.0184.05881c.3859,9.41677,10.62971,16.96182,23.22025,16.96182,12.835,0,23.23864-7.83941,23.23864-17.51093Z" style="fill: none"/>
    </clipPath>
    <linearGradient id="fd651e7f-dd2e-4407-99a7-6579e9ca00fa" x1="8.07722" y1="427.97056" x2="165.52778" y2="427.97056" xlink:href="#a59b2334-b74b-4e2f-95c8-f11f2f9eeb66"/>
    <linearGradient id="ac252044-3cdd-4ad8-b330-90624ecc5e6c" x1="219.38168" y1="424.32323" x2="-24.8381" y2="423.26829" xlink:href="#efd7e2b0-03f0-4b0e-b46a-6f173cf52c1f"/>
    <linearGradient id="a334a158-1146-4446-a988-0003dd9c300c" x1="139.57175" y1="364.0942" x2="322.9649" y2="364.0942" xlink:href="#a59b2334-b74b-4e2f-95c8-f11f2f9eeb66"/>
    <linearGradient id="e9fa3333-80ad-42b0-993f-6814c4626f5f" x1="189.02385" y1="376.03066" x2="293.46341" y2="334.36033" xlink:href="#efd7e2b0-03f0-4b0e-b46a-6f173cf52c1f"/>
    <linearGradient id="e630259a-253f-4246-9def-c8109e465738" x1="146.20909" y1="478.13579" x2="275.52814" y2="478.13579" xlink:href="#a59b2334-b74b-4e2f-95c8-f11f2f9eeb66"/>
    <linearGradient id="ebb192fc-da45-4f14-8acc-f05d967eaf69" x1="171.48288" y1="463.64663" x2="233.72464" y2="481.05322" xlink:href="#e0e8d874-0d3c-4a27-93c6-89e5450ab661"/>
    <linearGradient id="e204fabf-aa48-4051-af88-bb78583b57d0" data-name="Безымянный градиент 70" x1="137.60953" y1="364.09421" x2="325.00272" y2="364.09421" gradientUnits="userSpaceOnUse">
      <stop offset="0" stop-color="#005ee2" stop-opacity="0"/>
      <stop offset="1" stop-color="#005ee2"/>
    </linearGradient>
    <linearGradient id="a0667fb9-faa9-48af-a001-397f4e90519e" x1="167.52781" y1="427.97061" x2="6.07724" y2="427.97061" xlink:href="#e204fabf-aa48-4051-af88-bb78583b57d0"/>
    <linearGradient id="b8f01d64-1e7d-4aa6-aef4-edcbffe591a1" data-name="Безымянный градиент 84" x1="145.39676" y1="478.13577" x2="276.35843" y2="478.13577" gradientUnits="userSpaceOnUse">
      <stop offset="0" stop-color="#005ee2" stop-opacity="0"/>
      <stop offset="0.08509" stop-color="#025ee3" stop-opacity="0.03859"/>
      <stop offset="0.22901" stop-color="#065de6" stop-opacity="0.1427"/>
      <stop offset="0.41427" stop-color="#0e5deb" stop-opacity="0.31222"/>
      <stop offset="0.6336" stop-color="#185cf2" stop-opacity="0.54728"/>
      <stop offset="0.87886" stop-color="#255bfa" stop-opacity="0.84319"/>
      <stop offset="1" stop-color="#2c5aff"/>
    </linearGradient>
    <clipPath id="af949d2b-ec67-41cd-af0d-afb4ef984d5c" transform="translate(-6.07724 -18.31272)">
      <path d="M271.25759,315.30348l-1.52-1.08353c-3.34823-8.74346-11.79572-15.8556-22.76917-19.379l-2.04877-1.88626-5.25681.149a52.84855,52.84855,0,0,0-8.369-.6654c-17.48962,0-32.34813,8.45617-37.79282,20.23647l-2.2262,3.87468v6.88865l.03168.10127c.66456,16.21653,18.30532,29.20977,39.98734,29.20977,22.10293,0,40.019-13.50017,40.019-30.15538Z" style="fill: none"/>
    </clipPath>
    <clipPath id="e332098e-9cfc-4d47-9b8c-a92929cfb38e" transform="translate(-6.07724 -18.31272)">
      <path d="M124.56584,383.37847l-1.43674-1.02417c-3.1648-8.26444-11.14948-14.98694-21.52174-18.31729l-1.93653-1.78291-4.96881.14079a49.95314,49.95314,0,0,0-7.91047-.62894c-16.53143,0-30.5759,7.99289-35.72229,19.12779L48.965,384.55615v6.51125l.02994.09571c.62815,15.32809,17.30244,27.60948,37.79659,27.60948,20.892,0,37.82653-12.76054,37.82653-28.50328Z" style="fill: none"/>
    </clipPath>
    <clipPath id="f96638ed-53c6-454e-bc67-4774fdad0c98" transform="translate(-6.07724 -18.31272)">
      <path d="M239.741,435.28678l-1.09783-.78257c-2.41822-6.31488-8.51934-11.45156-16.44481-13.99629l-1.47971-1.36233-3.79668.10758a38.16948,38.16948,0,0,0-6.04441-.48058c-12.63171,0-23.36313,6.10739-27.2955,14.6156l-1.60785,2.79845v4.97527l.02288.07314c.48,11.71223,13.22084,21.09647,28.88047,21.09647,15.96363,0,28.90335-9.75036,28.90335-21.77943Z" style="fill: none"/>
    </clipPath>
    <clipPath id="bb36c072-3ff7-40d2-8cc6-3e875a2a5e72" transform="translate(-6.07724 -18.31272)">
      <rect id="a507e0ce-6b85-4655-9dc0-ec6b184c595d" data-name="SVGID" x="1020.63913" y="27.67582" width="454.94505" height="186.72527" rx="22.15385" style="fill: none"/>
    </clipPath>
    <linearGradient id="e85ed9c7-4d7d-4b02-ab44-7c93a70a8af7" data-name="Безымянный градиент 3" x1="1321.74056" y1="265.4393" x2="1284.95723" y2="137.16058" gradientUnits="userSpaceOnUse">
      <stop offset="0" stop-color="#4591ff" stop-opacity="0"/>
      <stop offset="0.48603" stop-color="#92beff" stop-opacity="0.3684"/>
      <stop offset="0.83475" stop-color="#c4dcff" stop-opacity="0.60723"/>
      <stop offset="1" stop-color="#d7e7ff" stop-opacity="0.7"/>
    </linearGradient>
    <radialGradient id="ad288f4a-8284-422f-8616-1b7b18a6ceba" data-name="Безымянный градиент 2" cx="1411.55255" cy="82.20367" r="31.58076" gradientUnits="userSpaceOnUse">
      <stop offset="0" stop-color="#d7e7ff" stop-opacity="0.7"/>
      <stop offset="0.13684" stop-color="#d3e5ff" stop-opacity="0.6824"/>
      <stop offset="0.28725" stop-color="#c9deff" stop-opacity="0.63052"/>
      <stop offset="0.44413" stop-color="#b7d4ff" stop-opacity="0.54429"/>
      <stop offset="0.60553" stop-color="#9dc5ff" stop-opacity="0.42353"/>
      <stop offset="0.77043" stop-color="#7db2ff" stop-opacity="0.26814"/>
      <stop offset="0.93582" stop-color="#569bff" stop-opacity="0.08092"/>
      <stop offset="1" stop-color="#4591ff" stop-opacity="0"/>
    </radialGradient>
    <radialGradient id="a439744d-3c03-41e2-87ff-85385fdeb806" data-name="Безымянный градиент 48" cx="572.85039" cy="342.04277" r="236.29796" gradientTransform="translate(49.23749 736.06938) rotate(-66.01502) scale(1 0.93038)" gradientUnits="userSpaceOnUse">
      <stop offset="0.0254" stop-color="#c2ffff"/>
      <stop offset="0.06162" stop-color="#b8f6ff" stop-opacity="0.91995"/>
      <stop offset="0.16735" stop-color="#9ddfff" stop-opacity="0.70693"/>
      <stop offset="0.27697" stop-color="#86caff" stop-opacity="0.51796"/>
      <stop offset="0.38805" stop-color="#72b8ff" stop-opacity="0.35867"/>
      <stop offset="0.50105" stop-color="#62aaff" stop-opacity="0.22874"/>
      <stop offset="0.61657" stop-color="#559fff" stop-opacity="0.12805"/>
      <stop offset="0.73554" stop-color="#4c97ff" stop-opacity="0.05648"/>
      <stop offset="0.86023" stop-color="#4793ff" stop-opacity="0.01386"/>
      <stop offset="1" stop-color="#4591ff" stop-opacity="0"/>
    </radialGradient>
    <linearGradient id="b7985bdd-9a72-4a05-9ea0-5428c5f6ade4" data-name="Безымянный градиент 99" x1="487.90039" y1="398.62444" x2="651.60247" y2="398.62444" gradientUnits="userSpaceOnUse">
      <stop offset="0" stop-color="#242463"/>
      <stop offset="0.00718" stop-color="#212a6e"/>
      <stop offset="0.03145" stop-color="#183b8f"/>
      <stop offset="0.0586" stop-color="#114aab"/>
      <stop offset="0.08895" stop-color="#0a56c2"/>
      <stop offset="0.12386" stop-color="#065fd4"/>
      <stop offset="0.16616" stop-color="#0265e0"/>
      <stop offset="0.2235" stop-color="#0169e7"/>
      <stop offset="0.36245" stop-color="#006ae9"/>
      <stop offset="0.42687" stop-color="#0665dc"/>
      <stop offset="0.68995" stop-color="#1d50a9"/>
      <stop offset="0.88918" stop-color="#2c448a"/>
      <stop offset="1" stop-color="#313f7e"/>
    </linearGradient>
    <linearGradient id="b899ed23-a04a-426a-93f3-c9036cc37023" data-name="Безымянный градиент 112" x1="625.12898" y1="493.69359" x2="562.42129" y2="275.0059" gradientUnits="userSpaceOnUse">
      <stop offset="0" stop-color="#94e8ff" stop-opacity="0.4"/>
      <stop offset="0.38629" stop-color="#aae1ff" stop-opacity="0.46876"/>
      <stop offset="1" stop-color="#d5d4ff" stop-opacity="0.6"/>
    </linearGradient>
    <clipPath id="a1d8e69f-e628-4594-b1e9-523ded46b181" transform="translate(-6.07724 -18.31272)">
      <path d="M547.58256,260.05452l-.665.92577c-5.52448,2.16-9.91681,7.32566-11.97252,13.92735l-1.16831,1.25589.18825,3.12762a29.4092,29.4092,0,0,0-.27667,4.99641c.30986,10.41516,5.97342,19.10282,13.59308,22.12134l2.51391,1.2521,4.39926-.13088.06411-.02079c10.34451-.70385,18.32979-11.45588,17.94566-24.36763-.39159-13.16241-9.33054-23.575-19.967-23.2586Z" style="fill: none"/>
    </clipPath>
    <clipPath id="fa755630-39a7-45bb-b327-f17370020958" transform="translate(-6.07724 -18.31272)">
      <path d="M610.95509,225.59311l-.76987.89558a22.235,22.235,0,0,0-13.73473,13.38666l-1.33557,1.20322.06324,3.13294a26.92387,26.92387,0,0,0-.53072,4.97946c-.13629,10.41887,5.66375,19.34773,13.86268,22.699l2.69333,1.36164,4.81922.063.07109-.01794c11.35006-.24749,20.57744-10.63749,20.7464-23.55385.17224-13.16711-9.13269-23.96358-20.78447-24.116Z" style="fill: none"/>
    </clipPath>
    <clipPath id="e4f2a056-1543-4847-9f26-d19eb26faa79" transform="translate(-6.07724 -18.31272)">
      <path d="M565.88007,184.70868l-.62315,1.00322a22.235,22.235,0,0,0-11.51521,15.33771l-1.13487,1.39412.54378,3.086a26.92346,26.92346,0,0,0,.24053,5.00188c1.4659,10.31614,8.56877,18.248,17.18521,20.3l2.87054.93173,4.77169-.67805.06749-.02865c11.17732-1.98817,18.699-13.67237,16.88174-26.46137-1.85256-13.03727-12.70562-22.27614-24.24251-20.63678Z" style="fill: none"/>
    </clipPath>
    <linearGradient id="eba359c2-5d2a-4a3c-ade9-82ccf5838b92" data-name="Безымянный градиент 158" x1="622.68132" y1="420.68579" x2="664.61538" y2="420.68579" gradientUnits="userSpaceOnUse">
      <stop offset="0" stop-color="#456aff"/>
      <stop offset="0.02447" stop-color="#4266ef"/>
      <stop offset="0.07442" stop-color="#3c5fd4"/>
      <stop offset="0.13163" stop-color="#375abe"/>
      <stop offset="0.19827" stop-color="#3355ad"/>
      <stop offset="0.28024" stop-color="#3152a1"/>
      <stop offset="0.39435" stop-color="#2f509a"/>
      <stop offset="0.70087" stop-color="#2f5098"/>
      <stop offset="0.70151" stop-color="#2f4f97"/>
      <stop offset="0.71763" stop-color="#2f4180"/>
      <stop offset="0.73617" stop-color="#2f356f"/>
      <stop offset="0.75868" stop-color="#2f2d62"/>
      <stop offset="0.78896" stop-color="#2f285b"/>
      <stop offset="0.86026" stop-color="#2f2759"/>
      <stop offset="0.90421" stop-color="#25214f"/>
      <stop offset="0.98001" stop-color="#091336"/>
      <stop offset="1" stop-color="#000e2e"/>
    </linearGradient>
  </defs>
  <title>contract</title>
  <g>
    <path d="M99.6427,93.52519v12.45673a80.752,80.752,0,0,1,20.293,5.5296l13.42182-8.8183,18.18274,11.94629v8.44006l-8.91486,5.85718a31.32805,31.32805,0,0,1,3.91614,7.861h18.9693v25.33472H146.53894a31.32707,31.32707,0,0,1-3.91021,7.84869l8.91534,5.85755v8.44006L133.36133,196.225l-13.419-8.81647A80.74654,80.74654,0,0,1,99.6427,192.941v12.46387H73.92841V192.941a80.74969,80.74969,0,0,1-20.29962-5.53247l-13.41516,8.81391L22.03089,184.27617V175.8361l8.9115-5.855a31.3288,31.3288,0,0,1-3.91022-7.84869H8.06025V136.79771H27.02961a31.32813,31.32813,0,0,1,3.91607-7.861l-8.9187-5.85968V114.637l18.18274-11.94623,13.42572,8.82086a80.752,80.752,0,0,1,20.293-5.52966V93.52519H99.6427M86.79645,153.6851c4.75214,0,8.89154-1.6997,11.11365-4.22-2.22211-2.52032-6.36151-4.22009-11.11365-4.22009s-8.89148,1.69977-11.11358,4.22009c2.2221,2.52033,6.36151,4.22,11.11358,4.22M100.6427,92.52519H72.92841V105.117A81.44958,81.44958,0,0,0,53.739,110.38307L40.75885,101.855l-.54913-.36077-.54913.36077L21.47785,113.80119l-.45087.29624v9.51913l.45087.29627,8.08233,5.31015a32.30237,32.30237,0,0,0-3.24664,6.57473H7.06025v27.33472h19.256a32.30356,32.30356,0,0,0,3.24072,6.56238l-8.07519,5.30554-.45093.29626v9.51905l.45093.29626,18.18273,11.94629.54908.36078.54913-.36078,12.96954-8.52112a81.44052,81.44052,0,0,0,19.19611,5.26883v12.599H100.6427v-12.599a81.4372,81.4372,0,0,0,19.19611-5.26883l12.97339,8.52368.54913.36078.54914-.36078,18.18273-11.94628.45087-.29624v-9.51907l-.45087-.29627-8.0791-5.3081a32.29984,32.29984,0,0,0,3.24073-6.56238h19.256V135.79771H147.25757a32.3011,32.3011,0,0,0-3.2467-6.57473l8.07849-5.30765.45087-.29627V114.1l-.45087-.29626-18.18274-11.94629-.54913-.36078-.54914.36078L119.8321,110.383a81.45186,81.45186,0,0,0-19.1894-5.266V92.52519ZM77.08808,149.46507c2.21789-2.00372,5.83606-3.22009,9.70837-3.22009s7.49054,1.21637,9.70844,3.22009c-2.2179,2.00369-5.83606,3.22-9.70844,3.22s-7.49048-1.21634-9.70837-3.22Z" transform="translate(-6.07724 -18.31272)" style="fill: url(#fe512b0f-2539-444f-8edb-809d0d7cd032)"/>
    <path d="M99.6427,93.52519v12.45673a80.752,80.752,0,0,1,20.293,5.5296l13.42182-8.8183,18.18274,11.94629v8.44006l-8.91486,5.85718a31.32805,31.32805,0,0,1,3.91614,7.861h18.9693v25.33472H146.53894a31.32707,31.32707,0,0,1-3.91021,7.84869l8.91534,5.85755v8.44006L133.36133,196.225l-13.419-8.81647A80.74654,80.74654,0,0,1,99.6427,192.941v12.46387H73.92841V192.941a80.74969,80.74969,0,0,1-20.29962-5.53247l-13.41516,8.81391L22.03089,184.27617V175.8361l8.9115-5.855a31.3288,31.3288,0,0,1-3.91022-7.84869H8.06025V136.79771H27.02961a31.32813,31.32813,0,0,1,3.91607-7.861l-8.9187-5.85968V114.637l18.18274-11.94623,13.42572,8.82086a80.752,80.752,0,0,1,20.293-5.52966V93.52519H99.6427M86.79645,153.6851c4.75214,0,8.89154-1.6997,11.11365-4.22-2.22211-2.52032-6.36151-4.22009-11.11365-4.22009s-8.89148,1.69977-11.11358,4.22009c2.2221,2.52033,6.36151,4.22,11.11358,4.22M100.6427,92.52519H72.92841V105.117A81.44958,81.44958,0,0,0,53.739,110.38307L40.75885,101.855l-.54913-.36077-.54913.36077L21.47785,113.80119l-.45087.29624v9.51913l.45087.29627,8.08233,5.31015a32.30237,32.30237,0,0,0-3.24664,6.57473H7.06025v27.33472h19.256a32.30356,32.30356,0,0,0,3.24072,6.56238l-8.07519,5.30554-.45093.29626v9.51905l.45093.29626,18.18273,11.94629.54908.36078.54913-.36078,12.96954-8.52112a81.44052,81.44052,0,0,0,19.19611,5.26883v12.599H100.6427v-12.599a81.4372,81.4372,0,0,0,19.19611-5.26883l12.97339,8.52368.54913.36078.54914-.36078,18.18273-11.94628.45087-.29624v-9.51907l-.45087-.29627-8.0791-5.3081a32.29984,32.29984,0,0,0,3.24073-6.56238h19.256V135.79771H147.25757a32.3011,32.3011,0,0,0-3.2467-6.57473l8.07849-5.30765.45087-.29627V114.1l-.45087-.29626-18.18274-11.94629-.54913-.36078-.54914.36078L119.8321,110.383a81.45186,81.45186,0,0,0-19.1894-5.266V92.52519ZM77.08808,149.46507c2.21789-2.00372,5.83606-3.22009,9.70837-3.22009s7.49054,1.21637,9.70844,3.22009c-2.2179,2.00369-5.83606,3.22-9.70844,3.22s-7.49048-1.21634-9.70837-3.22Z" transform="translate(-6.07724 -18.31272)" style="fill: url(#a4527f68-a7eb-4092-99f4-cd6d768640b0)"/>
    <path d="M146.56753,136.79772a31.32835,31.32835,0,0,0-3.91613-7.861l8.91485-5.85718v-8.44006l-18.18274-11.94629-13.42181,8.8183a80.75208,80.75208,0,0,0-20.293-5.5296V93.5252H73.95443v12.45673a80.752,80.752,0,0,0-20.293,5.52966l-13.42572-8.82086L22.053,114.637v8.44013l8.9187,5.85968a31.32783,31.32783,0,0,0-3.91608,7.861H8.08627v25.33472H27.05819a31.32931,31.32931,0,0,0,3.91022,7.84869l-8.9115,5.855v8.44007l18.18274,11.94628,13.41516-8.8139A80.75023,80.75023,0,0,0,73.95443,192.941V205.4049h25.7143V192.941a80.74689,80.74689,0,0,0,20.29962-5.53247l13.419,8.81647,18.18274-11.94629v-8.44006l-8.91535-5.85755a31.32694,31.32694,0,0,0,3.91022-7.84869h18.97186V136.79772ZM86.82248,145.245c4.75213,0,8.89154,1.69976,11.11364,4.22009-2.2221,2.52032-6.36151,4.22-11.11364,4.22s-8.89148-1.69971-11.11359-4.22C77.931,146.94475,82.0704,145.245,86.82248,145.245Z" transform="translate(-6.07724 -18.31272)" style="opacity: 0.30000000000000004;fill: url(#a59b2334-b74b-4e2f-95c8-f11f2f9eeb66)"/>
    <path d="M165.52732,153.6923V136.79771H146.558a34.33363,34.33363,0,0,0-8.42194-13.34069l13.42066-8.81753L133.374,102.69323l-13.42182,8.81828a80.75316,80.75316,0,0,0-20.293-5.52962V93.52518H73.94492v12.45671a80.75337,80.75337,0,0,0-20.293,5.52966L40.22623,102.6907,22.04349,114.637l13.4245,8.82a34.33344,34.33344,0,0,0-8.42187,13.34069H8.07676V153.6923H27.04868a34.33441,34.33441,0,0,0,8.415,13.32911L22.0474,175.83608l18.18274,11.94627,13.41516-8.81391a80.74926,80.74926,0,0,0,20.29962,5.53246v12.46389h25.7143V184.5009a80.74855,80.74855,0,0,0,20.29962-5.53242l13.419,8.81644,18.18274-11.94627-13.42022-8.81724a34.3344,34.3344,0,0,0,8.4151-13.32911ZM86.813,153.68508c-7.09472,0-12.84619-3.77874-12.84619-8.44009s5.75147-8.4401,12.84619-8.4401,12.84626,3.77878,12.84626,8.4401S93.90775,153.68508,86.813,153.68508Z" transform="translate(-6.07724 -18.31272)" style="opacity: 0.4;fill: url(#efd7e2b0-03f0-4b0e-b46a-6f173cf52c1f)"/>
    <g>
      <path d="M300.87914,70.83421a36.4902,36.4902,0,0,0-4.56138-9.15619l10.38372-6.82224V45.02507L285.52284,31.11044,269.88955,41.3817A94.057,94.057,0,0,0,246.253,34.941V20.43182H216.30183V34.941a94.05717,94.05717,0,0,0-23.63657,6.44077L177.02743,31.10752,155.84878,45.02209v9.83077L166.237,61.678a36.48964,36.48964,0,0,0-4.56132,9.15619H139.58079v29.509h22.09787a36.49105,36.49105,0,0,0,4.55449,9.1419l-10.37982,6.81968v9.83071L177.032,140.05017,192.65751,129.784a94.05494,94.05494,0,0,0,23.64432,6.444v14.5175H246.253v-14.5175a94.05118,94.05118,0,0,0,23.64432-6.444l15.63,10.26912L306.706,126.13851v-9.8307l-10.38429-6.82267a36.489,36.489,0,0,0,4.55449-9.1419H322.974v-29.509Zm-69.589,9.83909c5.53513,0,10.35657,1.97984,12.9448,4.91543-2.58823,2.93559-7.40967,4.91535-12.9448,4.91535s-10.3565-1.97976-12.94474-4.91535C220.9336,82.65314,225.755,80.6733,231.2901,80.6733Z" transform="translate(-6.07724 -18.31272)" style="opacity: 0.30000000000000004;fill: url(#f15fb349-5bc3-4f91-b53a-e467d35c810f)"/>
      <path d="M322.98671,90.51245V70.8342H300.8919a39.99057,39.99057,0,0,0-9.80959-15.53879l15.63193-10.27036L285.5356,31.11043,269.90232,41.38168A94.0588,94.0588,0,0,0,246.26574,34.941V20.4318H216.31459V34.941A94.05885,94.05885,0,0,0,192.678,41.38172L177.04019,31.10749,155.86154,45.02211,171.498,55.29541a39.9905,39.9905,0,0,0-9.80952,15.53879H139.59356V90.51245h22.09786a39.99159,39.99159,0,0,0,9.80156,15.5253l-15.62689,10.267,21.17865,13.91461,15.62553-10.26615a94.0541,94.0541,0,0,0,23.64432,6.444v14.51753h29.95115V126.39728a94.05315,94.05315,0,0,0,23.64432-6.444l15.63,10.26909,21.17865-13.91461-15.63143-10.27a39.99149,39.99149,0,0,0,9.80163-15.5253ZM231.30286,90.504c-8.2637,0-14.96282-4.40134-14.96282-9.83074s6.69912-9.83074,14.96282-9.83074,14.96288,4.4014,14.96288,9.83074S239.56663,90.504,231.30286,90.504Z" transform="translate(-6.07724 -18.31272)" style="opacity: 0.4;fill: url(#ef251a3e-66e3-4d97-838c-ab2c62e73732)"/>
      <path d="M246.25293,20.43181V34.94932a94.05394,94.05394,0,0,1,23.64429,6.444l15.62555-10.26615,21.17865,13.91464v9.83069l-10.37982,6.8197a36.49065,36.49065,0,0,1,4.5545,9.14191H322.974v29.509H300.87909a36.49037,36.49037,0,0,1-4.56134,9.15616l10.38819,6.82517v9.83078l-21.17865,13.91458-15.63782-10.27426a94.05625,94.05625,0,0,1-23.63654,6.44076v14.50919H216.30176V136.23637a94.05728,94.05728,0,0,1-23.63659-6.44067l-15.63324,10.27124L155.85328,126.1523v-9.83069l10.38372-6.82227a36.48891,36.48891,0,0,1-4.5614-9.15616H139.58081v-29.509h22.09778a36.48866,36.48866,0,0,1,4.55451-9.14191l-10.38434-6.82266V45.03886l21.17865-13.91464,15.63,10.26914a94.05074,94.05074,0,0,1,23.64435-6.444V20.43181h29.95117M231.26465,90.50407c5.535,0,10.35651-1.97982,12.9447-4.9154-2.58819-2.93561-7.40966-4.91538-12.9447-4.91538s-10.35656,1.97977-12.94482,4.91538c2.58826,2.93558,7.40967,4.9154,12.94482,4.9154m16.15308-71.237H215.137V33.94188a94.85891,94.85891,0,0,0-22.359,6.137l-15.111-9.9281-.63959-.42023-.63959.42023L155.20917,44.06541l-.52521.34507V55.498l.52521.345,9.41028,6.18271a37.62066,37.62066,0,0,0-3.77472,7.64362H138.416V101.508h22.42554a37.62537,37.62537,0,0,0,3.78161,7.658l-9.40948,6.18219-.52521.34506v11.08746l.52521.34507,21.17865,13.91464.63959.42023.63958-.42023,15.11426-9.93027a94.87069,94.87069,0,0,0,22.3512,6.13367v14.66656h32.28076V137.24379a94.87033,94.87033,0,0,0,22.35113-6.13373l15.11884,9.93326.63959.42023.63958-.42023,21.17865-13.91458.52521-.345V115.69612l-.52521-.34506-9.414-6.18509a37.62536,37.62536,0,0,0,3.78162-7.658H324.1388V69.66936H301.71a37.62909,37.62909,0,0,0-3.77471-7.64362L307.341,55.846l.52514-.34506V44.41344l-.52514-.345L286.16236,30.15376l-.63959-.42023-.63959.42023-15.1065,9.92511a94.862,94.862,0,0,0-22.35895-6.137V19.267ZM219.95655,85.58867c2.58337-2.33386,6.79767-3.75061,11.3081-3.75061s8.72467,1.41675,11.308,3.75061c-2.58332,2.33386-6.79761,3.75061-11.308,3.75061s-8.72473-1.41675-11.3081-3.75061Z" transform="translate(-6.07724 -18.31272)" style="fill: url(#f0ce3414-cf7a-4454-a392-16539b925a3d)"/>
      <path d="M246.253,20.43181V34.941a94.0568,94.0568,0,0,1,23.63654,6.44071l15.6333-10.27127,21.17865,13.91464v9.83072L296.31775,61.678a36.491,36.491,0,0,1,4.5614,9.15619H322.974v29.509H300.87616a36.4894,36.4894,0,0,1-4.5545,9.1419l10.38428,6.82266v9.83069l-21.17865,13.91465-15.63-10.26914a94.05073,94.05073,0,0,1-23.64429,6.44406v14.51749H216.30182V136.22807a94.05388,94.05388,0,0,1-23.64428-6.44406L177.032,140.05015l-21.17865-13.91464v-9.83069l10.37982-6.81967a36.49146,36.49146,0,0,1-4.55451-9.1419H139.58081v-29.509h22.09485A36.489,36.489,0,0,1,166.237,61.678l-10.38824-6.82516V45.02208l21.17865-13.91455,15.63788,10.27423A94.05785,94.05785,0,0,1,216.30182,34.941V20.43181H246.253M231.2901,90.50407c5.5351,0,10.35657-1.97976,12.94483-4.91534-2.58826-2.93561-7.40973-4.91544-12.94483-4.91544s-10.3565,1.97983-12.94476,4.91544c2.58826,2.93558,7.40967,4.91534,12.94476,4.91534m16.12763-71.237H215.13709V33.93358a94.87,94.87,0,0,0-22.3512,6.13376L177.667,30.13408l-.63959-.42023-.63959.42023L155.20917,44.04863l-.52521.345V55.48128l.52521.34506,9.414,6.18509a37.62222,37.62222,0,0,0-3.78155,7.658H138.416V101.508h22.42877a37.62681,37.62681,0,0,0,3.77478,7.64365l-9.40582,6.17971-.52521.345v11.08752l.52521.345L176.3924,141.0236l.63959.42023.63958-.42023,15.10651-9.92511a94.8595,94.8595,0,0,0,22.359,6.137v14.67486h32.28064V137.23549a94.85511,94.85511,0,0,0,22.359-6.137l15.111,9.92811.63959.42022.63958-.42022L307.34552,127.112l.52521-.34506V115.67943l-.52521-.34506-9.41021-6.18271A37.61858,37.61858,0,0,0,301.71,101.508H324.1388V69.66945H301.7132a37.62524,37.62524,0,0,0-3.78168-7.658l9.40955-6.18216.52521-.345V44.39668l-.52521-.34506L286.16242,30.137l-.63959-.42023-.63959.42023-15.11432,9.9303a94.86984,94.86984,0,0,0-22.35119-6.1337V19.267ZM219.98206,85.58873c2.58337-2.33389,6.79767-3.75067,11.308-3.75067s8.72474,1.41678,11.30811,3.75067c-2.58331,2.33383-6.79767,3.75055-11.30811,3.75055s-8.72467-1.41672-11.308-3.75055Z" transform="translate(-6.07724 -18.31272)" style="fill: url(#e468c78f-9f32-4902-882f-234c5aada5bd)"/>
    </g>
    <g>
      <path d="M221.43763,153.68513v10.237a66.3222,66.3222,0,0,1,16.67273,4.544l11.01825-7.23914,14.93408,9.81186v6.9321l-7.31934,4.80887a25.73188,25.73188,0,0,1,3.21161,6.44638h15.58221v20.8082H259.957a25.72979,25.72979,0,0,1-3.21637,6.45645l7.32519,4.81274v6.93213l-14.934,9.81183-11.027-7.24487a66.32351,66.32351,0,0,1-16.66723,4.54168v10.23111H200.31769V235.34431a66.32372,66.32372,0,0,1-16.6673-4.54162l-11.02374,7.24273-14.934-9.81185V221.3015l7.322-4.8107a25.73,25.73,0,0,1-3.21643-6.45645H146.21814v-20.8082H161.8003a25.72985,25.72985,0,0,1,3.21161-6.44638l-7.32245-4.811V171.0367l14.934-9.81186,11.02148,7.24124a66.32012,66.32012,0,0,1,16.67273-4.544v-10.237h21.11994m-10.56891,49.41123c3.903,0,7.30279-1.39609,9.12793-3.4661-1.82514-2.07-5.22492-3.46606-9.12793-3.46606s-7.30292,1.396-9.128,3.46606c1.82507,2.07,5.22491,3.4661,9.128,3.4661M222.259,152.86381H199.49634v10.3479A66.88824,66.88824,0,0,0,183.73,167.53917l-10.65551-7.00076-.451-.29633-.451.29633-14.934,9.81185-.37036.24332v7.81833l.37036.24332,6.63562,4.35971a26.52109,26.52109,0,0,0-2.66174,5.38989H145.39679v22.45084h15.8133a26.52961,26.52961,0,0,0,2.66656,5.4l-6.635,4.35935-.37036.24331v7.8183l.37036.24332,14.934,9.81186.451.29629.451-.29629,10.65784-7.00229a66.89812,66.89812,0,0,0,15.76086,4.32513v10.342H222.259v-10.342a66.89655,66.89655,0,0,0,15.76086-4.32522l10.661,7.00445.451.2963.451-.2963,14.934-9.81183.3703-.24331v-7.81836l-.3703-.24332-6.63818-4.36139a26.53063,26.53063,0,0,0,2.6665-5.4h15.81335V188.40483H260.54291a26.528,26.528,0,0,0-2.66174-5.38989l6.63251-4.35761.37036-.24331v-7.81833l-.37036-.24332-14.93409-9.81186-.451-.29629-.451.29629-10.65229,6.99866a66.89134,66.89134,0,0,0-15.76635-4.32746v-10.3479Zm-19.36414,46.76645a13.34278,13.34278,0,0,1,15.94763,0,13.34262,13.34262,0,0,1-15.94763,0Z" transform="translate(-6.07724 -18.31272)" style="fill: url(#a3efed9b-1b2e-45cb-bae0-c13bbc3119e4)"/>
      <path d="M259.95711,189.22621a25.73061,25.73061,0,0,0-3.21644-6.45646l7.322-4.81068V171.027l-14.93405-9.81186-11.02376,7.24275a66.3241,66.3241,0,0,0-16.66724-4.54164v-10.2311h-21.12v10.2311a66.32413,66.32413,0,0,0-16.66724,4.54169l-11.027-7.24485-14.93405,9.81181V177.957l7.32521,4.81274a25.73043,25.73043,0,0,0-3.21639,6.45646H146.21814V210.0344h15.58223a25.73171,25.73171,0,0,0,3.21158,6.44637l-7.31929,4.80888v6.93209l14.93405,9.81186,11.01829-7.23914a66.32278,66.32278,0,0,0,16.67271,4.544v10.237h21.12v-10.237a66.32,66.32,0,0,0,16.67271-4.544l11.02145,7.24124,14.934-9.81186v-6.93208l-7.32245-4.811a25.73,25.73,0,0,0,3.21158-6.44637h15.58218V189.22621Zm-49.07047,6.938c3.90308,0,7.3029,1.39607,9.128,3.46609-1.82508,2.07-5.2249,3.466-9.128,3.466s-7.30285-1.396-9.12794-3.466C203.58379,197.56028,206.98361,196.16421,210.88664,196.16421Z" transform="translate(-6.07724 -18.31272)" style="opacity: 0.30000000000000004;fill: url(#b8becaa0-acb9-499a-81ec-7bb0b21aa833)"/>
      <path d="M221.43769,153.68513v10.23111a66.32376,66.32376,0,0,1,16.66723,4.54163l11.02375-7.24274,14.93408,9.81186v6.93207l-7.32208,4.8107a25.73,25.73,0,0,1,3.21643,6.45645h15.58007v20.8082H259.955a25.73,25.73,0,0,1-3.21161,6.44638l7.32245,4.811v6.93207l-14.934,9.81186-11.02148-7.24121a66.32049,66.32049,0,0,1-16.67267,4.544v10.237h-21.12v-10.237a66.32372,66.32372,0,0,1-16.67267-4.544l-11.01831,7.2391-14.934-9.81186v-6.93206l7.31928-4.80887a25.732,25.732,0,0,1-3.21161-6.44638H146.21814v-20.8082h15.58014a25.72979,25.72979,0,0,1,3.21637-6.45645l-7.32519-4.81274v-6.93213l14.934-9.81183,11.027,7.24487a66.32183,66.32183,0,0,1,16.66723-4.54169V153.68513h21.12m-10.551,49.41123c3.90308,0,7.30286-1.396,9.128-3.46607-1.82513-2.07-5.22491-3.46609-9.128-3.46609s-7.30285,1.39609-9.12793,3.46609c1.82508,2.07,5.22486,3.46607,9.12793,3.46607M222.259,152.86381h-22.7627v10.34205a66.89659,66.89659,0,0,0-15.76086,4.32519l-10.661-7.00442-.451-.29633-.451.29633-14.934,9.81182-.37036.24332v7.81836l.37036.24332,6.63818,4.36139a26.52939,26.52939,0,0,0-2.6665,5.4H145.39679v22.45087h15.81562a26.52976,26.52976,0,0,0,2.66174,5.38989l-6.63245,4.3576-.37036.24332v7.8183l.37036.24332,14.934,9.81186.451.29632.451-.29632,10.65235-6.99863a66.89163,66.89163,0,0,0,15.76629,4.32745v10.3479H222.259v-10.3479a66.89027,66.89027,0,0,0,15.76629-4.32748l10.65552,7.00076.451.29633.451-.29633,14.934-9.81186.3703-.24331v-7.8183l-.3703-.24332-6.63562-4.35971a26.52415,26.52415,0,0,0,2.66174-5.38989h15.81555V188.40486H260.54523a26.53143,26.53143,0,0,0-2.66656-5.4l6.63507-4.35935.37036-.24331v-7.8183l-.37036-.24332-14.93409-9.81186-.451-.29632-.451.29632L238.01984,167.531a66.89843,66.89843,0,0,0-15.7608-4.32516v-10.342Zm-19.34619,46.76648a13.34266,13.34266,0,0,1,15.94763,0,13.34274,13.34274,0,0,1-15.94763,0Z" transform="translate(-6.07724 -18.31272)" style="fill: url(#aa00a55f-ed8f-4b37-baa4-c8f01f6dc553)"/>
      <path d="M275.54619,203.10225v-13.876H259.96611a28.19917,28.19917,0,0,0-6.9172-10.95713l11.02281-7.24211-14.93405-9.81184-11.02376,7.24273a66.32533,66.32533,0,0,0-16.66725-4.54165V153.68512h-21.12V163.9162a66.32485,66.32485,0,0,0-16.66724,4.54169l-11.027-7.24484-14.934,9.81184,11.026,7.24418a28.19927,28.19927,0,0,0-6.91715,10.95713H146.22714v13.876h15.58223a28.2,28.2,0,0,0,6.91153,10.94761l-11.01924,7.23977,14.934,9.81184,11.01829-7.23914a66.32181,66.32181,0,0,0,16.67271,4.544v10.237h21.12v-10.237a66.3213,66.3213,0,0,0,16.67272-4.54395l11.02144,7.24122,14.934-9.81184-11.02245-7.24188a28.19979,28.19979,0,0,0,6.91159-10.94761Zm-64.65055-.00593c-5.82712,0-10.551-3.10359-10.551-6.93211s4.72386-6.93212,10.551-6.93212,10.551,3.10363,10.551,6.93212S216.72281,203.09632,210.89564,203.09632Z" transform="translate(-6.07724 -18.31272)" style="opacity: 0.4;fill: url(#e0e8d874-0d3c-4a27-93c6-89e5450ab661)"/>
    </g>
    <g>
      <path d="M260.255,74.205l-1.10119-.785c-2.42566-6.33429-8.54554-11.48676-16.49536-14.03931l-1.48426-1.36652-3.80835.10791a38.28812,38.28812,0,0,0-6.063-.48205c-12.67054,0-23.43494,6.12616-27.3794,14.66052l-1.61279,2.80705v4.99056l.023.07336c.48144,11.74823,13.26147,21.16132,28.96924,21.16132,16.01269,0,28.99218-9.78034,28.99218-21.84638Z" transform="translate(-6.07724 -18.31272)" style="fill: #b5ddf7"/>
      <g style="clip-path: url(#b4b23baf-832f-4a20-81d7-22d6e821e855)">
        <polyline points="193.905 65.715 193.905 57.211 196.59 62.034 196.111 70.494 196.59 62.034 199.989 66.946 199.989 75.407 199.989 66.946 203.88 70.859 203.88 78.305 203.88 70.859 207.333 73.873 207.333 80.317 207.333 73.873 211.225 75.737 211.225 81.997 211.225 75.737 215.555 76.943 215.555 83.289 215.555 77.162 219.994 78.258 219.994 84.115 219.994 78.258 224.324 78.477 224.324 84.397 224.324 78.477 228.874 78.258 228.874 84.238 228.874 78.258 233.478 77.765 233.478 83.583 233.478 77.765 238.849 76.193 238.849 82.105 238.849 76.193 244.275 73.398 244.275 79.663 244.275 73.398 248.258 70.804 248.258 77.037 248.258 70.804 251.583 67.844 251.583 73.995 251.583 67.844 254.251 64.373 254.251 70.524 254.251 64.373 255.95 60.773 255.95 67.2 255.95 60.773 257.284 56.242 257.284 61.048 257.284 56.242" style="fill: none;stroke: #85afc1;stroke-miterlimit: 10;stroke-width: 2.21677708625793px;opacity: 0.5"/>
      </g>
      <path d="M231.30289,97.17905c-16.01274,0-28.99217-9.78036-28.99217-21.84641s12.97943-21.84641,28.99217-21.84641,28.99218,9.78037,28.99218,21.84641S247.31563,97.17905,231.30289,97.17905Zm13.02655-24.5499c.569-2.86188-2.32481-4.40068-6.27862-5.42747l1.2829-3.87774-3.13115-.58712-1.25029,3.77534c-.82265-.15566-1.667-.30039-2.50964-.44513l1.25935-3.79991-3.13115-.58848-1.2829,3.87637c-.68132-.11743-1.35176-.23212-2.00046-.355l.00362-.01228-4.31983-.81242-.83353,2.52053s2.32481.40143,2.27589.426c1.2684.23894,1.49672.87112,1.45867,1.37359l-1.46048,4.41707c.087.01639.19932.041.32616.07783l-.3316-.06144-2.04757,6.188a1.22189,1.22189,0,0,1-1.43693.55982c.03262.03413-2.27588-.42737-2.27588-.42737l-1.55471,2.70076,4.077.766c.75742.14337,1.50034.29356,2.23058.4342l-1.29558,3.92143,3.12934.58712,1.2829-3.87774c.85527.17341,1.68517.33453,2.497.48745l-1.27929,3.86135,3.13116.58713L232.16,85.00378c5.34181.76189,9.35722.45468,11.04783-3.18548,1.36263-2.93015-.067-4.62188-2.87747-5.72376C242.37791,75.73954,243.91812,74.725,244.32944,72.62915ZM237.172,80.19074c-.9658,2.93151-7.51622,1.34628-9.63989.94895l1.72141-5.19535C231.37718,76.3444,238.18491,77.135,237.172,80.19074Zm.96943-7.60392c-.88245,2.66663-6.333,1.31079-8.09969.979l1.55833-4.71064C233.36677,69.187,239.06192,69.8055,238.14142,72.58682Z" transform="translate(-6.07724 -18.31272)" style="fill: #fff;fill-rule: evenodd"/>
    </g>
    <g>
      <path d="M115.85927,142.0276l-1.10525-.78786c-2.43458-6.35759-8.577-11.529-16.556-14.091l-1.48972-1.37155-3.82236.10831a38.42841,38.42841,0,0,0-6.0853-.48383c-12.71715,0-23.52116,6.1487-27.48014,14.71447l-1.61872,2.81738v5.00892l.023.07363c.48322,11.79146,13.31027,21.23918,29.07583,21.23918,16.07162,0,29.09887-9.81632,29.09887-21.92676Z" transform="translate(-6.07724 -18.31272)" style="fill: #b5ddf7"/>
      <g style="clip-path: url(#be1d6284-2a60-4756-86bc-98b6d6f256e3)">
        <polyline points="49.287 133.574 49.287 125.038 51.983 129.879 51.502 138.37 51.983 129.879 55.393 134.809 55.393 143.302 55.393 134.809 59.299 138.736 59.299 146.21 59.299 138.736 62.765 141.762 62.765 148.229 62.765 141.762 66.671 143.632 66.671 149.916 66.671 143.632 71.017 144.843 71.017 151.213 71.017 145.063 75.473 146.163 75.473 152.042 75.473 146.163 79.819 146.383 79.819 152.324 79.819 146.383 84.385 146.163 84.385 152.165 84.385 146.163 89.006 145.668 89.006 151.507 89.006 145.668 94.397 144.091 94.397 150.024 94.397 144.091 99.843 141.285 99.843 147.573 99.843 141.285 103.841 138.681 103.841 144.937 103.841 138.681 107.178 135.711 107.178 141.884 107.178 135.711 109.855 132.227 109.855 138.4 109.855 132.227 111.561 128.614 111.561 135.064 111.561 128.614 112.899 124.066 112.899 128.889 112.899 124.066" style="fill: none;stroke: #85afc1;stroke-miterlimit: 10;stroke-width: 2.22493382192501px;opacity: 0.5"/>
      </g>
      <g>
        <path d="M86.84906,165.07447c-16.00606,0-28.98009-9.8111-28.98009-21.91506s12.974-21.91507,28.98009-21.91507,28.98009,9.8111,28.98009,21.91507S102.85513,165.07447,86.84906,165.07447Zm14.47918-21.6151L87.75107,126.72311l-13.5808,16.73763,13.5808,5.96226Zm.01087,1.91346-13.588,5.95952-13.5808-5.95815,13.5808,14.21466Z" transform="translate(-6.07724 -18.31272)" style="fill: #fff;fill-rule: evenodd"/>
        <g>
          <path d="M87.75107,126.72311v12.14916l13.579,4.58847Zm0,24.61062v8.25513l13.588-14.216Z" transform="translate(-6.07724 -18.31272)" style="fill: #fff;fill-opacity: 0.298000007867813"/>
          <path d="M87.75107,149.423l13.579-5.96226-13.579-4.58573Z" transform="translate(-6.07724 -18.31272)" style="fill: #fff;fill-opacity: 0.800999999046326"/>
          <path d="M74.17027,143.46074l13.5808,5.96226V138.875Z" transform="translate(-6.07724 -18.31272)" style="fill: #fff;fill-opacity: 0.298000007867813"/>
        </g>
      </g>
    </g>
    <g>
      <path d="M234.095,193.59567l-.88266-.6292c-1.94429-5.07724-6.84966-9.20719-13.22183-11.25318l-1.18971-1.09533-3.05257.08649a30.68937,30.68937,0,0,0-4.85978-.38639c-10.156,0-18.78424,4.91042-21.94591,11.75112l-1.29273,2.25v4.00017l.01839.05881c.3859,9.41677,10.62972,16.96182,23.22025,16.96182,12.835,0,23.23864-7.83941,23.23864-17.51093Z" transform="translate(-6.07724 -18.31272)" style="fill: #b5ddf7"/>
      <g style="clip-path: url(#b8d09740-2f84-4f5e-b1ae-0421dc7e0dd1)">
        <polyline points="179.706 183.156 179.706 176.34 181.859 180.206 181.474 186.987 181.859 180.206 184.582 184.143 184.582 190.925 184.582 184.143 187.702 187.279 187.702 193.248 187.702 187.279 190.469 189.696 190.469 194.86 190.469 189.696 193.589 191.189 193.589 196.207 193.589 191.189 197.059 192.156 197.059 197.243 197.059 192.331 200.618 193.21 200.618 197.905 200.618 193.21 204.089 193.386 204.089 198.131 204.089 193.386 207.735 193.21 207.735 198.004 207.735 193.21 211.426 192.815 211.426 197.478 211.426 192.815 215.731 191.555 215.731 196.294 215.731 191.555 220.08 189.315 220.08 194.337 220.08 189.315 223.273 187.235 223.273 192.231 223.273 187.235 225.938 184.863 225.938 189.793 225.938 184.863 228.076 182.08 228.076 187.011 228.076 182.08 229.438 179.195 229.438 184.347 229.438 179.195 230.507 175.564 230.507 179.415 230.507 175.564" style="fill: none;stroke: #85afc1;stroke-miterlimit: 10;stroke-width: 1.77685417404784px;opacity: 0.5"/>
      </g>
      <path d="M210.89566,212.01c-12.839,0-23.24589-7.8392-23.24589-17.51043s10.4069-17.51042,23.24589-17.51042,23.24589,7.8392,23.24589,17.51042S223.73465,212.01,210.89566,212.01Zm-8.09683-13.993-1.70712,5.23781h18.70567l1.26836-3.90811H209.84669l1.232-3.8118,2.07324-.6249.98795-3.00961-2.04854.62491,2.20691-6.78092h-7.45176L203.8231,194.969l-2.09794.63476-.99958,3.01945Z" transform="translate(-6.07724 -18.31272)" style="fill: #fff;fill-rule: evenodd"/>
    </g>
  </g>
  <g>
    <g style="opacity: 0.5">
      <path d="M146.55848,415.30323a31.32835,31.32835,0,0,0-3.91613-7.861l8.91485-5.85718V393.145l-18.18274-11.94629-13.42181,8.8183a80.752,80.752,0,0,0-20.293-5.5296V372.03071H73.94539v12.45673a80.752,80.752,0,0,0-20.293,5.52966L40.2267,381.19624,22.044,393.14246v8.44013l8.9187,5.85968a31.32783,31.32783,0,0,0-3.91608,7.861H8.07722V440.638H27.04915a31.32927,31.32927,0,0,0,3.91021,7.84869l-8.9115,5.855v8.44007L40.2306,474.728l13.41516-8.8139a80.75019,80.75019,0,0,0,20.29963,5.53247v12.46387H99.65968V471.44654a80.74677,80.74677,0,0,0,20.29962-5.53247l13.419,8.81647,18.18274-11.94629v-8.44006l-8.91535-5.85755a31.32694,31.32694,0,0,0,3.91022-7.84869h18.97186V415.30323ZM86.81343,423.7505c4.75213,0,8.89154,1.69976,11.11365,4.22009-2.22211,2.52032-6.36152,4.22-11.11365,4.22s-8.89148-1.69971-11.11359-4.22C77.922,425.45026,82.06135,423.7505,86.81343,423.7505Z" transform="translate(-6.07724 -18.31272)" style="opacity: 0.30000000000000004;fill: url(#fd651e7f-dd2e-4407-99a7-6579e9ca00fa)"/>
      <path d="M165.51827,432.19781V415.30322H146.549a34.33351,34.33351,0,0,0-8.42194-13.34069l13.42066-8.81753L133.365,381.19874,119.94314,390.017a80.75336,80.75336,0,0,0-20.293-5.52962V372.03069H73.93587V384.4874a80.75337,80.75337,0,0,0-20.293,5.52966l-13.42572-8.82085L22.03444,393.14248l13.4245,8.82005a34.33344,34.33344,0,0,0-8.42187,13.34069H8.06771v16.89459H27.03963a34.33441,34.33441,0,0,0,8.415,13.32911l-13.41632,8.81467,18.18274,11.94627L53.63625,457.474a80.74926,80.74926,0,0,0,20.29962,5.53246V475.4703h25.7143V463.00641a80.74855,80.74855,0,0,0,20.29962-5.53242l13.419,8.81644,18.18274-11.94627-13.42022-8.81724a34.33428,34.33428,0,0,0,8.4151-13.32911Zm-78.71436-.00722c-7.09472,0-12.84619-3.77874-12.84619-8.44009s5.75147-8.4401,12.84619-8.4401,12.84626,3.77878,12.84626,8.4401S93.8987,432.19059,86.80391,432.19059Z" transform="translate(-6.07724 -18.31272)" style="opacity: 0.4;fill: url(#ac252044-3cdd-4ad8-b330-90624ecc5e6c)"/>
    </g>
    <g style="opacity: 0.5">
      <path d="M300.87009,349.33972a36.48986,36.48986,0,0,0-4.56138-9.15619l10.38372-6.82224v-9.83071L285.51379,309.616l-15.63328,10.27126a94.0571,94.0571,0,0,0-23.63658-6.4407V298.93733H216.29278v14.50918a94.05717,94.05717,0,0,0-23.63657,6.44077L177.01838,309.613,155.83973,323.5276v9.83077l10.38821,6.82516a36.48964,36.48964,0,0,0-4.56132,9.15619H139.57175v29.509h22.09786a36.49105,36.49105,0,0,0,4.55449,9.1419l-10.37982,6.81968V404.641l21.17865,13.91464,15.62553-10.26614a94.05494,94.05494,0,0,0,23.64432,6.444v14.5175h29.95115v-14.5175a94.05115,94.05115,0,0,0,23.64433-6.444l15.63,10.26912L306.69691,404.644v-9.8307l-10.38429-6.82267a36.489,36.489,0,0,0,4.55449-9.1419H322.9649v-29.509Zm-69.589,9.83909c5.53513,0,10.35657,1.97984,12.9448,4.91543-2.58823,2.93559-7.40967,4.91535-12.9448,4.91535s-10.3565-1.97976-12.94474-4.91535C220.92455,361.15865,225.746,359.17881,231.28105,359.17881Z" transform="translate(-6.07724 -18.31272)" style="opacity: 0.30000000000000004;fill: url(#a334a158-1146-4446-a988-0003dd9c300c)"/>
      <path d="M322.97766,369.018V349.33971H300.88285a39.99066,39.99066,0,0,0-9.80958-15.53879l15.63192-10.27036-21.17864-13.91462-15.63328,10.27125a94.05883,94.05883,0,0,0-23.63657-6.44072V298.93731H216.30554v14.50916a94.05885,94.05885,0,0,0-23.63657,6.44076L177.03114,309.613l-21.17865,13.91462,15.63641,10.2733a39.9905,39.9905,0,0,0-9.80952,15.53879H139.58451V369.018h22.09786a39.99159,39.99159,0,0,0,9.80156,15.5253L155.857,394.8103l21.17865,13.91461,15.62553-10.26615a94.0541,94.0541,0,0,0,23.64432,6.444v14.51752H246.2567V404.90279a94.05327,94.05327,0,0,0,23.64432-6.444l15.63,10.26909,21.17864-13.91461-15.63143-10.27a39.99149,39.99149,0,0,0,9.80163-15.5253Zm-91.68385-.00841c-8.2637,0-14.96282-4.40134-14.96282-9.83074s6.69912-9.83074,14.96282-9.83074,14.96289,4.4014,14.96289,9.83074S239.55758,369.00955,231.29381,369.00955Z" transform="translate(-6.07724 -18.31272)" style="opacity: 0.4;fill: url(#e9fa3333-80ad-42b0-993f-6814c4626f5f)"/>
    </g>
    <g style="opacity: 0.5">
      <path d="M259.94807,467.73171a25.73076,25.73076,0,0,0-3.21645-6.45645l7.322-4.81068v-6.93209l-14.93405-9.81186-11.02376,7.24275a66.324,66.324,0,0,0-16.66724-4.54164v-10.2311H200.30867v10.2311a66.32409,66.32409,0,0,0-16.66725,4.54169l-11.027-7.24485-14.93405,9.81181v6.93213l7.3252,4.81274a25.73053,25.73053,0,0,0-3.21639,6.45645H146.20909v20.8082h15.58223a25.73141,25.73141,0,0,0,3.21159,6.44637l-7.3193,4.80888v6.93209l14.93405,9.81186L183.636,509.3a66.32274,66.32274,0,0,0,16.67272,4.544v10.237h21.11995V513.844a66.32,66.32,0,0,0,16.67271-4.544l11.02145,7.24124,14.934-9.81186v-6.93208l-7.32245-4.811a25.73,25.73,0,0,0,3.21158-6.44637h15.58218v-20.8082Zm-49.07048,6.938c3.90308,0,7.3029,1.39607,9.128,3.46609-1.82508,2.07-5.2249,3.466-9.128,3.466s-7.30285-1.396-9.12793-3.466C203.57474,476.06579,206.97456,474.66972,210.87759,474.66972Z" transform="translate(-6.07724 -18.31272)" style="opacity: 0.30000000000000004;fill: url(#e630259a-253f-4246-9def-c8109e465738)"/>
      <path d="M275.53714,481.60776v-13.876H259.95706a28.19926,28.19926,0,0,0-6.91719-10.95713l11.0228-7.24211-14.93405-9.81184-11.02376,7.24273a66.32537,66.32537,0,0,0-16.66724-4.54165V432.19063h-21.12v10.23108a66.325,66.325,0,0,0-16.66724,4.54169l-11.027-7.24484-14.934,9.81184,11.026,7.24418a28.19912,28.19912,0,0,0-6.91714,10.95713H146.21809v13.876h15.58223a28.2,28.2,0,0,0,6.91153,10.94761l-11.01924,7.23977,14.934,9.81184,11.01829-7.23914a66.32181,66.32181,0,0,0,16.67271,4.544v10.237h21.12v-10.237a66.32122,66.32122,0,0,0,16.67271-4.54395l11.02145,7.24122,14.93405-9.81184-11.02245-7.24188a28.19988,28.19988,0,0,0,6.91158-10.94761Zm-64.65055-.00593c-5.82712,0-10.551-3.10359-10.551-6.93211s4.72386-6.93212,10.551-6.93212,10.551,3.10363,10.551,6.93212S216.71376,481.60183,210.88659,481.60183Z" transform="translate(-6.07724 -18.31272)" style="opacity: 0.4;fill: url(#ebb192fc-da45-4f14-8acc-f05d967eaf69)"/>
    </g>
    <path d="M246.28177,298.93733V313.4465a94.05839,94.05839,0,0,1,23.6366,6.44072L285.55155,309.616l21.17871,13.91463v9.83073l-10.38379,6.82222a36.48724,36.48724,0,0,1,4.5614,9.15619h22.09485v29.509H300.90494a36.48877,36.48877,0,0,1-4.55456,9.14187l10.3844,6.8227v9.8307l-21.17871,13.91464-15.63-10.26915a94.05015,94.05015,0,0,1-23.64429,6.444v14.51754H216.3306V414.73355a94.05354,94.05354,0,0,1-23.64435-6.444L177.0607,418.5557,155.88211,404.641v-9.83068l10.37977-6.81971a36.49208,36.49208,0,0,1-4.55445-9.14187h-22.0979v-29.509h22.09491a36.49083,36.49083,0,0,1,4.56128-9.15619l-10.38818-6.82514v-9.83078L177.05619,309.613,192.694,319.88728a94.05741,94.05741,0,0,1,23.6366-6.44078V298.93733h29.95117m2-2H214.3306v14.78532a95.60731,95.60731,0,0,0-21.4267,5.90949l-14.74951-9.69061-1.0982-.72156-1.09821.72156-21.17865,13.91458-.90179.59247v11.98884l.90179.59247,8.73163,5.73676a38.36464,38.36464,0,0,0-3.22534,6.57307H137.60953v33.509H160.289a38.36925,38.36925,0,0,0,3.21844,6.55855l-8.72351,5.73152-.9018.59251v11.98871l.9018.59248,21.17859,13.91466,1.0982.72156,1.09821-.72156,14.73712-9.68245a95.59839,95.59839,0,0,0,21.43457,5.91267v14.79368h33.95117V416.45741a95.60016,95.60016,0,0,0,21.43457-5.91265l14.74158,9.68541,1.09815.72155,1.09814-.72155,21.17871-13.91465.90186-.59246V393.7343l-.90186-.59247-8.728-5.73449a38.36825,38.36825,0,0,0,3.21851-6.55858h22.67932v-33.509h-22.676a38.3567,38.3567,0,0,0-3.22547-6.57306l8.72717-5.73383.90186-.5925V322.45156l-.90186-.59247-21.17871-13.91465-1.09814-.72155-1.09827.72155-14.74475,9.68762a95.61253,95.61253,0,0,0-21.42676-5.90941V296.93733Z" transform="translate(-6.07724 -18.31272)" style="fill: url(#e204fabf-aa48-4051-af88-bb78583b57d0)"/>
    <path d="M99.6597,372.03076v12.45673a80.752,80.752,0,0,1,20.293,5.5296l13.42182-8.81828,18.18273,11.94627v8.44l-8.91485,5.85719a31.32828,31.32828,0,0,1,3.91614,7.861h18.9693V440.638H146.55594a31.32657,31.32657,0,0,1-3.91021,7.84869l8.91534,5.85755v8.44007l-18.18274,11.94629-13.419-8.81645A80.74887,80.74887,0,0,1,99.6597,471.4466v12.46386H73.94541V471.4466a80.75167,80.75167,0,0,1-20.29962-5.53246L40.23063,474.728,22.04789,462.78173v-8.44l8.9115-5.855a31.3283,31.3283,0,0,1-3.91022-7.84869H8.07724v-25.3347H27.0466a31.32806,31.32806,0,0,1,3.91608-7.861l-8.9187-5.85968v-8.44012l18.18274-11.94624,13.42572,8.82089a80.75116,80.75116,0,0,1,20.293-5.52968V372.03076H99.6597m2-2H71.94541V382.766a82.34018,82.34018,0,0,0-18.082,4.99675l-12.53845-8.23795-1.09821-.72154-1.09821.72151L20.94577,391.471l-.90179.59249v10.59816l.90179.59252,7.26844,4.77543a33.189,33.189,0,0,0-2.58136,5.27369H6.07724V442.638H25.63578a33.19366,33.19366,0,0,0,2.57544,5.26124l-7.26154,4.771-.90179.59249v10.59808l.90179.59248,18.18274,11.94629,1.09821.72155,1.0982-.72153,12.52783-8.2309a82.3349,82.3349,0,0,0,18.08875,4.99945v12.74237H101.6597V473.16811a82.33454,82.33454,0,0,0,18.08881-4.99945l12.53162,8.23343,1.0982.72155,1.09821-.72155,18.18274-11.94629.90179-.59247V453.26522l-.90179-.59249-7.26539-4.7735a33.19042,33.19042,0,0,0,2.57544-5.26124h19.55848v-29.3347H147.97226a33.19538,33.19538,0,0,0-2.58142-5.2737l7.26459-4.77295.90179-.59248V392.06607l-.90179-.59248L134.47269,379.5273l-1.0982-.72154-1.09821.72154-12.53455,8.23535a82.34358,82.34358,0,0,0-18.082-4.99667V370.03076Z" transform="translate(-6.07724 -18.31272)" style="fill: url(#a0667fb9-faa9-48af-a001-397f4e90519e)"/>
    <path d="M221.4376,432.19063v10.23694a66.32444,66.32444,0,0,1,16.67273,4.544l11.01824-7.23913,14.93409,9.81186v6.93209l-7.31934,4.80887a25.73413,25.73413,0,0,1,3.21167,6.44638h15.58215v20.80819H259.95707a25.72782,25.72782,0,0,1-3.21643,6.45645l7.32519,4.81275v6.93213l-14.934,9.8118-11.027-7.24485a66.32482,66.32482,0,0,1-16.66729,4.54169v10.23111H200.31766V513.84981a66.32432,66.32432,0,0,1-16.66723-4.54163l-11.02375,7.24274-14.93408-9.81186V499.807l7.32208-4.81067a25.73007,25.73007,0,0,1-3.21649-6.45645H146.21811V467.73165h15.58222a25.73166,25.73166,0,0,1,3.21155-6.44638l-7.32245-4.811v-6.93208l14.93408-9.81185,11.02142,7.24122a66.321,66.321,0,0,1,16.67273-4.544V432.19063H221.4376m.82135-.82133H199.49631v10.34788a66.88893,66.88893,0,0,0-15.76636,4.3275l-10.65545-7.00076-.451-.29631-.451.29631-14.93408,9.81186-.3703.24333v7.81828l.3703.24333,6.63562,4.35971a26.528,26.528,0,0,0-2.66168,5.3899H145.39676v22.45083h15.8133a26.52887,26.52887,0,0,0,2.66662,5.40006l-6.63507,4.35931-.37036.24329v7.81836l.37036.24331,14.93408,9.81186.451.29633.451-.29633,10.65778-7.00232a66.89976,66.89976,0,0,0,15.76086,4.32517v10.342H222.259v-10.342a66.89789,66.89789,0,0,0,15.76086-4.3252l10.661,7.0044.451.29629.45105-.29629,14.934-9.8118.37024-.24332v-7.81836l-.37024-.24331-6.63831-4.36139a26.527,26.527,0,0,0,2.66663-5.40006h15.81323V466.91033H260.543a26.5296,26.5296,0,0,0-2.66186-5.38988l6.63257-4.35762.37024-.24333v-7.81829l-.37024-.24333L249.57962,439.046l-.45105-.29631-.451.29631-10.65223,6.99867a66.88979,66.88979,0,0,0-15.76635-4.3275V431.3693Z" transform="translate(-6.07724 -18.31272)" style="fill: url(#b8f01d64-1e7d-4aa6-aef4-edcbffe591a1)"/>
    <g>
      <path d="M271.25758,315.30348l-1.52-1.08353c-3.34823-8.74346-11.79572-15.8556-22.76917-19.379l-2.04877-1.88626-5.25681.149a52.84858,52.84858,0,0,0-8.369-.6654c-17.48961,0-32.34812,8.45617-37.79281,20.23647l-2.2262,3.87468v6.88865l.03168.10127c.66456,16.21653,18.30531,29.20977,39.98733,29.20977,22.10293,0,40.019-13.50017,40.019-30.15538Z" transform="translate(-6.07724 -18.31272)" style="fill: #b5ddf7"/>
      <g style="clip-path: url(#af949d2b-ec67-41cd-af0d-afb4ef984d5c)">
        <polyline points="181.983 310.55 181.983 298.811 185.69 305.469 185.029 317.146 185.69 305.469 190.381 312.249 190.381 323.928 190.381 312.249 195.753 317.649 195.753 327.928 195.753 317.649 200.519 321.81 200.519 330.705 200.519 321.81 205.891 324.383 205.891 333.024 205.891 324.383 211.868 326.047 211.868 334.808 211.868 326.35 217.996 327.863 217.996 335.948 217.996 327.863 223.973 328.166 223.973 336.337 223.973 328.166 230.252 327.863 230.252 336.118 230.252 327.863 236.607 327.182 236.607 335.213 236.607 327.182 244.022 325.013 244.022 333.174 244.022 325.013 251.512 321.155 251.512 329.803 251.512 321.155 257.009 317.574 257.009 326.178 257.009 317.574 261.599 313.488 261.599 321.978 261.599 313.488 265.281 308.697 265.281 317.187 265.281 308.697 267.627 303.728 267.627 312.6 267.627 303.728 269.468 297.474 269.468 304.107 269.468 297.474" style="fill: none;stroke: #85afc1;stroke-miterlimit: 10;stroke-width: 3.05990128250019px;opacity: 0.5"/>
      </g>
      <path d="M231.29385,347.01545c-22.103,0-40.019-13.50021-40.019-30.15543s17.916-30.15542,40.019-30.15542,40.019,13.50021,40.019,30.15542S253.39684,347.01545,231.29385,347.01545Zm17.981-33.88716c.78537-3.95036-3.209-6.07443-8.66661-7.49174l1.77084-5.35259-4.32206-.81042-1.72582,5.21123c-1.13554-.21486-2.30109-.41464-3.46414-.61442l1.73832-5.24516-4.322-.81231-1.77084,5.35071c-.94045-.16209-1.86589-.32041-2.76132-.49l.005-.017-5.96283-1.12141-1.15055,3.47918s3.209.55411,3.14149.588c1.75083.32983,2.066,1.20245,2.01346,1.896l-2.016,6.09705c.12006.02261.27513.05654.45022.10743l-.45772-.08482-2.82634,8.54153a1.68661,1.68661,0,0,1-1.98344.77273c.045.04712-3.14149-.58991-3.14149-.58991l-2.146,3.728,5.62767,1.05733c1.0455.19789,2.071.40521,3.079.59934l-1.78835,5.4129,4.31955.81042,1.77084-5.35258c1.18056.23936,2.32611.46175,3.44664.67284l-1.76584,5.33,4.322.81043,1.78835-5.40159c7.3735,1.05167,12.91613.62761,15.24974-4.397,1.8809-4.0446-.09254-6.37976-3.97188-7.90072C246.58111,317.42167,248.70712,316.02133,249.27488,313.12829Zm-9.87969,10.43755c-1.33314,4.04648-10.37493,1.85833-13.30632,1.30987l2.37613-7.17133C231.39639,318.2566,240.79335,319.34785,239.39519,323.56584Zm1.33813-10.496c-1.21807,3.68085-8.74164,1.80933-11.1803,1.35134l2.151-6.50226C234.1427,308.37693,242.00393,309.2307,240.73332,313.06986Z" transform="translate(-6.07724 -18.31272)" style="fill: #fff;fill-rule: evenodd"/>
    </g>
    <g>
      <path d="M124.56583,383.37847l-1.43674-1.02417c-3.1648-8.26444-11.14948-14.98694-21.52174-18.31729l-1.93653-1.78291-4.96881.14079a49.95314,49.95314,0,0,0-7.91047-.62894c-16.53143,0-30.5759,7.99289-35.72229,19.12779L48.965,384.55615v6.51125l.02994.09571c.62815,15.32809,17.30244,27.60948,37.79659,27.60948,20.892,0,37.82653-12.76054,37.82653-28.50328Z" transform="translate(-6.07724 -18.31272)" style="fill: #b5ddf7"/>
      <g style="clip-path: url(#e332098e-9cfc-4d47-9b8c-a92929cfb38e)">
        <polyline points="39.849 377.882 39.849 366.786 43.353 373.079 42.728 384.117 43.353 373.079 47.787 379.488 47.787 390.527 47.787 379.488 52.865 384.593 52.865 394.308 52.865 384.593 57.37 388.526 57.37 396.933 57.37 388.526 62.447 390.957 62.447 399.125 62.447 390.957 68.097 392.53 68.097 400.811 68.097 392.816 73.889 394.247 73.889 401.889 73.889 394.247 79.538 394.533 79.538 402.256 79.538 394.533 85.474 394.247 85.474 402.049 85.474 394.247 91.481 393.603 91.481 401.194 91.481 393.603 98.489 391.553 98.489 399.266 98.489 391.553 105.569 387.906 105.569 396.08 105.569 387.906 110.765 384.521 110.765 392.654 110.765 384.521 115.104 380.659 115.104 388.684 115.104 380.659 118.584 376.13 118.584 384.156 118.584 376.13 120.801 371.434 120.801 379.819 120.801 371.434 122.541 365.523 122.541 371.792 122.541 365.523" style="fill: none;stroke: #85afc1;stroke-miterlimit: 10;stroke-width: 2.89226135356078px;opacity: 0.5"/>
      </g>
      <g>
        <path d="M86.85455,413.33781c-20.80679,0-37.67213-12.75376-37.67213-28.48808s16.86534-28.48808,37.67213-28.48808,37.67213,12.75376,37.67213,28.48808S107.66134,413.33781,86.85455,413.33781Zm18.82194-28.09815-17.6494-21.756L70.373,385.24144,88.0271,392.992Zm.01412,2.48737L88.0271,395.474,70.373,387.72881,88.0271,406.20689Z" transform="translate(-6.07724 -18.31272)" style="fill: #fff;fill-rule: evenodd"/>
        <g>
          <path d="M88.02709,363.48367v15.79308l17.65175,5.96469Zm0,31.99212v10.7311L105.69061,387.727Z" transform="translate(-6.07724 -18.31272)" style="fill: #fff;fill-opacity: 0.298000007867813"/>
          <path d="M88.02709,392.992l17.65175-7.75054-17.65175-5.96113Z" transform="translate(-6.07724 -18.31272)" style="fill: #fff;fill-opacity: 0.800999999046326"/>
          <path d="M70.373,385.24144,88.0271,392.992V379.28031Z" transform="translate(-6.07724 -18.31272)" style="fill: #fff;fill-opacity: 0.298000007867813"/>
        </g>
      </g>
    </g>
    <g>
      <path d="M239.741,435.28678l-1.09782-.78257c-2.41823-6.31488-8.51935-11.45156-16.44482-13.99629l-1.47971-1.36233-3.79668.10758a38.16939,38.16939,0,0,0-6.04441-.48058c-12.63171,0-23.36313,6.10739-27.2955,14.6156l-1.60785,2.79845v4.97527l.02288.07314c.48,11.71223,13.22084,21.09647,28.88047,21.09647,15.96363,0,28.90336-9.75036,28.90336-21.77943Z" transform="translate(-6.07724 -18.31272)" style="fill: #b5ddf7"/>
      <g style="clip-path: url(#f96638ed-53c6-454e-bc67-4774fdad0c98)">
        <polyline points="173.575 426.767 173.575 418.289 176.253 423.097 175.775 431.531 176.253 423.097 179.641 427.994 179.641 436.429 179.641 427.994 183.52 431.895 183.52 439.318 183.52 431.895 186.963 434.9 186.963 441.324 186.963 434.9 190.842 436.758 190.842 442.999 190.842 436.758 195.159 437.96 195.159 444.287 195.159 438.178 199.585 439.271 199.585 445.111 199.585 439.271 203.902 439.49 203.902 445.391 203.902 439.49 208.437 439.271 208.437 445.233 208.437 439.271 213.027 438.779 213.027 444.579 213.027 438.779 218.382 437.213 218.382 443.107 218.382 437.213 223.792 434.426 223.792 440.672 223.792 434.426 227.762 431.84 227.762 438.054 227.762 431.84 231.077 428.889 231.077 435.021 231.077 428.889 233.737 425.428 233.737 431.561 233.737 425.428 235.431 421.84 235.431 428.247 235.431 421.84 236.76 417.323 236.76 422.114 236.76 417.323" style="fill: none;stroke: #85afc1;stroke-miterlimit: 10;stroke-width: 2.20998457744849px;opacity: 0.5"/>
      </g>
      <path d="M210.88661,458.18979c-15.96866,0-28.91236-9.75011-28.91236-21.77882s12.9437-21.77881,28.91236-21.77881S239.799,424.38226,239.799,436.411,226.85527,458.18979,210.88661,458.18979Zm-10.07053-17.404-2.12326,6.51459h23.26542l1.57753-4.86076H209.58194l1.53236-4.741,2.57862-.77723,1.22877-3.74324-2.5479.77724,2.74487-8.43385h-9.26822L202.09,436.99492l-2.60935.78948-1.24323,3.75548Z" transform="translate(-6.07724 -18.31272)" style="fill: #fff;fill-rule: evenodd"/>
    </g>
  </g>
  <g>
    <rect x="1014.56188" y="9.3631" width="454.94505" height="186.72527" rx="23.14286" style="fill: #4591ff;stroke: #fff;stroke-miterlimit: 10"/>
    <g style="clip-path: url(#bb36c072-3ff7-40d2-8cc6-3e875a2a5e72)">
      <path d="M1105.03473,218.30077s128.87545-19.11521,191.73627-57.36468c52.87912-32.17583,90.64615-76.25547,182.50549-54.70822V220.2666Z" transform="translate(-6.07724 -18.31272)" style="stroke: #fff;stroke-miterlimit: 10;fill: url(#e85ed9c7-4d7d-4b02-ab44-7c93a70a8af7)"/>
    </g>
    <g>
      <line x1="1411.55255" y1="9.3631" x2="1411.55255" y2="196.08837" style="fill: #4591ff"/>
      <g>
        <line x1="1411.55258" y1="9.36309" x2="1411.55258" y2="11.86309" style="fill: none;stroke: #fff;stroke-miterlimit: 10"/>
        <line x1="1411.55258" y1="16.77459" x2="1411.55258" y2="191.13262" style="fill: none;stroke: #fff;stroke-miterlimit: 10;stroke-dasharray: 4.91149377822876,4.91149377822876"/>
        <line x1="1411.55258" y1="193.58837" x2="1411.55258" y2="196.08837" style="fill: none;stroke: #fff;stroke-miterlimit: 10"/>
      </g>
    </g>
    <circle cx="1411.55255" cy="82.20367" r="31.58076" style="fill: url(#ad288f4a-8284-422f-8616-1b7b18a6ceba)"/>
    <circle cx="1411.55255" cy="82.20367" r="9.42691" style="fill: #4591ff;stroke: #fff;stroke-miterlimit: 10"/>
  </g>
  <g>
    <path d="M493.97648,310.83223l-74.0982-129.31531s182.25249-290.74525,360-96.10788c149.57722,163.79027,21.61622,412.043-128.27583,399.95771C537.75823,445.43406,493.97648,310.83223,493.97648,310.83223Z" transform="translate(-6.07724 -18.31272)" style="fill-rule: evenodd;fill: url(#a439744d-3c03-41e2-87ff-85385fdeb806)"/>
    <path d="M651.60247,344.34141V484.85026a12.59847,12.59847,0,0,1-14.76666,12.41046l-137.1897-23.9682c-4.2279-.738-7.30359-1.90924-9.33184-3.57086-.85218-.69989-2.41388-2.371-2.41388-4.066V299.79679c0,3.08521,4.66589,6.17047,11.74572,7.40833L641.17224,331.931A12.59846,12.59846,0,0,1,651.60247,344.34141Z" transform="translate(-6.07724 -18.31272)" style="stroke: #fff;stroke-miterlimit: 10;stroke-width: 0.476113319396973px;fill: url(#b7985bdd-9a72-4a05-9ea0-5428c5f6ade4)"/>
    <line x1="481.82316" y1="281.4841" x2="481.82316" y2="281.40316" style="fill: #529df7;stroke: #fff;stroke-miterlimit: 10;stroke-width: 0.476113319396973px"/>
    <line x1="481.82316" y1="447.43816" x2="481.82316" y2="447.34294" style="fill: #529df7;stroke: #fff;stroke-miterlimit: 10;stroke-width: 0.476113319396973px"/>
    <path d="M503.43747,481.28971" transform="translate(-6.07724 -18.31272)" style="fill: #529df7;stroke: #fff;stroke-miterlimit: 10;stroke-width: 0.476113319396973px"/>
    <path d="M503.43747,316.10455" transform="translate(-6.07724 -18.31272)" style="fill: #529df7;stroke: #fff;stroke-miterlimit: 10;stroke-width: 0.476113319396973px"/>
    <path d="M659.81541,331.31835V478.46282a7.00826,7.00826,0,0,1-8.213,6.90394h0V344.35466a12.61417,12.61417,0,0,0-10.44325-12.426L499.64611,307.20514c-7.07981-1.23788-11.74571-4.32312-11.74571-7.40832a3.33273,3.33273,0,0,1,.54277-1.78543c1.714-2.72335,7.1179-4.37548,13.30738-4.37548a35.86315,35.86315,0,0,1,6.10851.52848l141.51347,24.72806A12.61419,12.61419,0,0,1,659.81541,331.31835Z" transform="translate(-6.07724 -18.31272)" style="stroke: #fff;stroke-miterlimit: 10;stroke-width: 0.476113319396973px;fill: url(#b899ed23-a04a-426a-93f3-c9036cc37023)"/>
    <g style="opacity: 0.8">
      <g>
        <path d="M487.90039,311.20878a12.425,12.425,0,0,0,1.23706.84351" transform="translate(-6.07724 -18.31272)" style="fill: none;stroke: #fff;stroke-miterlimit: 10;stroke-width: 0.5px"/>
        <path d="M491.8142,313.44395a26.60327,26.60327,0,0,0,4.27369,1.45715c4.35559,1.08887,102.2232,17.46338,136.19836,23.137a13.76126,13.76126,0,0,1,11.494,13.57862V478.48075a10.28265,10.28265,0,0,1-12.13141,10.11511L493.71429,463.38462s-4.53656-1.23474-5.595-8.067" transform="translate(-6.07724 -18.31272)" style="fill: none;stroke: #fff;stroke-miterlimit: 10;stroke-width: 0.5px;stroke-dasharray: 3.0191824436187744,3.0191824436187744"/>
        <path d="M487.95166,453.80992q-.05026-.71595-.05127-1.5022" transform="translate(-6.07724 -18.31272)" style="fill: none;stroke: #fff;stroke-miterlimit: 10;stroke-width: 0.5px"/>
      </g>
    </g>
    <g>
      <path d="M547.58256,260.05453l-.665.92577c-5.52448,2.16-9.91681,7.32566-11.97252,13.92734l-1.16831,1.25589.18825,3.12763a29.4092,29.4092,0,0,0-.27667,4.99641c.30986,10.41516,5.97342,19.10282,13.59308,22.12134l2.51391,1.25209,4.39926-.13088.06411-.02078c10.34451-.70385,18.32979-11.45588,17.94566-24.36763-.39159-13.16241-9.33054-23.575-19.967-23.2586Z" transform="translate(-6.07724 -18.31272)" style="fill: #b5ddf7"/>
      <g style="clip-path: url(#a1d8e69f-e628-4594-b1e9-523ded46b181)">
        <polyline points="551.638 291.029 544.142 291.252 548.328 288.918 555.797 289.09 548.328 288.918 552.575 285.995 560.033 285.773 552.575 285.995 555.928 282.694 562.493 282.499 555.928 282.694 558.501 279.776 564.182 279.607 558.501 279.776 560.049 276.529 565.568 276.365 560.049 276.529 561.006 272.938 566.601 272.771 561.199 272.932 562.057 269.254 567.22 269.1 562.057 269.254 562.144 265.689 567.363 265.534 562.144 265.689 561.84 261.955 567.112 261.798 561.84 261.955 561.292 258.184 566.421 258.031 561.292 258.184 559.776 253.809 564.987 253.654 559.776 253.809 557.179 249.422 562.702 249.258 557.179 249.422 554.795 246.217 560.29 246.053 554.795 246.217 552.104 243.561 557.526 243.4 552.104 243.561 548.979 241.459 554.401 241.298 548.979 241.459 545.765 240.157 551.43 239.988 545.765 240.157 541.738 239.18 545.974 239.054 541.738 239.18" style="fill: none;stroke: #85afc1;stroke-miterlimit: 10;stroke-width: 1.887840508354629px;opacity: 0.5"/>
      </g>
      <path d="M568.54263,283.25063c.39159,13.16245-7.91257,24.088-18.549,24.40446s-19.57542-10.09615-19.967-23.25859,7.91257-24.088,18.549-24.40445S568.151,270.08819,568.54263,283.25063Zm-21.95975-10.064c-2.53671-.39264-3.82243,2.0264-4.63087,5.30335l-3.44967-.95285-.441,2.5892,3.3586.92873c-.11709.6803-.224,1.37819-.331,2.07459l-3.38049-.93553-.44219,2.58924,3.44847.95288c-.08685.56312-.17156,1.11723-.264,1.65369l-.01092-.00266-.61052,3.5722,2.24228.61906s.297-1.92152.31987-1.882c.17962-1.0489.73131-1.25315,1.17518-1.23505l3.92944,1.08467a2.70493,2.70493,0,0,1,.06063-.27014l-.04605.27418,5.5049,1.52082a.98244.98244,0,0,1,.52863,1.16647c.02929-.02771-.32108,1.882-.32108,1.882l2.41879,1.20714.57554-3.3714c.10785-.62636.22208-1.241.3282-1.84492l3.4885.96213.441-2.58772-3.44967-.95285c.13194-.70757.25368-1.394.36863-2.06527l3.43514.9503.441-2.5892-3.48128-.96234c.541-4.41094.172-7.70355-3.07823-8.99776-2.6163-1.04324-4.07263.17632-4.97523,2.51538A3.67472,3.67472,0,0,0,546.58288,273.18667Zm6.84071,5.6851c2.6078.717,1.37058,6.143,1.07226,7.89909l-4.62189-1.27874C550.17469,283.736,550.70511,278.1193,553.42359,278.87177Zm-6.7267-.59745c2.37226.65544,1.31036,5.17132,1.06108,6.63226l-4.19062-1.15741C543.81663,282.28823,544.2226,277.59061,546.69689,278.27432Z" transform="translate(-6.07724 -18.31272)" style="fill: #fff;fill-rule: evenodd"/>
    </g>
    <g>
      <path d="M610.95509,225.59311l-.76987.89559a22.235,22.235,0,0,0-13.73473,13.38665l-1.33557,1.20323.06324,3.13294a26.92281,26.92281,0,0,0-.53072,4.97945c-.13629,10.41888,5.66375,19.34774,13.86268,22.699l2.69333,1.36165,4.81922.063.07109-.01794c11.35006-.24749,20.57744-10.63749,20.7464-23.55386.17224-13.1671-9.13269-23.96358-20.78447-24.116Z" transform="translate(-6.07724 -18.31272)" style="fill: #b5ddf7"/>
      <g style="clip-path: url(#fa755630-39a7-45bb-b327-f17370020958)">
        <polyline points="613.715 256.967 605.503 256.859 610.189 254.712 618.354 255.213 610.189 254.712 614.969 251.979 623.14 252.086 614.969 251.979 618.789 248.829 625.98 248.923 618.789 248.829 621.738 246.027 627.96 246.109 621.738 246.027 623.579 242.851 629.624 242.93 623.579 242.851 624.79 239.306 630.919 239.386 625.002 239.308 626.108 235.672 631.764 235.746 626.108 235.672 626.366 232.114 632.083 232.189 626.366 232.114 626.204 228.37 631.979 228.446 626.204 228.37 625.777 224.578 631.395 224.652 625.777 224.578 624.317 220.141 630.026 220.216 624.317 220.141 621.676 215.644 627.726 215.723 621.676 215.644 619.214 212.336 625.233 212.415 619.214 212.336 616.391 209.565 622.331 209.642 616.391 209.565 613.068 207.327 619.008 207.405 613.068 207.327 609.611 205.885 615.817 205.966 609.611 205.885 605.249 204.731 609.89 204.791 605.249 204.731" style="fill: none;stroke: #85afc1;stroke-miterlimit: 10;stroke-width: 1.9755404457612946px;opacity: 0.5"/>
      </g>
      <path d="M632.829,249.69043c-.17224,13.16714-9.75644,23.71647-21.40822,23.56405s-20.95676-10.94884-20.78451-24.116,9.75643-23.71648,21.40822-23.56406S633.00121,236.52328,632.829,249.69043Zm-18.23228-11.25426c-2.07588-1.63611-4.4293-.19354-6.78184,2.23723l-2.61477-2.58846-1.68174,2.02161,2.54523,2.521c-.443.53054-.88559,1.08153-1.3275,1.63121l-2.56144-2.5381-1.68283,2.021,2.61367,2.58787c-.35765.44431-.7089.88188-1.05832,1.30018l-.00846-.00788-2.3221,2.788,1.69973,1.68223s1.221-1.51574,1.22178-1.46973c.68215-.81846,1.27759-.714,1.666-.4716l2.97877,2.94785a2.63367,2.63367,0,0,1,.18855-.20346l-.17751.21441,4.17244,4.13084a.974.974,0,0,1-.10652,1.28216c.04-.00908-1.22287,1.46915-1.22287,1.46915l1.56546,2.28268,2.191-2.63165c.40789-.48845.81565-.96346,1.21083-1.43335l2.64492,2.61633,1.681-2.02029-2.61476-2.58846c.46982-.54662.92-1.08009,1.35655-1.60391l2.603,2.57882,1.68174-2.0216-2.63834-2.61284c2.67675-3.55137,3.98294-6.597,1.71642-9.37982-1.82376-2.24132-3.73373-1.92673-5.7044-.3579A3.72144,3.72144,0,0,0,614.59669,238.43617Zm3.29853,8.42659c1.97829,1.95389-1.8263,6.03056-2.96622,7.40207l-3.50223-3.46987C612.56888,249.42462,615.83546,244.82156,617.89522,246.86276ZM612.17,242.90925c1.798,1.78018-1.39724,5.15661-2.34656,6.29705L606.647,246.062C607.59631,244.92152,610.29467,241.05243,612.17,242.90925Z" transform="translate(-6.07724 -18.31272)" style="fill: #fff;fill-rule: evenodd"/>
    </g>
    <g>
      <path d="M565.88007,184.70869l-.62315,1.00322a22.235,22.235,0,0,0-11.51521,15.33771l-1.13487,1.39412.54378,3.086a26.92354,26.92354,0,0,0,.24053,5.00188c1.4659,10.31613,8.56877,18.248,17.18521,20.3l2.87054.93172,4.77169-.678.06749-.02866c11.17732-1.98816,18.699-13.67237,16.88174-26.46136-1.85256-13.03727-12.70562-22.27614-24.24251-20.63678Z" transform="translate(-6.07724 -18.31272)" style="fill: #b5ddf7"/>
      <g style="clip-path: url(#e4f2a056-1543-4847-9f26-d19eb26faa79)">
        <polyline points="576.168 214.135 568.037 215.29 572.338 212.448 580.482 211.689 572.338 212.448 576.641 209.014 584.731 207.864 576.641 209.014 579.932 205.314 587.052 204.302 579.932 205.314 582.415 202.093 588.576 201.218 582.415 202.093 583.746 198.671 589.732 197.821 583.746 198.671 584.398 194.982 590.467 194.12 584.608 194.952 585.143 191.189 590.743 190.393 585.143 191.189 584.851 187.634 590.511 186.829 584.851 187.634 584.115 183.959 589.833 183.147 584.115 183.959 583.111 180.278 588.674 179.487 583.111 180.278 580.987 176.118 586.64 175.315 580.987 176.118 577.687 172.08 583.677 171.229 577.687 172.08 574.745 169.19 580.705 168.343 574.745 169.19 571.531 166.884 577.411 166.049 571.531 166.884 567.903 165.184 573.784 164.349 567.903 165.184 564.265 164.29 570.41 163.417 564.265 164.29 559.778 163.82 564.373 163.167 559.778 163.82" style="fill: none;stroke: #85afc1;stroke-miterlimit: 10;stroke-width: 1.9755404457612946px;opacity: 0.5"/>
      </g>
      <path d="M591.19618,205.15964c1.85257,13.0373-5.99724,24.93376-17.53413,26.57312s-22.39-7.59945-24.24255-20.63676,5.99725-24.93376,17.53414-26.57312S589.34361,192.12233,591.19618,205.15964ZM578.936,211.69486c1.90418-2.05075.87879-4.5282-1.101-7.05045l2.908-2.55871-1.68945-1.81619-2.832,2.4906c-.44312-.4783-.906-.95717-1.3678-1.43527l2.851-2.50642-1.68872-1.81728-2.90724,2.55762c-.37317-.38691-.74085-.767-1.09019-1.14422l.00893-.0083-2.32953-2.5076L567.8081,197.562s1.27294,1.32081,1.22838,1.3195a1.22573,1.22573,0,0,1,.19517,1.72835l-3.31189,2.91495a2.24319,2.24319,0,0,1,.167.20256l-.17931-.19175-4.6407,4.083a.8885.8885,0,0,1-1.22148-.16842c.00252.04139-1.22765-1.32059-1.22765-1.32059l-2.4488,1.498,2.199,2.366c.408.44041.803.88007,1.195,1.30661l-2.93961,2.58831,1.68829,1.81541,2.908-2.55871c.45445.50654.89928.99233,1.3369,1.46376l-2.89684,2.54713,1.68945,1.81619,2.93521-2.58173c3.01123,2.90617,5.74818,4.385,8.78945,2.192,2.44922-1.76449,2.44379-3.73552,1.2367-5.82674A3.7169,3.7169,0,0,0,578.936,211.69486Zm-8.65235,2.9891c-2.1958,1.9361-5.5381-2.14968-6.68443-3.38079l3.89774-3.427C568.64185,209.10945,572.5765,212.66846,570.28368,214.684Zm4.712-5.68177c-1.9999,1.75947-4.7612-1.66977-5.71417-2.69494l3.5325-3.10835C573.767,204.22407,577.08167,207.16709,574.9957,209.00219Z" transform="translate(-6.07724 -18.31272)" style="fill: #fff;fill-rule: evenodd"/>
    </g>
    <path d="M622.68132,419.87726v2.04247a7.82087,7.82087,0,0,0,5.94556,7.59271L651.593,435.1848a10.16854,10.16854,0,0,0,7.44171-1.01953l3.84411-2.17276a3.41876,3.41876,0,0,0,1.73653-2.97625V409.8296a3.2589,3.2589,0,0,0-2.23856-3.09506l-2.28616-.84443.01236,6.886-1.39084,1.10185a10.18449,10.18449,0,0,1-8.00231,1.85969l-18.75507-3.54517A7.82087,7.82087,0,0,0,622.68132,419.87726Z" transform="translate(-6.07724 -18.31272)" style="fill-rule: evenodd;fill: url(#eba359c2-5d2a-4a3c-ade9-82ccf5838b92)"/>
    <path d="M632.4356,416.31738s5.77319,2.059,4.5122,7.1524-5.34493,4.28525-8.43345,3.4407.87251-5.54809.87251-5.54809Z" transform="translate(-6.07724 -18.31272)" style="fill: #041a3d;fill-rule: evenodd;opacity: 0.43"/>
    <g>
      <ellipse cx="630.68106" cy="421.29692" rx="4.16399" ry="5.57143" transform="translate(-26.55656 14.08851) rotate(-2.89593)" style="fill: #263144"/>
      <ellipse cx="629.38686" cy="421.36239" rx="4.12088" ry="5.57143" transform="translate(-26.56152 14.0232) rotate(-2.89593)" style="fill: #39455b"/>
      <ellipse cx="628.99176" cy="421.38238" rx="1.69146" ry="2.26318" transform="translate(-26.56304 14.00327) rotate(-2.89593)" style="fill: #263144"/>
      <ellipse cx="627.88877" cy="421.43817" rx="0.98901" ry="1.33714" transform="translate(-26.56726 13.94762) rotate(-2.89593)" style="fill: #39455b"/>
      <g>
        <ellipse cx="630.20365" cy="421.32107" rx="4.16399" ry="5.57143" transform="translate(-26.55839 14.06442) rotate(-2.89593)" style="fill: #263144"/>
        <ellipse cx="628.90945" cy="421.38654" rx="4.12088" ry="5.57143" transform="translate(-26.56335 13.99912) rotate(-2.89593)" style="fill: #39455b"/>
        <ellipse cx="628.51435" cy="421.40653" rx="1.69146" ry="2.26318" transform="translate(-26.56487 13.97918) rotate(-2.89593)" style="fill: #263144"/>
        <ellipse cx="629.2655" cy="421.98249" rx="2.0828" ry="2.78679" transform="translate(-124.83905 283.25616) rotate(-24.70089)" style="fill: #263144;opacity: 0.5"/>
        <ellipse cx="627.41136" cy="421.46232" rx="0.98901" ry="1.33714" transform="translate(-26.56909 13.92353) rotate(-2.89593)" style="fill: #39455b"/>
      </g>
    </g>
    <path d="M660.09066,413.011s3.56044-2.12637,2.967-3.36264-2.967-2.86813-2.967-2.86813Z" transform="translate(-6.07724 -18.31272)" style="fill: #000e23;fill-rule: evenodd;opacity: 0.7"/>
    <path d="M625.5111,413.85606a9.68381,9.68381,0,0,1,4.34055-.84507c2.47253.0989,21.13719,4.26346,23.29121,4.3022,1.82967.0329,4.9945-1.63187,6.32967-2.81868,0,0-4.4011,1.77341-6.28022,1.82287s-12.06594-1.82287-12.06594-1.82287-10.25157-2.05163-11.86087-1.978A10.3949,10.3949,0,0,0,625.5111,413.85606Z" transform="translate(-6.07724 -18.31272)" style="fill: #4a94ff;fill-rule: evenodd;opacity: 0.3"/>
    <g>
      <path d="M664.54943,413.2747a3.13778,3.13778,0,0,1-.94775,1.14374" transform="translate(-6.07724 -18.31272)" style="fill: none;stroke: #fff;stroke-miterlimit: 10;stroke-width: 0.2px"/>
      <path d="M661.27917,416.29984c-1.19684.89454-2.402,1.71381-2.99347,2.05182a13.88477,13.88477,0,0,1-6.32965,1.25275c-2.24176-.06592-20.63739-4.74725-22.022-4.87915a6.98486,6.98486,0,0,0-1.76813.07806,4.06962,4.06962,0,0,0-2.86456,2.08313,10.41025,10.41025,0,0,0-1.38379,5.68085c.22253,1.60718.24725,4.48767,7.89557,6.39972s19.25274,5.47253,22.2857,5.011a16.49231,16.49231,0,0,0,6.46155-2.07691,13.74808,13.74808,0,0,0,2.61133-2.03418" transform="translate(-6.07724 -18.31272)" style="fill: none;stroke: #fff;stroke-miterlimit: 10;stroke-width: 0.2px;stroke-dasharray: 2.9850780963897705,2.9850780963897705"/>
      <path d="M664.11035,428.71391a2.89323,2.89323,0,0,0,.50506-1.39521" transform="translate(-6.07724 -18.31272)" style="fill: none;stroke: #fff;stroke-miterlimit: 10;stroke-width: 0.2px"/>
    </g>
    <path d="M627.5522,419.36538l-.56868.86539,1.90384-.989A1.27973,1.27973,0,0,0,627.5522,419.36538Z" transform="translate(-6.07724 -18.31272)" style="fill: #92b4f7;fill-rule: evenodd"/>
  </g>
</svg>
