<svg id="b2230e08-ba1a-4de6-a894-4f587f8aa4c9" data-name="Слой 1" xmlns="http://www.w3.org/2000/svg" xmlns:xlink="http://www.w3.org/1999/xlink" viewBox="0 0 426.72354 479.37742">
  <defs>
    <radialGradient id="bad51c09-4fbf-4d72-8a0e-b43e107663ab" data-name="Безымянный градиент 48" cx="597.66297" cy="283.79064" r="236.29796" gradientTransform="matrix(0.4065, -0.91365, 0.85004, 0.3782, 113.4806, 722.51806)" gradientUnits="userSpaceOnUse">
      <stop offset="0.0254" stop-color="#c2ffff"/>
      <stop offset="0.06162" stop-color="#b8f6ff" stop-opacity="0.91995"/>
      <stop offset="0.16735" stop-color="#9ddfff" stop-opacity="0.70693"/>
      <stop offset="0.27697" stop-color="#86caff" stop-opacity="0.51796"/>
      <stop offset="0.38805" stop-color="#72b8ff" stop-opacity="0.35867"/>
      <stop offset="0.50105" stop-color="#62aaff" stop-opacity="0.22874"/>
      <stop offset="0.61657" stop-color="#559fff" stop-opacity="0.12805"/>
      <stop offset="0.73554" stop-color="#4c97ff" stop-opacity="0.05648"/>
      <stop offset="0.86023" stop-color="#4793ff" stop-opacity="0.01386"/>
      <stop offset="1" stop-color="#4591ff" stop-opacity="0"/>
    </radialGradient>
    <linearGradient id="a0c0eb9e-07b1-4f7b-a4dc-a527e91b43d7" data-name="Безымянный градиент 99" x1="512.71297" y1="340.37231" x2="676.41506" y2="340.37231" gradientUnits="userSpaceOnUse">
      <stop offset="0" stop-color="#242463"/>
      <stop offset="0.00718" stop-color="#212a6e"/>
      <stop offset="0.03145" stop-color="#183b8f"/>
      <stop offset="0.0586" stop-color="#114aab"/>
      <stop offset="0.08895" stop-color="#0a56c2"/>
      <stop offset="0.12386" stop-color="#065fd4"/>
      <stop offset="0.16616" stop-color="#0265e0"/>
      <stop offset="0.2235" stop-color="#0169e7"/>
      <stop offset="0.36245" stop-color="#006ae9"/>
      <stop offset="0.42687" stop-color="#0665dc"/>
      <stop offset="0.68995" stop-color="#1d50a9"/>
      <stop offset="0.88918" stop-color="#2c448a"/>
      <stop offset="1" stop-color="#313f7e"/>
    </linearGradient>
    <linearGradient id="a2c9e862-4cc6-4c9b-8cae-b43dc5816ec5" data-name="Безымянный градиент 112" x1="649.94156" y1="435.44146" x2="587.23387" y2="216.75377" gradientUnits="userSpaceOnUse">
      <stop offset="0" stop-color="#94e8ff" stop-opacity="0.4"/>
      <stop offset="0.38629" stop-color="#aae1ff" stop-opacity="0.46876"/>
      <stop offset="1" stop-color="#d5d4ff" stop-opacity="0.6"/>
    </linearGradient>
    <clipPath id="e8736f73-82b2-42d9-9a58-4603143de3b2" transform="translate(-444.69087 39.9394)">
      <path d="M572.39514,201.8024l-.665.92576c-5.52447,2.16-9.91681,7.32566-11.97252,13.92735l-1.16831,1.25589.18826,3.12763a29.40914,29.40914,0,0,0-.27668,4.99641c.30986,10.41515,5.97342,19.10281,13.59308,22.12133l2.51391,1.2521,4.39926-.13088.06412-.02079c10.3445-.70385,18.32978-11.45587,17.94565-24.36763-.39159-13.16241-9.33054-23.575-19.967-23.2586Z" style="fill: none"/>
    </clipPath>
    <clipPath id="ea4cf194-5576-4f27-8325-5275a9d25986" transform="translate(-444.69087 39.9394)">
      <path d="M635.76767,167.341l-.76987.89559a22.235,22.235,0,0,0-13.73473,13.38665l-1.33557,1.20323.06325,3.13293a26.92387,26.92387,0,0,0-.53073,4.97946c-.13629,10.41887,5.66376,19.34774,13.86268,22.699l2.69334,1.36164,4.81921.063.07109-.01794c11.35007-.24748,20.57744-10.63749,20.74641-23.55385.17224-13.16711-9.1327-23.96358-20.78448-24.116Z" style="fill: none"/>
    </clipPath>
    <clipPath id="a2d6bd7f-3bb4-465b-9d7e-0c99fac8d881" transform="translate(-444.69087 39.9394)">
      <path d="M590.69265,126.45655l-.62315,1.00323a22.235,22.235,0,0,0-11.51521,15.33771l-1.13487,1.39411.54378,3.086a26.92255,26.92255,0,0,0,.24054,5.00187c1.46589,10.31614,8.56876,18.248,17.1852,20.3l2.87054.93173,4.77169-.67805.0675-.02865c11.17731-1.98817,18.699-13.67237,16.88173-26.46137-1.85256-13.03727-12.70562-22.27614-24.24251-20.63677Z" style="fill: none"/>
    </clipPath>
    <linearGradient id="b8751f5f-4492-4968-8686-c7fa65c590db" data-name="Безымянный градиент 158" x1="647.4939" y1="362.43366" x2="689.42797" y2="362.43366" gradientUnits="userSpaceOnUse">
      <stop offset="0" stop-color="#456aff"/>
      <stop offset="0.02447" stop-color="#4266ef"/>
      <stop offset="0.07442" stop-color="#3c5fd4"/>
      <stop offset="0.13163" stop-color="#375abe"/>
      <stop offset="0.19827" stop-color="#3355ad"/>
      <stop offset="0.28024" stop-color="#3152a1"/>
      <stop offset="0.39435" stop-color="#2f509a"/>
      <stop offset="0.70087" stop-color="#2f5098"/>
      <stop offset="0.70151" stop-color="#2f4f97"/>
      <stop offset="0.71763" stop-color="#2f4180"/>
      <stop offset="0.73617" stop-color="#2f356f"/>
      <stop offset="0.75868" stop-color="#2f2d62"/>
      <stop offset="0.78896" stop-color="#2f285b"/>
      <stop offset="0.86026" stop-color="#2f2759"/>
      <stop offset="0.90421" stop-color="#25214f"/>
      <stop offset="0.98001" stop-color="#091336"/>
      <stop offset="1" stop-color="#000e2e"/>
    </linearGradient>
  </defs>
  <title>wallet2</title>
  <g>
    <path d="M518.78907,252.5801l-74.0982-129.31531s182.25248-290.74525,360-96.10788C954.26808,190.94718,826.30708,439.2,676.415,427.11463,562.57082,387.18194,518.78907,252.5801,518.78907,252.5801Z" transform="translate(-444.69087 39.9394)" style="fill-rule: evenodd;fill: url(#bad51c09-4fbf-4d72-8a0e-b43e107663ab)"/>
    <path d="M676.41506,286.08928V426.59813a12.59848,12.59848,0,0,1-14.76667,12.41046L524.4587,415.04039c-4.22791-.738-7.30359-1.90924-9.33185-3.57086-.85218-.69989-2.41388-2.371-2.41388-4.066V241.54466c0,3.08521,4.66589,6.17048,11.74573,7.40833l141.52612,24.72583A12.59846,12.59846,0,0,1,676.41506,286.08928Z" transform="translate(-444.69087 39.9394)" style="stroke: #fff;stroke-miterlimit: 10;stroke-width: 0.476113319396973px;fill: url(#a0c0eb9e-07b1-4f7b-a4dc-a527e91b43d7)"/>
    <line x1="68.02212" y1="281.4841" x2="68.02212" y2="281.40316" style="fill: #529df7;stroke: #fff;stroke-miterlimit: 10;stroke-width: 0.476113319396973px"/>
    <line x1="68.02212" y1="447.43816" x2="68.02212" y2="447.34294" style="fill: #529df7;stroke: #fff;stroke-miterlimit: 10;stroke-width: 0.476113319396973px"/>
    <path d="M528.25006,423.03759" transform="translate(-444.69087 39.9394)" style="fill: #529df7;stroke: #fff;stroke-miterlimit: 10;stroke-width: 0.476113319396973px"/>
    <path d="M528.25006,257.85242" transform="translate(-444.69087 39.9394)" style="fill: #529df7;stroke: #fff;stroke-miterlimit: 10;stroke-width: 0.476113319396973px"/>
    <path d="M684.628,273.06622V420.21069a7.00826,7.00826,0,0,1-8.21295,6.90394h0V286.10253a12.61417,12.61417,0,0,0-10.44325-12.426L524.45869,248.953c-7.07981-1.23788-11.74571-4.32311-11.74571-7.40832a3.33262,3.33262,0,0,1,.54278-1.78542c1.714-2.72336,7.1179-4.37549,13.30737-4.37549a35.86315,35.86315,0,0,1,6.10851.52848l141.51347,24.72806A12.61419,12.61419,0,0,1,684.628,273.06622Z" transform="translate(-444.69087 39.9394)" style="stroke: #fff;stroke-miterlimit: 10;stroke-width: 0.476113319396973px;fill: url(#a2c9e862-4cc6-4c9b-8cae-b43dc5816ec5)"/>
    <g style="opacity: 0.8">
      <g>
        <path d="M512.713,252.95666a12.42232,12.42232,0,0,0,1.23706.84348" transform="translate(-444.69087 39.9394)" style="fill: none;stroke: #fff;stroke-miterlimit: 10;stroke-width: 0.5px"/>
        <path d="M516.62683,255.19181a26.59675,26.59675,0,0,0,4.27368,1.45716c4.35559,1.08889,102.22314,17.46341,136.19836,23.137a13.76125,13.76125,0,0,1,11.4939,13.5786V420.22865a10.28259,10.28259,0,0,1-12.13135,10.11506L518.52685,405.13249s-4.5365-1.23474-5.595-8.067" transform="translate(-444.69087 39.9394)" style="fill: none;stroke: #fff;stroke-miterlimit: 10;stroke-width: 0.5px;stroke-dasharray: 3.0191824436187744,3.0191824436187744"/>
        <path d="M512.76428,395.5578q-.05035-.716-.05127-1.50223" transform="translate(-444.69087 39.9394)" style="fill: none;stroke: #fff;stroke-miterlimit: 10;stroke-width: 0.5px"/>
      </g>
    </g>
    <g>
      <path d="M572.39514,201.8024l-.665.92577c-5.52447,2.16-9.91681,7.32566-11.97252,13.92735l-1.16831,1.25589.18826,3.12762a29.40919,29.40919,0,0,0-.27668,4.99641c.30986,10.41516,5.97342,19.10282,13.59308,22.12134l2.51391,1.2521,4.39927-.13088.06411-.02079c10.3445-.70385,18.32978-11.45588,17.94565-24.36763-.39159-13.16241-9.33054-23.575-19.967-23.2586Z" transform="translate(-444.69087 39.9394)" style="fill: #b5ddf7"/>
      <g style="clip-path: url(#e8736f73-82b2-42d9-9a58-4603143de3b2)">
        <polyline points="137.837 291.029 130.341 291.252 134.527 288.918 141.996 289.09 134.527 288.918 138.774 285.995 146.232 285.773 138.774 285.995 142.127 282.694 148.692 282.499 142.127 282.694 144.7 279.776 150.381 279.607 144.7 279.776 146.248 276.529 151.767 276.365 146.248 276.529 147.205 272.938 152.8 272.771 147.398 272.932 148.256 269.254 153.419 269.1 148.256 269.254 148.343 265.689 153.562 265.534 148.343 265.689 148.039 261.955 153.311 261.798 148.039 261.955 147.491 258.184 152.62 258.031 147.491 258.184 145.975 253.809 151.186 253.654 145.975 253.809 143.378 249.422 148.901 249.258 143.378 249.422 140.994 246.217 146.489 246.053 140.994 246.217 138.303 243.561 143.725 243.4 138.303 243.561 135.178 241.459 140.6 241.298 135.178 241.459 131.964 240.157 137.629 239.988 131.964 240.157 127.937 239.18 132.173 239.054 127.937 239.18" style="fill: none;stroke: #85afc1;stroke-miterlimit: 10;stroke-width: 1.88784050835463px;opacity: 0.5"/>
      </g>
      <path d="M593.35521,224.99851c.39159,13.16244-7.91257,24.088-18.549,24.40445s-19.57542-10.09614-19.967-23.25859,7.91258-24.088,18.549-24.40445S592.96363,211.83606,593.35521,224.99851Zm-21.95975-10.064c-2.53671-.39264-3.82243,2.0264-4.63087,5.30335l-3.44967-.95285-.441,2.58921,3.3586.92872c-.11709.6803-.224,1.37819-.331,2.07459L562.521,223.942l-.44219,2.58924,3.44846.95288c-.08685.56312-.17156,1.11724-.264,1.65369l-.01092-.00266-.61052,3.5722,2.24228.61906s.297-1.92152.31987-1.88195c.17962-1.04889.73132-1.25315,1.17518-1.23505l3.92944,1.08468a2.702,2.702,0,0,1,.06064-.27015l-.04606.27418,5.50491,1.52082a.98245.98245,0,0,1,.52862,1.16647c.02929-.0277-.32108,1.882-.32108,1.882l2.4188,1.20714.57553-3.3714c.10786-.62636.22209-1.241.3282-1.84492l3.4885.96213.441-2.58771-3.44967-.95285c.132-.70758.25368-1.394.36863-2.06528l3.43514.9503.441-2.5892-3.48128-.96234c.541-4.41094.172-7.70355-3.07823-8.99776-2.6163-1.04324-4.07263.17632-4.97523,2.51539A3.67473,3.67473,0,0,0,571.39546,214.93454Zm6.84071,5.6851c2.60781.717,1.37059,6.143,1.07227,7.8991l-4.6219-1.27875C574.98727,225.48384,575.51769,219.86717,578.23617,220.61964Zm-6.72669-.59745c2.37226.65544,1.31035,5.17132,1.06107,6.63226l-4.19062-1.15741C568.62921,224.03611,569.03518,219.33848,571.50948,220.02219Z" transform="translate(-444.69087 39.9394)" style="fill: #fff;fill-rule: evenodd"/>
    </g>
    <g>
      <path d="M635.76767,167.341l-.76987.89558a22.235,22.235,0,0,0-13.73473,13.38666l-1.33557,1.20322.06325,3.13294a26.92368,26.92368,0,0,0-.53073,4.97946c-.13629,10.41887,5.66376,19.34773,13.86268,22.699l2.69334,1.36164,4.81921.063.07109-.01794c11.35007-.24749,20.57744-10.63749,20.74641-23.55385.17224-13.16711-9.1327-23.96358-20.78448-24.116Z" transform="translate(-444.69087 39.9394)" style="fill: #b5ddf7"/>
      <g style="clip-path: url(#ea4cf194-5576-4f27-8325-5275a9d25986)">
        <polyline points="199.914 256.967 191.702 256.859 196.388 254.712 204.553 255.213 196.388 254.712 201.168 251.979 209.339 252.086 201.168 251.979 204.988 248.829 212.179 248.923 204.988 248.829 207.936 246.027 214.159 246.109 207.936 246.027 209.778 242.851 215.823 242.93 209.778 242.851 210.989 239.306 217.118 239.386 211.201 239.308 212.307 235.672 217.963 235.746 212.307 235.672 212.565 232.114 218.282 232.189 212.565 232.114 212.402 228.37 218.178 228.446 212.402 228.37 211.976 224.578 217.594 224.652 211.976 224.578 210.516 220.141 216.225 220.216 210.516 220.141 207.875 215.644 213.925 215.723 207.875 215.644 205.413 212.336 211.432 212.415 205.413 212.336 202.59 209.565 208.53 209.642 202.59 209.565 199.267 207.327 205.207 207.405 199.267 207.327 195.809 205.885 202.016 205.966 195.809 205.885 191.448 204.731 196.088 204.791 191.448 204.731" style="fill: none;stroke: #85afc1;stroke-miterlimit: 10;stroke-width: 1.97554044576129px;opacity: 0.5"/>
      </g>
      <path d="M657.64155,191.4383c-.17224,13.16714-9.75643,23.71648-21.40822,23.56406s-20.95675-10.94885-20.78451-24.116,9.75643-23.71648,21.40822-23.56406S657.81379,178.27115,657.64155,191.4383ZM639.40927,180.184c-2.07587-1.63611-4.4293-.19354-6.78184,2.23723l-2.61477-2.58846-1.68174,2.02161,2.54523,2.521c-.443.53054-.88559,1.08153-1.3275,1.63121l-2.56144-2.5381-1.68283,2.021,2.61367,2.58788c-.35765.4443-.7089.88188-1.05832,1.30017l-.00846-.00788-2.3221,2.788,1.69974,1.68224s1.221-1.51575,1.22177-1.46973c.68215-.81847,1.27759-.714,1.666-.47161l2.97877,2.94785a2.63552,2.63552,0,0,1,.18855-.20346l-.17751.21441,4.17244,4.13084a.974.974,0,0,1-.10652,1.28216c.04-.00908-1.22287,1.46915-1.22287,1.46915l1.56547,2.28268,2.191-2.63165c.40789-.48845.81565-.96346,1.21084-1.43335l2.64491,2.61634,1.681-2.0203L641.628,197.9649c.46982-.54663.92-1.0801,1.35655-1.60392l2.603,2.57883,1.68174-2.02161-2.63834-2.61284c2.67675-3.55136,3.98295-6.597,1.71642-9.37981-1.82375-2.24133-3.73373-1.92673-5.7044-.35791A3.72144,3.72144,0,0,0,639.40927,180.184Zm3.29853,8.42659c1.97829,1.95389-1.82629,6.03056-2.96621,7.40207l-3.50224-3.46986C637.38146,191.17249,640.648,186.56944,642.7078,188.61063Zm-5.72523-3.95351c1.798,1.78019-1.39724,5.15661-2.34655,6.29705l-3.17644-3.14433C632.40889,186.66939,635.10725,182.8003,636.98257,184.65712Z" transform="translate(-444.69087 39.9394)" style="fill: #fff;fill-rule: evenodd"/>
    </g>
    <g>
      <path d="M590.69265,126.45656l-.62315,1.00322a22.235,22.235,0,0,0-11.51521,15.33771l-1.13487,1.39412.54378,3.086a26.92348,26.92348,0,0,0,.24054,5.00188c1.46589,10.31613,8.56876,18.248,17.1852,20.3l2.87054.93172,4.7717-.678.06749-.02865c11.17731-1.98817,18.699-13.67238,16.88174-26.46137-1.85257-13.03727-12.70563-22.27614-24.24252-20.63678Z" transform="translate(-444.69087 39.9394)" style="fill: #b5ddf7"/>
      <g style="clip-path: url(#a2d6bd7f-3bb4-465b-9d7e-0c99fac8d881)">
        <polyline points="162.367 214.135 154.236 215.29 158.537 212.448 166.681 211.689 158.537 212.448 162.84 209.014 170.93 207.864 162.84 209.014 166.131 205.314 173.251 204.302 166.131 205.314 168.614 202.093 174.775 201.218 168.614 202.093 169.945 198.671 175.931 197.821 169.945 198.671 170.597 194.982 176.666 194.12 170.807 194.952 171.341 191.189 176.942 190.393 171.341 191.189 171.05 187.634 176.71 186.829 171.05 187.634 170.314 183.959 176.032 183.147 170.314 183.959 169.31 180.278 174.873 179.487 169.31 180.278 167.186 176.118 172.839 175.315 167.186 176.118 163.886 172.08 169.876 171.229 163.886 172.08 160.944 169.19 166.904 168.343 160.944 169.19 157.73 166.884 163.61 166.049 157.73 166.884 154.102 165.184 159.983 164.349 154.102 165.184 150.464 164.29 156.609 163.417 150.464 164.29 145.977 163.82 150.572 163.167 145.977 163.82" style="fill: none;stroke: #85afc1;stroke-miterlimit: 10;stroke-width: 1.97554044576129px;opacity: 0.5"/>
      </g>
      <path d="M616.00876,146.90751c1.85257,13.03731-5.99724,24.93376-17.53413,26.57313s-22.39-7.59946-24.24255-20.63676,5.99725-24.93377,17.53414-26.57313S614.15619,133.87021,616.00876,146.90751Zm-12.26015,6.53522c1.90418-2.05075.87879-4.52819-1.101-7.05045l2.908-2.55871-1.68946-1.81619-2.832,2.4906c-.44312-.47829-.90605-.95717-1.36781-1.43527l2.851-2.50641-1.68871-1.81729-2.90725,2.55762c-.37317-.38691-.74085-.767-1.09019-1.14422l.00893-.0083-2.32952-2.5076-1.89,1.66332s1.27294,1.32082,1.22838,1.31951a1.22572,1.22572,0,0,1,.19517,1.72834l-3.31189,2.915a2.24275,2.24275,0,0,1,.167.20255l-.17932-.19175-4.6407,4.083a.8885.8885,0,0,1-1.22148-.16841c.00253.04139-1.22765-1.3206-1.22765-1.3206l-2.4488,1.498,2.199,2.366c.408.44041.803.88006,1.195,1.30661l-2.93962,2.5883,1.6883,1.81541,2.908-2.55871c.45446.50654.89928.99233,1.3369,1.46376l-2.89684,2.54713,1.68945,1.81619,2.93521-2.58173c3.01123,2.90618,5.74819,4.385,8.78946,2.192,2.44921-1.7645,2.44378-3.73553,1.23669-5.82675A3.71689,3.71689,0,0,0,603.74861,153.44273Zm-8.65235,2.98911c-2.1958,1.93609-5.5381-2.14969-6.68443-3.3808l3.89774-3.427C593.45443,150.85732,597.38908,154.41633,595.09626,156.43184Zm4.712-5.68178c-1.9999,1.75947-4.76119-1.66976-5.71417-2.69494l3.53251-3.10835C598.57959,145.972,601.89425,148.915,599.80828,150.75006Z" transform="translate(-444.69087 39.9394)" style="fill: #fff;fill-rule: evenodd"/>
    </g>
    <path d="M647.4939,361.62513v2.04247a7.82087,7.82087,0,0,0,5.94556,7.59271l22.96615,5.67236a10.16849,10.16849,0,0,0,7.44171-1.01953l3.84411-2.17276a3.41877,3.41877,0,0,0,1.73654-2.97625V351.57747a3.25893,3.25893,0,0,0-2.23856-3.09506l-2.28617-.84443.01236,6.886-1.39084,1.10186a10.18452,10.18452,0,0,1-8.00231,1.85968l-18.75507-3.54516A7.82086,7.82086,0,0,0,647.4939,361.62513Z" transform="translate(-444.69087 39.9394)" style="fill-rule: evenodd;fill: url(#b8751f5f-4492-4968-8686-c7fa65c590db)"/>
    <path d="M657.24818,358.06525s5.77319,2.059,4.5122,7.1524-5.34493,4.28525-8.43345,3.44071.87251-5.5481.87251-5.5481Z" transform="translate(-444.69087 39.9394)" style="fill: #041a3d;fill-rule: evenodd;opacity: 0.43"/>
    <g>
      <ellipse cx="655.49364" cy="363.04479" rx="4.16399" ry="5.57143" transform="translate(-462.19549 73.51982) rotate(-2.89593)" style="fill: #263144"/>
      <ellipse cx="654.19944" cy="363.11026" rx="4.12088" ry="5.57143" transform="translate(-462.20045 73.45452) rotate(-2.89593)" style="fill: #39455b"/>
      <ellipse cx="653.80434" cy="363.13025" rx="1.69146" ry="2.26318" transform="translate(-462.20196 73.43459) rotate(-2.89593)" style="fill: #263144"/>
      <ellipse cx="652.70136" cy="363.18604" rx="0.98901" ry="1.33714" transform="translate(-462.20619 73.37893) rotate(-2.89593)" style="fill: #39455b"/>
      <g>
        <ellipse cx="655.01623" cy="363.06894" rx="4.16399" ry="5.57143" transform="translate(-462.19732 73.49573) rotate(-2.89593)" style="fill: #263144"/>
        <ellipse cx="653.72203" cy="363.13441" rx="4.12088" ry="5.57143" transform="translate(-462.20228 73.43043) rotate(-2.89593)" style="fill: #39455b"/>
        <ellipse cx="653.32693" cy="363.1544" rx="1.69146" ry="2.26318" transform="translate(-462.20379 73.4105) rotate(-2.89593)" style="fill: #263144"/>
        <ellipse cx="654.07808" cy="363.73036" rx="2.0828" ry="2.78679" transform="translate(-536.8399 346.54703) rotate(-24.70089)" style="fill: #263144;opacity: 0.5"/>
        <ellipse cx="652.22394" cy="363.2102" rx="0.98901" ry="1.33714" transform="translate(-462.20802 73.35484) rotate(-2.89593)" style="fill: #39455b"/>
      </g>
    </g>
    <path d="M684.90324,354.75886s3.56044-2.12637,2.967-3.36264-2.967-2.86813-2.967-2.86813Z" transform="translate(-444.69087 39.9394)" style="fill: #000e23;fill-rule: evenodd;opacity: 0.7000000000000001"/>
    <path d="M650.32369,355.60393a9.68374,9.68374,0,0,1,4.34054-.84507c2.47253.0989,21.13719,4.26346,23.29121,4.3022,1.82967.0329,4.99451-1.63187,6.32967-2.81868,0,0-4.4011,1.77342-6.28022,1.82287s-12.06593-1.82287-12.06593-1.82287-10.25157-2.05163-11.86088-1.978A10.39468,10.39468,0,0,0,650.32369,355.60393Z" transform="translate(-444.69087 39.9394)" style="fill: #4a94ff;fill-rule: evenodd;opacity: 0.30000000000000004"/>
    <g>
      <path d="M689.36206,355.02259a3.13888,3.13888,0,0,1-.94788,1.14374" transform="translate(-444.69087 39.9394)" style="fill: none;stroke: #fff;stroke-miterlimit: 10;stroke-width: 0.2px"/>
      <path d="M686.09179,358.04774c-1.1969.89452-2.402,1.71379-2.99353,2.05177a13.8841,13.8841,0,0,1-6.32959,1.25277c-2.24182-.06595-20.63745-4.74726-22.022-4.87914a6.98339,6.98339,0,0,0-1.76819.07808,4.07005,4.07005,0,0,0-2.86462,2.08311,10.41071,10.41071,0,0,0-1.38367,5.68085c.22241,1.60715.24719,4.48764,7.89551,6.39972s19.25281,5.47253,22.28576,5.011A16.49274,16.49274,0,0,0,685.373,373.649a13.747,13.747,0,0,0,2.61133-2.03418" transform="translate(-444.69087 39.9394)" style="fill: none;stroke: #fff;stroke-miterlimit: 10;stroke-width: 0.2px;stroke-dasharray: 2.9850780963897705,2.9850780963897705"/>
      <path d="M688.923,370.46179a2.8931,2.8931,0,0,0,.505-1.39524" transform="translate(-444.69087 39.9394)" style="fill: none;stroke: #fff;stroke-miterlimit: 10;stroke-width: 0.2px"/>
    </g>
    <path d="M652.36478,361.11326l-.56868.86538,1.90385-.989A1.27977,1.27977,0,0,0,652.36478,361.11326Z" transform="translate(-444.69087 39.9394)" style="fill: #92b4f7;fill-rule: evenodd"/>
  </g>
</svg>
