<?xml version="1.0" encoding="utf-8"?>
<!-- Generator: Adobe Illustrator 23.0.5, SVG Export Plug-In . SVG Version: 6.00 Build 0)  -->
<svg version="1.1" xmlns="http://www.w3.org/2000/svg" xmlns:xlink="http://www.w3.org/1999/xlink" x="0px" y="0px"
	 viewBox="0 0 85 85" enable-background="new 0 0 85 85" xml:space="preserve">
<g id="Слой_1">
	<g>
		<path fill="none" stroke="#000000" stroke-miterlimit="10" d="M46.4,12.3c8.1,0,15.9,3.3,21.7,9.2s9,13.8,9,22.1
			c0,8.3-3.2,16.3-9,22.1c-5.7,5.9-13.5,9.2-21.7,9.2v-9.7c5.6,0,11-2.3,15-6.3c4-4.1,6.2-9.6,6.2-15.3c0-5.7-2.2-11.2-6.2-15.3
			c-4-4.1-9.4-6.3-15-6.3V12.3z"/>
	</g>
	<path fill="none" stroke="#000000" stroke-miterlimit="10" d="M66.9,38.5H41.3V7.2c-6.1,0-12,1.8-17,5.3c-5,3.4-9,8.3-11.3,14
		c-2.3,5.7-2.9,12-1.7,18.1c1.2,6.1,4.1,11.6,8.4,16c4.3,4.4,9.7,7.4,15.7,8.6C39,70,42.7,70,46.4,69.4"/>
	<path display="none" fill="#FFFFFF" d="M54.3,42.1c-0.5-0.8-1.1-1.4-1.9-1.9c-0.6-0.3-1.4-0.6-2.4-0.9c1-0.3,1.8-0.8,2.4-1.3
		c0.6-0.5,1.1-1.1,1.4-1.8c0.3-0.7,0.5-1.4,0.5-2.1c0-1-0.3-1.9-0.9-2.8c-0.6-0.8-1.5-1.5-2.6-2c-0.4-0.2-0.9-0.3-1.5-0.4v-3.9h-3.8
		v3.7H43v-3.7h-3.8v3.7h-5.8v3.1h0.9c0.6,0,1,0.1,1.2,0.2c0.2,0.1,0.4,0.3,0.4,0.4c0.1,0.2,0.1,0.6,0.1,1.3v12.5
		c0,0.7,0,1.1-0.1,1.3c-0.1,0.2-0.2,0.3-0.4,0.4c-0.2,0.1-0.6,0.2-1.2,0.2h-0.9v3.1h5.8v3.7H43v-3.7h2.2c0.1,0,0.2,0,0.3,0v3.7h3.8
		v-4c0.6-0.1,1.2-0.3,1.7-0.5c1.3-0.5,2.3-1.3,3-2.3c0.7-1,1.1-2.1,1.1-3.3C55,43.8,54.8,42.9,54.3,42.1 M44.1,32.4
		c1.4,0,2.4,0.1,3,0.3c0.6,0.2,1,0.5,1.3,0.9c0.3,0.4,0.4,0.9,0.4,1.5c0,0.6-0.2,1.1-0.5,1.5c-0.3,0.4-0.8,0.8-1.4,1
		c-0.6,0.2-1.6,0.3-2.8,0.3h-2.5l0-5.5H44.1z M48.5,46.2c-0.4,0.6-1,0.9-1.6,1.1c-0.6,0.2-1.4,0.3-2.4,0.3H43c-0.5,0-0.9,0-1-0.1
		c-0.1-0.1-0.2-0.2-0.3-0.3c0-0.1-0.1-0.5-0.1-1.2v-4.8h2.9c1.3,0,2.2,0.1,2.8,0.4c0.6,0.2,1.1,0.6,1.4,1c0.3,0.5,0.5,1,0.5,1.7
		C49.2,45,49,45.7,48.5,46.2"/>
	<rect x="57.5" y="-32.1" fill="none" width="14.7" height="20.2"/>
</g>
<g id="Слой_2" display="none">
	<polygon display="inline" fill="none" stroke="#FFFFFF" stroke-miterlimit="10" points="42.5,20.8 47.4,35.8 63.1,35.8 50.4,45.1 
		55.3,60.1 42.5,50.8 29.7,60.1 34.6,45.1 21.9,35.8 37.6,35.8 	"/>
</g>
</svg>
