<svg xmlns="http://www.w3.org/2000/svg" width="609" height="610" fill="none" style=""><rect id="backgroundrect" width="100%" height="100%" x="0" y="0" fill="none" stroke="none"/>




<defs>
<linearGradient id="paint0_linear" x1="0.9091350278418451" y1="0.8308703075054127" x2="0.059350192527009814" y2="-0.11293348313973323">
<stop stop-color="#0000FF"/>
<stop offset="1" stop-color="#0000FF" stop-opacity="0"/>
</linearGradient>
</defs>
<g class="currentLayer" style=""><title>Layer 1</title><path d="M608.0000038146973,305.81086879968643 C608.0000038146973,473.3208687996864 472.01000381469726,609.3108687996864 304.50000381469727,609.3108687996864 C136.99000381469727,609.3108687996864 1.0000038146972656,473.3208687996864 1.0000038146972656,305.81086879968643 C1.0000038146972656,138.30086879968644 136.99000381469727,2.310868799686432 304.50000381469727,2.310868799686432 C472.01000381469726,2.310868799686432 608.0000038146973,138.30086879968644 608.0000038146973,305.81086879968643 z" stroke="#0B0B68" stroke-width="2" id="svg_1" class=""/><path d="M302.24963830664063,2.000000013580322 C369.38026430664064,1.9999900135803224 434.5936643066406,23.81141001358032 487.59066430664063,63.98321001358032 " stroke="url(#paint0_linear)" stroke-width="4" id="svg_2" class=""/><path d="M498.7496643066406,66.50001001358032 C498.7496643066406,70.36601001358032 495.6156643066406,73.50001001358032 491.7496643066406,73.50001001358032 C487.88366430664064,73.50001001358032 484.7496643066406,70.36601001358032 484.7496643066406,66.50001001358032 C484.7496643066406,62.63401001358032 487.88366430664064,59.50001001358032 491.7496643066406,59.50001001358032 C495.6156643066406,59.50001001358032 498.7496643066406,62.63401001358032 498.7496643066406,66.50001001358032 z" fill="#0066FF" id="svg_3" class=""/></g></svg>