<svg xmlns="http://www.w3.org/2000/svg" data-name="Слой 1" viewBox="0 0 1024 520">
  <path fill="none" stroke="#009eff" stroke-miterlimit="10" d="M37 49l140 16-17 55-67 42 64 3 3-45L37 49 3 118l90 44L37 49l56 113 23 70 41-67 83 13v-22l-80-36 17-55 63 91 37 11 71-54 1-70 72 36-73 34 54 40-125 14-37 11-124 54 74 78 72 60 15 60 32 7-47-67-105 87-72 60-46-114-33 88 79 26-2-166-44 52 118 54-74-106 107-41 87 120 89 68-57-61 109 3v42l-52 16 211-20-159 4v-42l159 38 61-69 55 76-116-7 164-35-48 42-55-76 103 34 129 58-177-16 199-73-22 89 47-41 50 18-27-48-23 30-25-48 28-6 20 24-20-57v33l-28 6 28-39 100 21-53 84-27-48 42-120 38 84-100-21 62-63-15-90-150 33 103 120 26-160 21 7-53-76 32 69 53-127-85 58-94-79 179 21-201 21 22-42-145 18-15-24 160 6-22 42-123-24-12 37L493 3l167 56-239 20-19 74 110 107"/>
  <circle cx="240.4" cy="155.9" r="3.3" fill="#fff"/>
  <circle cx="421.3" cy="79.4" r="3.3" fill="#fff"/>
  <circle cx="348" cy="113.1" r="3.3" fill="#fff"/>
  <circle cx="176.6" cy="65.1" r="3.3" fill="#fff"/>
  <circle cx="156.5" cy="165.4" r="3.3" fill="#fff"/>
  <circle cx="159.8" cy="119.7" r="3.3" fill="#fff"/>
  <circle cx="240.4" cy="178.3" r="3.3" fill="#fff"/>
  <circle cx="116" cy="232.5" r="3.3" fill="#fff"/>
  <circle cx="262.2" cy="370.2" r="3.3" fill="#fff"/>
  <circle cx="156.5" cy="456.7" r="3.3" fill="#fff"/>
  <circle cx="82.8" cy="351" r="3.3" fill="#fff"/>
  <circle cx="418" cy="481.6" r="3.3" fill="#fff"/>
  <circle cx="418" cy="440" r="3.3" fill="#fff"/>
  <circle cx="366.5" cy="498.2" r="3.3" fill="#fff"/>
  <circle cx="309.5" cy="436.7" r="3.3" fill="#fff"/>
  <circle cx="869.7" cy="501.5" r="3.3" fill="#fff"/>
  <circle cx="939.7" cy="430.2" r="3.3" fill="#fff"/>
  <circle cx="967" cy="478.3" r="3.3" fill="#fff"/>
  <circle cx="982.4" cy="310.2" r="3.3" fill="#fff"/>
  <circle cx="913.6" cy="144" r="3.3" fill="#fff"/>
  <circle cx="999" cy="86" r="3.3" fill="#fff"/>
  <circle cx="946.3" cy="213.1" r="3.3" fill="#fff"/>
  <circle cx="967" cy="219.7" r="3.3" fill="#fff"/>
  <circle cx="892.5" cy="412.5" r="3.3" fill="#fff"/>
  <circle cx="916.9" cy="460" r="3.3" fill="#fff"/>
  <circle cx="920.2" cy="373.5" r="3.3" fill="#fff"/>
  <circle cx="920.2" cy="405.9" r="3.3" fill="#fff"/>
  <circle cx="820.1" cy="65.1" r="3.3" fill="#fff"/>
  <circle cx="797.5" cy="106.5" r="3.3" fill="#fff"/>
  <circle cx="741.5" cy="443.3" r="3.3" fill="#fff"/>
  <circle cx="816.8" cy="252.7" r="3.3" fill="#fff"/>
  <circle cx="659.6" cy="58.5" r="3.3" fill="#fff"/>
  <circle cx="662.9" cy="119.7" r="3.3" fill="#fff"/>
  <circle cx="675" cy="82.7" r="3.3" fill="#fff"/>
  <circle cx="402.1" cy="152.6" r="3.3" fill="#fff"/>
  <circle cx="576.5" cy="478.3" r="3.3" fill="#fff"/>
  <circle cx="638.2" cy="409.2" r="3.3" fill="#fff"/>
  <circle cx="692.5" cy="484.9" r="3.3" fill="#fff"/>
  <circle cx="277.5" cy="430.2" r="3.3" fill="#fff"/>
  <circle cx="189.6" cy="310.2" r="3.3" fill="#fff"/>
  <circle cx="277.5" cy="166.5" r="3.3" fill="#fff"/>
  <circle cx="348.7" cy="43.1" r="3.3" fill="#fff"/>
  <circle cx="36.5" cy="49.1" r="3.3" fill="#fff"/>
  <circle cx="93.5" cy="161.8" r="3.3" fill="#fff"/>
  <circle cx="5.7" cy="490.5" r="3.3" fill="#fff"/>
  <circle cx="85.2" cy="516.7" r="3.3" fill="#fff"/>
  <circle cx="38.9" cy="402.7" r="3.3" fill="#fff"/>
  <circle cx="3.3" cy="118.4" r="3.3" fill="#fff"/>
  <circle cx="1020.4" cy="393.8" r="3.3" fill="#fff"/>
  <circle cx="493.5" cy="3.3" r="3.3" fill="#fff"/>
  <circle cx="511.8" cy="260" r="5.6" fill="red"/>
</svg>
