<svg xmlns="http://www.w3.org/2000/svg" viewBox="0 0 512 512"><path d="M304 96H112a16 16 0 000 32h192a16 16 0 000-32zM240 160H112a16 16 0 000 32h128a16 16 0 000-32z"/><path d="M352 0H64C29 0 0 29 0 64v320a16 16 0 0026 12l92-76h234c35 0 64-29 64-64V64c0-35-29-64-64-64zm32 256c0 18-14 32-32 32H112c-4 0-7 1-10 4l-70 58V64c0-18 14-32 32-32h288c18 0 32 14 32 32v192z"/><path d="M448 128a16 16 0 000 32c18 0 32 14 32 32v271l-54-44c-3-2-6-3-10-3H192c-18 0-32-14-32-32v-16a16 16 0 00-32 0v16c0 35 29 64 64 64h218l76 61a16 16 0 0017 1c5-2 9-8 9-14V192c0-35-29-64-64-64z"/></svg>