<svg width="336" height="194" viewBox="0 0 336 194" fill="none" xmlns="http://www.w3.org/2000/svg">
<g filter="url(#filter0_ddd_2_4)">
<path d="M92.1504 122.421C91.8601 122.402 91.5886 122.27 91.3949 122.053C91.2013 121.836 91.1009 121.552 91.1156 121.261V108.879C91.1626 107.168 90.6349 105.49 89.6168 104.115C89.0637 103.365 88.9566 103.276 87.9753 103.276H87.3152C87.1854 103.272 87.0579 103.241 86.9403 103.186C86.8227 103.131 86.7174 103.053 86.6308 102.956C86.5441 102.86 86.4779 102.746 86.4361 102.624C86.3942 102.501 86.3776 102.371 86.3873 102.241C86.3801 102.112 86.3984 101.983 86.4412 101.861C86.4839 101.74 86.5503 101.627 86.6365 101.531C86.7227 101.435 86.827 101.357 86.9434 101.301C87.0599 101.245 87.1862 101.213 87.3152 101.206H96.0578C96.1868 101.213 96.3131 101.245 96.4295 101.301C96.546 101.357 96.6503 101.435 96.7365 101.531C96.8227 101.627 96.8891 101.74 96.9318 101.861C96.9746 101.983 96.9928 102.112 96.9856 102.241C96.9953 102.371 96.9788 102.501 96.9369 102.624C96.8951 102.746 96.8289 102.86 96.7422 102.956C96.6556 103.053 96.5503 103.131 96.4327 103.186C96.3151 103.241 96.1876 103.272 96.0578 103.276H92.311C91.5437 103.276 91.5259 103.276 91.5259 103.276C91.5259 103.276 91.9363 103.901 92.0969 104.168C92.8821 105.552 93.2594 107.129 93.1852 108.718V121.207C93.1999 121.356 93.1845 121.505 93.14 121.647C93.0954 121.789 93.0227 121.921 92.926 122.034C92.8294 122.148 92.7109 122.24 92.5776 122.307C92.4443 122.373 92.299 122.412 92.1504 122.421Z" fill="white"/>
<path d="M99.7869 122.492C99.6376 122.485 99.4912 122.449 99.3562 122.385C99.2212 122.321 99.1003 122.23 99.0007 122.119C98.901 122.008 98.8245 121.878 98.7757 121.737C98.7268 121.595 98.7067 121.446 98.7163 121.297V102.634C98.6967 102.483 98.7095 102.329 98.7539 102.184C98.7983 102.038 98.8732 101.904 98.9737 101.789C99.0741 101.675 99.1979 101.583 99.3366 101.521C99.4753 101.458 99.6257 101.425 99.7779 101.425C99.9302 101.425 100.081 101.458 100.219 101.521C100.358 101.583 100.482 101.675 100.582 101.789C100.683 101.904 100.758 102.038 100.802 102.184C100.846 102.329 100.859 102.483 100.84 102.634V109.11C100.819 109.223 100.819 109.337 100.84 109.449C100.84 109.449 101.179 109.146 101.393 108.986C102.108 108.394 103.017 108.089 103.944 108.129C104.748 108.104 105.546 108.282 106.264 108.647C107.001 109.079 107.616 109.693 108.048 110.431C108.705 111.504 109.045 112.741 109.029 113.999C108.988 115.156 108.727 116.294 108.262 117.354C107.909 118.229 107.479 119.07 106.977 119.869C106.84 120.064 106.737 120.282 106.674 120.512C106.674 120.512 106.977 120.601 107.334 120.601H108.601C108.731 120.605 108.858 120.636 108.976 120.691C109.093 120.746 109.199 120.824 109.285 120.921C109.372 121.017 109.438 121.13 109.48 121.253C109.522 121.376 109.538 121.506 109.529 121.636C109.536 121.765 109.518 121.894 109.475 122.015C109.432 122.137 109.366 122.25 109.28 122.346C109.193 122.442 109.089 122.52 108.973 122.576C108.856 122.632 108.73 122.664 108.601 122.671H105.032C104.767 122.714 104.495 122.714 104.23 122.671C104.05 122.609 103.895 122.493 103.783 122.34C103.671 122.187 103.609 122.004 103.605 121.814C103.605 121.439 103.855 120.958 104.515 119.887C105.342 118.642 106.013 117.299 106.513 115.89C106.66 115.307 106.732 114.708 106.728 114.106C106.771 113.169 106.444 112.253 105.818 111.555C105.577 111.231 105.266 110.968 104.906 110.785C104.547 110.602 104.151 110.506 103.748 110.502C103.357 110.495 102.968 110.57 102.608 110.724C102.248 110.878 101.925 111.106 101.66 111.394C101.287 111.795 101.006 112.273 100.837 112.794C100.667 113.314 100.613 113.866 100.679 114.41V121.546C100.649 121.778 100.547 121.994 100.386 122.164C100.226 122.334 100.016 122.449 99.7869 122.492V122.492Z" fill="white"/>
<path d="M121.34 121.422C121.348 121.549 121.329 121.676 121.286 121.796C121.243 121.916 121.176 122.025 121.089 122.119C121.003 122.212 120.898 122.287 120.782 122.339C120.665 122.391 120.54 122.419 120.413 122.421H117.433C116.522 122.404 115.626 122.19 114.807 121.792C113.987 121.395 113.264 120.824 112.687 120.119C111.577 118.75 110.994 117.028 111.045 115.266C111.039 113.444 111.671 111.677 112.83 110.27C113.385 109.56 114.094 108.983 114.904 108.585C115.713 108.186 116.602 107.976 117.504 107.969C118.305 107.962 119.095 108.152 119.806 108.522C120.224 108.7 120.587 108.985 120.859 109.349C121.132 109.712 121.304 110.141 121.358 110.591C121.358 111.305 120.859 112.09 119.574 114.16C118.289 116.23 117.272 117.728 116.648 118.603C116.359 118.991 116.102 119.403 115.881 119.834C115.881 120.012 115.988 120.101 116.291 120.191C117.22 120.443 118.185 120.539 119.146 120.476H120.502C120.732 120.506 120.944 120.618 121.098 120.792C121.252 120.966 121.338 121.189 121.34 121.422V121.422ZM114.025 118.299C114.203 118.299 114.596 117.764 114.792 117.443C115.488 116.283 116.041 115.373 116.862 114.178C117.687 113.048 118.421 111.855 119.057 110.609C119.057 110.163 118.307 110.038 117.576 110.038C116.935 110.071 116.31 110.249 115.747 110.558C115.185 110.867 114.7 111.299 114.328 111.823C113.537 112.843 113.109 114.099 113.115 115.391C113.109 115.853 113.157 116.314 113.258 116.765C113.365 117.139 113.74 118.299 114.025 118.299V118.299Z" fill="white"/>
<path d="M133.455 122.403C133.169 122.385 132.903 122.254 132.712 122.041C132.522 121.827 132.423 121.547 132.438 121.261V104.043C132.438 103.49 132.438 103.347 132.438 103.223C132.438 103.098 132.153 103.062 131.724 103.062H131.118C130.883 103.03 130.667 102.914 130.511 102.735C130.355 102.556 130.268 102.327 130.268 102.09C130.268 101.852 130.355 101.623 130.511 101.444C130.667 101.265 130.883 101.149 131.118 101.117H139.486C140.61 101.117 141.02 101.117 141.573 101.688C141.894 102.098 142.047 102.615 142.002 103.133C141.956 104.078 141.576 104.976 140.931 105.667L139.7 107.451C139.595 107.59 139.516 107.747 139.468 107.915C139.468 108.093 139.593 108.076 139.985 108.218C140.575 108.423 141.119 108.738 141.591 109.146C142.239 109.736 142.732 110.475 143.028 111.299C143.323 112.123 143.412 113.008 143.286 113.874V121.314C143.305 121.458 143.294 121.604 143.252 121.743C143.21 121.882 143.139 122.01 143.043 122.119C142.948 122.228 142.83 122.315 142.698 122.375C142.566 122.435 142.423 122.466 142.278 122.466C142.133 122.466 141.99 122.435 141.858 122.375C141.726 122.315 141.608 122.228 141.513 122.119C141.417 122.01 141.346 121.882 141.305 121.743C141.263 121.604 141.251 121.458 141.27 121.314V114.303C141.27 112.518 141.27 112.001 140.467 111.055C140.181 110.736 139.832 110.48 139.442 110.302C139.052 110.124 138.63 110.028 138.201 110.02C137.912 109.992 137.63 109.92 137.363 109.806C137.218 109.732 137.097 109.619 137.013 109.481C136.928 109.342 136.882 109.184 136.881 109.021C136.881 108.557 136.881 108.308 137.737 107.237L139.807 104.311C140.039 103.972 140.146 103.847 140.146 103.633C140.146 103.419 139.932 103.205 139.182 103.205H135.186C134.972 103.205 134.722 103.205 134.615 103.33C134.508 103.455 134.49 103.633 134.49 104.186V121.404C134.469 121.668 134.352 121.915 134.161 122.099C133.971 122.283 133.72 122.391 133.455 122.403Z" fill="white"/>
<path d="M155.294 121.422C155.301 121.549 155.283 121.676 155.239 121.796C155.196 121.916 155.129 122.025 155.043 122.119C154.956 122.212 154.852 122.287 154.735 122.339C154.619 122.391 154.493 122.419 154.366 122.421H151.387C150.473 122.406 149.574 122.192 148.751 121.794C147.929 121.397 147.202 120.825 146.623 120.119C145.513 118.75 144.93 117.028 144.981 115.266C144.983 113.445 145.613 111.68 146.765 110.27C147.324 109.563 148.033 108.988 148.842 108.59C149.651 108.192 150.539 107.98 151.44 107.969C152.241 107.96 153.032 108.15 153.742 108.522C154.164 108.696 154.532 108.98 154.808 109.343C155.084 109.707 155.258 110.138 155.312 110.591C155.312 111.305 154.812 112.09 153.528 114.16C152.243 116.23 151.226 117.728 150.601 118.603C150.312 118.991 150.056 119.403 149.834 119.834C149.834 120.012 149.941 120.101 150.245 120.191C151.168 120.443 152.127 120.54 153.081 120.476H154.455C154.686 120.506 154.897 120.618 155.051 120.792C155.205 120.966 155.292 121.189 155.294 121.422V121.422ZM147.961 118.299C148.157 118.299 148.55 117.764 148.728 117.443C149.442 116.283 149.995 115.373 150.816 114.178C151.629 113.044 152.357 111.851 152.992 110.609C152.992 110.163 152.261 110.038 151.529 110.038C150.886 110.07 150.257 110.246 149.692 110.556C149.126 110.865 148.638 111.298 148.264 111.823C147.478 112.845 147.057 114.101 147.069 115.391C147.066 115.852 147.108 116.312 147.194 116.765C147.318 117.139 147.693 118.299 147.961 118.299Z" fill="white"/>
<path d="M159.987 129.397C159.84 129.39 159.696 129.354 159.563 129.291C159.43 129.228 159.311 129.139 159.213 129.029C159.115 128.92 159.04 128.792 158.992 128.653C158.944 128.513 158.924 128.366 158.934 128.22V110.841C158.951 110.646 158.901 110.451 158.791 110.288C158.702 110.288 158.577 110.11 158.167 110.11H157.97C157.704 110.087 157.456 109.964 157.277 109.765C157.098 109.566 157.001 109.307 157.007 109.039C156.997 108.771 157.092 108.509 157.272 108.309C157.452 108.109 157.702 107.987 157.97 107.969H158.292C158.577 107.969 158.702 107.969 158.827 107.844C158.952 107.719 158.934 107.701 158.934 107.38V106.862C158.858 105.595 159.21 104.338 159.933 103.294C160.548 102.272 161.531 101.525 162.681 101.206C163.198 101.206 163.555 101.759 163.555 102.313C163.555 102.866 163.252 103.098 162.681 103.562C162.15 103.97 161.691 104.464 161.325 105.025C161.062 105.53 160.944 106.098 160.986 106.666C160.986 107.523 160.986 107.737 161.129 107.861C161.271 107.986 161.378 107.986 161.949 107.986H162.217C162.485 108.005 162.736 108.127 162.915 108.327C163.095 108.526 163.19 108.788 163.18 109.057C163.186 109.324 163.089 109.584 162.91 109.783C162.731 109.982 162.483 110.105 162.217 110.127H161.807C161.271 110.127 161.236 110.127 161.093 110.306C160.95 110.484 160.986 110.52 160.986 110.877V128.237C161.001 128.522 160.905 128.802 160.719 129.018C160.533 129.234 160.271 129.37 159.987 129.397V129.397Z" fill="white"/>
<path d="M175.527 121.422C175.534 121.549 175.516 121.676 175.473 121.796C175.43 121.916 175.363 122.025 175.276 122.119C175.189 122.212 175.085 122.287 174.969 122.339C174.852 122.391 174.727 122.419 174.599 122.421H171.602C170.688 122.406 169.789 122.192 168.967 121.794C168.144 121.397 167.418 120.825 166.838 120.119C165.728 118.75 165.146 117.028 165.196 115.266C165.191 113.444 165.822 111.677 166.981 110.27C167.534 109.571 168.235 109.003 169.034 108.608C169.833 108.213 170.71 108.001 171.602 107.986C172.403 107.978 173.194 108.168 173.904 108.54C174.321 108.718 174.684 109.003 174.957 109.366C175.229 109.73 175.401 110.158 175.456 110.609C175.456 111.323 174.974 112.108 173.672 114.178C172.369 116.247 171.37 117.746 170.745 118.62C170.456 119.009 170.2 119.421 169.978 119.852C169.978 120.03 170.085 120.119 170.389 120.208C171.311 120.462 172.271 120.559 173.226 120.494H174.599C174.843 120.503 175.073 120.603 175.246 120.775C175.418 120.948 175.518 121.178 175.527 121.422ZM168.194 118.299C168.39 118.299 168.765 117.764 168.961 117.443C169.675 116.283 170.21 115.373 171.031 114.178C171.856 113.048 172.59 111.855 173.226 110.609C173.226 110.163 172.494 110.038 171.745 110.038C171.104 110.071 170.479 110.249 169.916 110.558C169.354 110.867 168.869 111.299 168.497 111.823C167.706 112.843 167.278 114.099 167.284 115.391C167.287 115.853 167.335 116.313 167.427 116.765C167.534 117.139 167.926 118.299 168.194 118.299Z" fill="white"/>
<path d="M178.453 122.492C178.304 122.485 178.158 122.449 178.023 122.385C177.888 122.321 177.767 122.23 177.667 122.119C177.567 122.008 177.491 121.878 177.442 121.737C177.393 121.595 177.373 121.446 177.383 121.297V110.181C177.344 109.694 177.344 109.205 177.383 108.718C177.436 108.484 177.565 108.274 177.748 108.12C177.932 107.965 178.16 107.875 178.4 107.861C178.663 107.879 178.91 107.996 179.092 108.187C179.274 108.379 179.377 108.632 179.381 108.896C179.381 109.021 179.381 109.146 179.381 109.146C179.381 109.146 179.631 109.021 179.863 108.879C180.56 108.33 181.42 108.028 182.307 108.022C182.515 108.027 182.716 108.099 182.879 108.227C183.043 108.356 183.161 108.533 183.215 108.734C183.269 108.935 183.257 109.148 183.18 109.341C183.103 109.534 182.966 109.698 182.789 109.806C182.521 109.917 182.247 110.012 181.968 110.092C181.379 110.2 180.834 110.479 180.403 110.895C179.971 111.311 179.672 111.844 179.542 112.429C179.438 113.078 179.391 113.735 179.399 114.392V121.261C179.434 121.549 179.355 121.84 179.178 122.07C179.001 122.301 178.741 122.452 178.453 122.492Z" fill="white"/>
<path d="M186.232 122.492C186.083 122.485 185.937 122.449 185.802 122.385C185.667 122.321 185.546 122.23 185.446 122.119C185.346 122.008 185.27 121.878 185.221 121.737C185.172 121.595 185.152 121.446 185.162 121.297V110.181C185.123 109.694 185.123 109.205 185.162 108.718C185.218 108.486 185.347 108.277 185.53 108.123C185.713 107.969 185.94 107.878 186.179 107.861C186.444 107.875 186.694 107.99 186.876 108.183C187.059 108.375 187.16 108.631 187.16 108.896C187.16 109.021 187.16 109.146 187.16 109.146C187.16 109.146 187.41 109.021 187.66 108.879C188.35 108.33 189.204 108.028 190.086 108.022C190.296 108.023 190.499 108.092 190.665 108.219C190.832 108.346 190.953 108.524 191.009 108.726C191.065 108.927 191.055 109.142 190.978 109.337C190.902 109.532 190.764 109.697 190.586 109.806C190.318 109.917 190.044 110.012 189.765 110.092C189.173 110.199 188.626 110.478 188.192 110.893C187.757 111.309 187.454 111.843 187.321 112.429C187.227 113.079 187.185 113.735 187.196 114.392V121.261C187.226 121.551 187.143 121.842 186.963 122.071C186.783 122.301 186.521 122.452 186.232 122.492V122.492Z" fill="white"/>
<path d="M195.903 122.403C195.396 122.425 194.888 122.359 194.404 122.207C193.903 122.021 193.476 121.677 193.189 121.225C192.902 120.774 192.771 120.241 192.816 119.709C192.842 119.088 193 118.48 193.28 117.925C193.872 116.684 194.558 115.492 195.332 114.356L196.955 112.037C197.687 111.037 197.687 110.913 197.687 110.788C197.687 110.663 197.277 110.449 196.955 110.306C196.659 110.174 196.356 110.061 196.046 109.967C195.528 109.806 195.064 109.503 195.064 108.932C195.069 108.657 195.179 108.395 195.371 108.199C195.564 108.003 195.824 107.888 196.099 107.879C196.407 107.904 196.711 107.958 197.009 108.04C197.943 108.263 198.811 108.703 199.543 109.325C200.775 110.257 201.691 111.547 202.165 113.018C202.602 114.541 202.754 116.132 202.612 117.71V120.012C202.612 120.405 203.04 120.405 203.272 120.405H203.504C203.766 120.418 204.011 120.535 204.188 120.728C204.365 120.922 204.459 121.177 204.449 121.439C204.456 121.569 204.437 121.698 204.393 121.82C204.349 121.942 204.281 122.054 204.193 122.149C204.105 122.244 203.998 122.32 203.88 122.373C203.761 122.426 203.633 122.454 203.504 122.456L195.903 122.403ZM200.149 120.315C200.47 120.315 200.47 120.19 200.47 117.782C200.646 116.215 200.463 114.629 199.935 113.143C199.757 112.715 199.471 112.286 199.346 112.286C198.088 113.834 196.966 115.488 195.992 117.229C195.537 117.894 195.227 118.648 195.082 119.441C195.072 119.658 195.146 119.87 195.289 120.033C195.433 120.196 195.633 120.297 195.849 120.315C196.046 120.315 197.08 120.315 198.062 120.315C199.043 120.315 200.007 120.351 200.149 120.315V120.315Z" fill="white"/>
<path d="M208.482 122.456C208.125 122.456 207.768 122.153 207.304 121.582C206.719 120.965 206.328 120.189 206.18 119.352C206.18 119.156 206.18 118.817 206.18 117.853V102.634C206.18 102.493 206.208 102.354 206.261 102.224C206.315 102.094 206.394 101.976 206.494 101.877C206.593 101.777 206.711 101.699 206.841 101.645C206.971 101.591 207.11 101.563 207.251 101.563C207.391 101.563 207.53 101.591 207.66 101.645C207.79 101.699 207.908 101.777 208.008 101.877C208.107 101.976 208.186 102.094 208.24 102.224C208.293 102.354 208.321 102.493 208.321 102.634L208.232 117.657C208.199 118.186 208.199 118.716 208.232 119.245C208.428 120.315 209.231 120.744 209.231 121.582C209.23 121.793 209.153 121.996 209.016 122.156C208.879 122.316 208.69 122.423 208.482 122.456V122.456Z" fill="white"/>
<path d="M221.168 122.403C220.882 122.385 220.615 122.254 220.425 122.041C220.234 121.827 220.136 121.547 220.151 121.261V104.043C220.151 103.49 220.151 103.347 220.151 103.223C220.151 103.098 219.865 103.062 219.437 103.062H218.83C218.595 103.03 218.379 102.914 218.223 102.735C218.067 102.556 217.981 102.327 217.981 102.09C217.981 101.852 218.067 101.623 218.223 101.444C218.379 101.265 218.595 101.149 218.83 101.117H227.252C228.376 101.117 228.786 101.117 229.321 101.688C229.655 102.092 229.816 102.612 229.768 103.133C229.722 104.078 229.342 104.976 228.697 105.667L227.466 107.451C227.36 107.59 227.282 107.747 227.234 107.915C227.234 108.093 227.359 108.076 227.751 108.218C228.341 108.423 228.885 108.738 229.357 109.146C230.005 109.736 230.498 110.475 230.794 111.299C231.089 112.123 231.178 113.008 231.052 113.874V121.314C231.071 121.458 231.06 121.604 231.018 121.743C230.976 121.882 230.905 122.01 230.809 122.119C230.714 122.228 230.596 122.315 230.464 122.375C230.332 122.435 230.189 122.466 230.044 122.466C229.899 122.466 229.756 122.435 229.624 122.375C229.492 122.315 229.374 122.228 229.279 122.119C229.183 122.01 229.112 121.882 229.07 121.743C229.029 121.604 229.017 121.458 229.036 121.314V114.303C229.036 112.518 229.036 112.001 228.233 111.055C227.947 110.736 227.598 110.48 227.208 110.302C226.818 110.124 226.396 110.028 225.967 110.02C225.676 109.981 225.394 109.896 225.129 109.771C224.984 109.696 224.863 109.583 224.779 109.445C224.694 109.307 224.648 109.148 224.647 108.986C224.647 108.522 224.647 108.272 225.503 107.201L227.573 104.275C227.805 103.936 227.912 103.811 227.912 103.597C227.912 103.383 227.698 103.169 226.948 103.169H222.952C222.738 103.169 222.488 103.169 222.381 103.294C222.274 103.419 222.256 103.597 222.256 104.15V121.368C222.242 121.647 222.121 121.911 221.919 122.103C221.716 122.296 221.447 122.403 221.168 122.403Z" fill="white"/>
<path d="M235.834 122.403C235.321 122.426 234.808 122.36 234.317 122.207C233.816 122.021 233.389 121.677 233.102 121.225C232.815 120.774 232.685 120.241 232.729 119.709C232.764 119.089 232.921 118.482 233.193 117.925C233.792 116.688 234.478 115.496 235.245 114.356L236.869 112.037C237.6 111.037 237.6 110.913 237.6 110.788C237.6 110.663 237.19 110.449 236.869 110.306C236.574 110.171 236.27 110.058 235.959 109.967C235.441 109.806 234.977 109.503 234.977 108.932C234.982 108.657 235.092 108.395 235.284 108.199C235.477 108.003 235.738 107.888 236.012 107.879C236.32 107.904 236.625 107.958 236.922 108.04C237.856 108.263 238.724 108.703 239.456 109.325C240.689 110.257 241.604 111.547 242.079 113.018C242.516 114.541 242.667 116.132 242.525 117.71V120.012C242.525 120.405 242.953 120.405 243.185 120.405H243.435C243.564 120.411 243.69 120.444 243.806 120.499C243.923 120.555 244.027 120.633 244.113 120.729C244.2 120.826 244.266 120.938 244.309 121.06C244.351 121.181 244.37 121.31 244.363 121.439C244.37 121.567 244.351 121.696 244.308 121.816C244.265 121.937 244.199 122.048 244.112 122.143C244.026 122.238 243.922 122.314 243.805 122.368C243.689 122.422 243.563 122.452 243.435 122.456L235.834 122.403ZM240.063 120.315C240.384 120.315 240.384 120.19 240.384 117.782C240.559 116.215 240.376 114.629 239.848 113.143C239.688 112.715 239.385 112.286 239.277 112.286C238.007 113.829 236.878 115.483 235.905 117.229C235.454 117.894 235.149 118.648 235.013 119.441C234.998 119.656 235.069 119.868 235.209 120.032C235.349 120.195 235.548 120.297 235.763 120.315C235.959 120.315 236.994 120.315 237.993 120.315C238.992 120.315 239.884 120.351 240.027 120.315H240.063Z" fill="white"/>
<path d="M253.676 122.421C252.284 122.523 250.888 122.284 249.608 121.725C248.554 121.188 247.665 120.374 247.039 119.37C246.218 118.088 245.796 116.592 245.826 115.07C245.802 113.547 246.244 112.053 247.092 110.788C247.594 109.948 248.297 109.247 249.139 108.749C249.98 108.25 250.933 107.97 251.91 107.933C252.713 107.94 253.505 108.122 254.229 108.468C255.121 108.932 255.889 109.574 255.889 110.395C255.889 110.877 255.621 111.341 254.818 112.501C254.015 113.66 253.819 113.821 253.409 113.821C253.289 113.821 253.171 113.797 253.061 113.75C252.951 113.702 252.853 113.633 252.771 113.546C252.689 113.459 252.625 113.356 252.585 113.244C252.544 113.132 252.527 113.012 252.534 112.893C252.534 112.59 252.534 112.358 253.159 111.519C253.48 111.002 253.623 110.788 253.623 110.609C253.623 110.431 252.945 109.967 252.302 109.967C251.745 109.992 251.198 110.13 250.695 110.373C250.192 110.615 249.744 110.956 249.376 111.376C248.449 112.402 247.945 113.741 247.967 115.123C247.903 116.032 248.091 116.94 248.509 117.749C248.928 118.558 249.561 119.236 250.34 119.709C251.363 120.229 252.517 120.44 253.658 120.315H254.889C255.154 120.338 255.401 120.462 255.577 120.661C255.753 120.861 255.845 121.12 255.835 121.386C255.842 121.516 255.823 121.647 255.78 121.77C255.736 121.893 255.668 122.006 255.58 122.102C255.492 122.198 255.385 122.276 255.267 122.331C255.148 122.386 255.02 122.416 254.889 122.421H253.676Z" fill="white"/>
<path d="M267.95 121.422C267.957 121.549 267.939 121.676 267.896 121.796C267.852 121.916 267.785 122.025 267.699 122.119C267.612 122.212 267.508 122.287 267.391 122.339C267.275 122.391 267.15 122.419 267.022 122.421H264.043C263.132 122.404 262.236 122.19 261.416 121.792C260.597 121.395 259.873 120.824 259.297 120.119C258.187 118.75 257.604 117.028 257.655 115.266C257.649 113.444 258.28 111.677 259.439 110.27C259.995 109.56 260.704 108.983 261.513 108.585C262.323 108.186 263.212 107.976 264.114 107.969C264.909 107.961 265.694 108.151 266.398 108.522C266.82 108.696 267.188 108.98 267.464 109.343C267.74 109.707 267.914 110.138 267.968 110.591C267.968 111.305 267.468 112.09 266.184 114.16C264.899 116.23 263.882 117.728 263.257 118.603C262.968 118.991 262.712 119.403 262.49 119.834C262.49 120.012 262.597 120.101 262.901 120.191C263.83 120.443 264.795 120.539 265.755 120.476H267.111C267.342 120.506 267.553 120.618 267.707 120.792C267.862 120.966 267.948 121.189 267.95 121.422V121.422ZM260.635 118.299C260.813 118.299 261.206 117.764 261.402 117.443C262.098 116.283 262.651 115.373 263.472 114.178C264.296 113.048 265.03 111.855 265.666 110.609C265.666 110.163 264.917 110.038 264.185 110.038C263.542 110.07 262.913 110.246 262.348 110.555C261.782 110.865 261.294 111.298 260.92 111.823C260.402 112.523 260.04 113.327 259.858 114.18C259.677 115.032 259.68 115.914 259.867 116.765C260.01 117.139 260.385 118.299 260.67 118.299H260.635Z" fill="white"/>
</g>
<g filter="url(#filter1_ddd_2_4)">
<path d="M160.143 86.0991H264.929C270.789 86.1085 276.405 88.4336 280.544 92.5632C284.683 96.6929 287.005 102.289 287 108.122V122.111C286.995 127.938 284.669 133.526 280.531 137.648C276.394 141.77 270.782 144.09 264.929 144.099H89.0893C83.2338 144.09 77.6207 141.77 73.4802 137.649C69.3397 133.527 67.0094 127.94 67 122.111V108.122C67.0059 103.937 68.21 99.8393 70.4713 96.3103C72.7326 92.7813 75.9574 89.9667 79.7679 88.1965" stroke="white" stroke-width="2" stroke-miterlimit="10" stroke-linecap="round"/>
</g>
<g filter="url(#filter2_ddd_2_4)">
<path d="M80.4912 95.7115C78.4906 97.0852 76.8542 98.9253 75.7233 101.073C74.5924 103.221 74.0009 105.612 74 108.04V122.122C74 126.094 75.5769 129.904 78.3838 132.713C81.1907 135.521 84.9977 137.099 88.9672 137.099H265.051C267.015 137.099 268.961 136.712 270.776 135.959C272.591 135.206 274.239 134.102 275.628 132.711C277.016 131.32 278.117 129.669 278.867 127.852C279.617 126.035 280.002 124.088 280 122.122V108.076C280.002 106.11 279.617 104.163 278.867 102.346C278.117 100.529 277.016 98.8777 275.628 97.4867C274.239 96.0957 272.591 94.9923 270.776 94.2395C268.961 93.4866 267.015 93.0991 265.051 93.0991H160.119" stroke="white" stroke-width="2" stroke-miterlimit="10" stroke-linecap="round"/>
</g>
<g filter="url(#filter3_ddd_2_4)">
<path d="M48 105.099H67" stroke="white" stroke-width="2" stroke-miterlimit="10"/>
</g>
<g filter="url(#filter4_ddd_2_4)">
<path d="M48 124.099H67" stroke="white" stroke-width="2" stroke-miterlimit="10"/>
</g>
<g filter="url(#filter5_ddd_2_4)">
<path fill-rule="evenodd" clip-rule="evenodd" d="M164.982 74.0862C165.15 73.9182 165.245 73.6904 165.245 73.4528C165.245 73.2152 165.15 72.9873 164.982 72.8193C164.814 72.6513 164.586 72.557 164.349 72.557C164.111 72.557 163.883 72.6513 163.716 72.8193L161.931 74.6036C161.848 74.6867 161.782 74.7855 161.737 74.8942C161.692 75.0029 161.669 75.1194 161.669 75.237C161.669 75.3547 161.692 75.4711 161.737 75.5797C161.782 75.6884 161.848 75.7872 161.931 75.8704C162.014 75.9536 162.113 76.0195 162.222 76.0646C162.331 76.1096 162.447 76.1327 162.565 76.1327C162.682 76.1327 162.799 76.1096 162.908 76.0646C163.016 76.0195 163.115 75.9536 163.198 75.8704L164.982 74.0862Z" fill="white"/>
<path fill-rule="evenodd" clip-rule="evenodd" d="M167.659 76.7804C167.809 76.613 167.891 76.3948 167.887 76.1697C167.884 75.9445 167.795 75.7291 167.639 75.5666C167.484 75.404 167.272 75.3064 167.047 75.2932C166.823 75.2801 166.601 75.3524 166.428 75.4957L162.859 79.0641C162.694 79.2339 162.602 79.4611 162.602 79.6976C162.602 79.934 162.694 80.1612 162.859 80.331C162.942 80.4146 163.041 80.4809 163.149 80.5262C163.258 80.5715 163.375 80.5948 163.492 80.5948C163.61 80.5948 163.727 80.5715 163.836 80.5262C163.944 80.4809 164.043 80.4146 164.126 80.331L167.694 76.7625L167.659 76.7804Z" fill="white"/>
<path fill-rule="evenodd" clip-rule="evenodd" d="M170.335 79.4388C170.419 79.3559 170.485 79.2572 170.53 79.1485C170.576 79.0398 170.599 78.9232 170.599 78.8055C170.599 78.6877 170.576 78.571 170.53 78.4623C170.485 78.3536 170.419 78.2549 170.335 78.172C170.168 78.0085 169.944 77.9171 169.711 77.9171C169.477 77.9171 169.253 78.0085 169.086 78.172V78.172L167.302 79.9562C167.218 80.0392 167.152 80.1378 167.107 80.2466C167.061 80.3553 167.038 80.4719 167.038 80.5897C167.038 80.7075 167.061 80.824 167.107 80.9327C167.152 81.0414 167.218 81.1401 167.302 81.2231C167.469 81.3865 167.693 81.4781 167.926 81.4781C168.16 81.4781 168.384 81.3865 168.551 81.2231L170.335 79.4388Z" fill="white"/>
<path d="M168.729 69.5543L163.591 68.2696C163.65 65.6523 164.082 63.0568 164.875 60.5617C166.16 56.7078 175.152 56.7079 175.152 56.7079M173.868 74.6929L175.152 79.8313C177.77 79.772 180.365 79.3395 182.86 78.5467C186.714 77.2621 186.714 68.2696 186.714 68.2696M168.729 69.5543L173.868 74.6929C173.868 74.6929 186.714 69.5542 190.568 63.131C192.965 58.7968 194.286 53.9508 194.422 49C189.471 49.1357 184.625 50.4573 180.291 52.8539C173.868 56.7078 168.729 69.5543 168.729 69.5543V69.5543Z" stroke="white" stroke-width="2" stroke-linecap="round" stroke-linejoin="round"/>
<path d="M184.145 60.5617C184.854 60.5617 185.43 59.9866 185.43 59.2771C185.43 58.5677 184.854 57.9924 184.145 57.9924C183.435 57.9924 182.86 58.5677 182.86 59.2771C182.86 59.9866 183.435 60.5617 184.145 60.5617Z" stroke="white" stroke-width="2" stroke-linecap="round" stroke-linejoin="round"/>
</g>
<g filter="url(#filter6_ddd_2_4)">
<path d="M87.1724 91.3931C86.7506 91.4265 86.3271 91.3528 85.9413 91.1791C85.7338 91.0795 85.5594 90.9221 85.4392 90.7259C85.3189 90.5297 85.2578 90.3029 85.2633 90.0728C85.2633 89.3235 85.6915 88.9487 86.4052 87.9852C87.0177 87.2192 87.522 86.3728 87.9039 85.4695C88.1252 84.7838 88.2337 84.0667 88.2251 83.3463V79.5995C88.3429 77.542 88.2352 75.4779 87.9039 73.4439C87.643 72.3653 87.143 71.3592 86.4409 70.4999C85.4952 69.126 85.2633 68.8762 85.2633 68.2339C85.2702 68.004 85.3362 67.78 85.455 67.5831C85.5738 67.3862 85.7412 67.2232 85.9413 67.1099C86.5825 66.8619 87.2751 66.7761 87.9575 66.8601H95.0944C95.2381 66.8623 95.3798 66.8934 95.5112 66.9516C95.6426 67.0097 95.761 67.0938 95.8593 67.1987C95.9575 67.3035 96.0336 67.4272 96.0831 67.5622C96.1325 67.6971 96.1543 67.8406 96.147 67.9841C96.1542 68.1286 96.1326 68.2729 96.0833 68.4089C96.0341 68.5448 95.9583 68.6695 95.8603 68.7759C95.7623 68.8822 95.644 68.968 95.5125 69.0281C95.381 69.0882 95.2389 69.1214 95.0944 69.126H89.5276C88.9388 69.126 88.5463 69.126 88.5463 69.126C88.5463 69.126 88.5463 69.3223 88.7425 69.5364C89.631 70.8097 90.2391 72.2571 90.5268 73.7829C90.5376 74.0897 90.6041 74.392 90.7231 74.675C90.8123 74.782 90.8836 74.8176 91.294 74.8176H93.8097C94.0857 74.8524 94.3396 74.9867 94.5236 75.1953C94.7076 75.4039 94.8092 75.6725 94.8092 75.9506C94.8092 76.2288 94.7076 76.4975 94.5236 76.7061C94.3396 76.9147 94.0857 77.0489 93.8097 77.0836H91.3118C90.8479 77.0836 90.7944 77.0837 90.6873 77.2621C90.5803 77.4406 90.5267 77.4048 90.5624 80.6878V82.472C90.667 83.4697 90.5637 84.4781 90.2591 85.4338C89.9286 86.3558 89.4914 87.2361 88.9566 88.0567C88.6712 88.5206 88.582 88.699 88.582 88.8417C88.582 88.9845 88.9923 89.038 89.938 89.038H95.2014C95.4948 89.038 95.7762 89.1545 95.9836 89.3619C96.1911 89.5694 96.3076 89.8508 96.3076 90.1442C96.3076 90.4376 96.1911 90.7189 95.9836 90.9264C95.7762 91.1339 95.4948 91.2504 95.2014 91.2504L87.1724 91.3931Z" fill="white"/>
<path d="M98.8233 91.4823C98.4904 91.4684 98.1765 91.3238 97.9494 91.08C97.7223 90.8362 97.6004 90.5129 97.61 90.1799V68.5194C97.57 68.124 97.6509 67.7258 97.842 67.3774C97.9251 67.2183 98.0509 67.0855 98.2054 66.9941C98.3599 66.9027 98.5368 66.8563 98.7162 66.86C99.305 66.86 99.5548 67.306 100.286 68.2338L106.692 76.5484C107.245 77.2977 107.334 77.3334 107.423 77.3334C107.512 77.3334 107.566 77.1907 107.566 76.4413V68.0912C107.545 67.9207 107.561 67.7478 107.612 67.5838C107.663 67.4198 107.748 67.2685 107.862 67.1399C107.976 67.0114 108.116 66.9084 108.272 66.8379C108.429 66.7674 108.599 66.731 108.77 66.731C108.942 66.731 109.112 66.7674 109.268 66.8379C109.425 66.9084 109.565 67.0114 109.679 67.1399C109.793 67.2685 109.878 67.4198 109.929 67.5838C109.98 67.7478 109.995 67.9207 109.975 68.0912V90.1441C109.995 90.3146 109.98 90.4875 109.929 90.6515C109.878 90.8155 109.793 90.9667 109.679 91.0953C109.565 91.2238 109.425 91.3269 109.268 91.3974C109.112 91.4679 108.942 91.5043 108.77 91.5043C108.599 91.5043 108.429 91.4679 108.272 91.3974C108.116 91.3269 107.976 91.2238 107.862 91.0953C107.748 90.9667 107.663 90.8155 107.612 90.6515C107.561 90.4875 107.545 90.3146 107.566 90.1441V84.2026C107.595 83.2986 107.517 82.3942 107.334 81.5085C107.063 80.6295 106.586 79.828 105.942 79.1711L100.857 72.5873C100.447 72.0521 100.215 71.7309 100.144 71.7309C100.072 71.7309 100.019 72.0877 100.019 72.6944V90.1441C100.028 90.3106 100.005 90.4772 99.9502 90.6346C99.8953 90.792 99.8099 90.9371 99.6988 91.0614C99.5877 91.1857 99.4532 91.2869 99.303 91.3591C99.1528 91.4314 98.9897 91.4732 98.8233 91.4823V91.4823Z" fill="white"/>
<path d="M118.182 91.4287C117.84 91.4103 117.518 91.2576 117.288 91.0037C117.057 90.7498 116.936 90.4154 116.951 90.0728V75.7097C117.01 73.7157 116.38 71.7623 115.167 70.1787C114.507 69.3223 114.382 69.2331 113.204 69.2331H112.437C112.284 69.2286 112.133 69.1934 111.994 69.1294C111.855 69.0655 111.73 68.9742 111.627 68.861C111.523 68.7478 111.444 68.615 111.393 68.4705C111.342 68.326 111.321 68.1726 111.331 68.0197C111.324 67.8683 111.347 67.717 111.398 67.5746C111.45 67.4321 111.53 67.3014 111.633 67.1901C111.736 67.0789 111.86 66.9892 111.998 66.9264C112.136 66.8636 112.285 66.8289 112.437 66.8243H122.839C122.99 66.8289 123.14 66.8636 123.278 66.9264C123.416 66.9892 123.54 67.0789 123.643 67.1901C123.746 67.3014 123.825 67.4321 123.877 67.5746C123.929 67.717 123.952 67.8683 123.945 68.0197C123.955 68.1726 123.934 68.326 123.883 68.4705C123.832 68.615 123.753 68.7478 123.649 68.861C123.546 68.9742 123.421 69.0655 123.282 69.1294C123.143 69.1934 122.992 69.2286 122.839 69.2331H118.378C117.468 69.2331 117.433 69.2331 117.433 69.3223C117.433 69.4115 117.932 70.0359 118.129 70.3571C119.067 71.9796 119.519 73.8376 119.431 75.7097V90.1442C119.427 90.4774 119.295 90.7964 119.063 91.0354C118.83 91.2744 118.515 91.4151 118.182 91.4287V91.4287Z" fill="white"/>
<path d="M126.996 91.3932C126.569 91.4279 126.139 91.3543 125.747 91.1791C125.577 91.0665 125.439 90.9124 125.345 90.7313C125.251 90.5501 125.206 90.348 125.212 90.1442C125.212 89.3948 125.64 89.0201 126.354 88.0567C126.967 87.2907 127.471 86.4441 127.853 85.5408C128.083 84.8573 128.192 84.1387 128.174 83.4176V79.6708C128.292 77.6134 128.184 75.5492 127.853 73.5152C127.592 72.4366 127.092 71.4306 126.39 70.5713C125.444 69.1974 125.212 68.9476 125.212 68.3053C125.224 68.0766 125.292 67.8544 125.41 67.6583C125.529 67.4622 125.693 67.2984 125.89 67.1812C126.531 66.9332 127.224 66.8474 127.906 66.9314H135.043C135.185 66.936 135.325 66.9688 135.455 67.028C135.584 67.0872 135.7 67.1717 135.796 67.2763C135.893 67.381 135.967 67.5037 136.016 67.6375C136.064 67.7713 136.085 67.9134 136.078 68.0555C136.085 68.1985 136.064 68.3415 136.016 68.4763C135.968 68.6111 135.894 68.735 135.798 68.8411C135.701 68.9472 135.585 69.0333 135.456 69.0944C135.326 69.1555 135.186 69.1906 135.043 69.1974H129.441C128.852 69.1974 128.459 69.1974 128.459 69.1974C128.459 69.1974 128.459 69.3936 128.656 69.6077C129.544 70.8811 130.152 72.3284 130.44 73.8542C130.451 74.161 130.517 74.4633 130.636 74.7463C130.636 74.8534 130.797 74.8891 131.207 74.8891H133.723C133.999 74.9238 134.253 75.058 134.437 75.2666C134.621 75.4753 134.722 75.7439 134.722 76.0221C134.722 76.3003 134.621 76.5688 134.437 76.7774C134.253 76.986 133.999 77.1203 133.723 77.155H131.35C130.886 77.155 130.832 77.155 130.725 77.3335C130.618 77.5119 130.565 77.4762 130.6 80.7591V82.5434C130.705 83.541 130.602 84.5495 130.297 85.5052C129.966 86.424 129.536 87.3035 129.013 88.128C128.709 88.5919 128.62 88.7703 128.62 88.9131C128.62 89.0558 129.03 89.1093 129.976 89.1093H135.239C135.533 89.1093 135.814 89.2259 136.022 89.4334C136.229 89.6408 136.346 89.9221 136.346 90.2155C136.346 90.5089 136.229 90.7903 136.022 90.9977C135.814 91.2052 135.533 91.3217 135.239 91.3217L126.996 91.3932Z" fill="white"/>
<path d="M141.27 91.3931C140.936 91.3747 140.622 91.2263 140.395 90.9796C140.168 90.733 140.047 90.4076 140.057 90.0728V70.1074C140.057 69.465 140.057 69.2865 139.968 69.1438C139.878 69.0011 139.647 68.9833 139.111 68.9833H138.398C138.255 68.9764 138.114 68.9414 137.985 68.8803C137.855 68.8191 137.739 68.733 137.643 68.627C137.547 68.5209 137.473 68.397 137.425 68.2621C137.377 68.1273 137.355 67.9843 137.363 67.8414C137.355 67.6993 137.377 67.5572 137.425 67.4234C137.473 67.2896 137.548 67.1668 137.644 67.0622C137.741 66.9575 137.857 66.8731 137.986 66.8139C138.116 66.7547 138.255 66.7218 138.398 66.7173H148.407C149.727 66.7173 150.191 66.7173 150.869 67.3774C151.255 67.8471 151.441 68.4494 151.387 69.0546C151.333 70.1512 150.883 71.191 150.12 71.9808L148.657 73.9969C148.526 74.154 148.429 74.3362 148.371 74.5322C148.371 74.7463 148.532 74.7106 148.978 74.8891C149.679 75.1202 150.332 75.4768 150.905 75.9417C152.6 77.3334 152.921 78.9214 152.921 81.4371V90.1441C152.942 90.3146 152.926 90.4875 152.875 90.6515C152.824 90.8155 152.739 90.9667 152.625 91.0953C152.511 91.2238 152.371 91.3269 152.215 91.3974C152.058 91.4679 151.889 91.5043 151.717 91.5043C151.545 91.5043 151.375 91.4679 151.219 91.3974C151.062 91.3269 150.922 91.2238 150.808 91.0953C150.695 90.9667 150.609 90.8155 150.558 90.6515C150.507 90.4875 150.492 90.3146 150.512 90.1441V81.9368C150.512 79.8849 150.512 79.2782 149.567 78.1898C149.226 77.8122 148.811 77.5094 148.347 77.3005C147.883 77.0917 147.381 76.9814 146.873 76.9766C146.531 76.9335 146.195 76.8496 145.873 76.7268C145.706 76.641 145.566 76.5106 145.468 76.35C145.371 76.1893 145.319 76.0048 145.32 75.8168C145.32 75.2815 145.32 74.9961 146.319 73.6579L148.8 70.25C149.049 69.8575 149.174 69.7147 149.174 69.4649C149.174 69.2152 148.924 68.9833 148.05 68.9833H143.304C143.063 68.9473 142.816 68.9978 142.608 69.1259C142.448 69.2865 142.448 69.465 142.448 70.1074V90.1441C142.44 90.4609 142.316 90.7637 142.098 90.9942C141.881 91.2248 141.586 91.3668 141.27 91.3931V91.3931Z" fill="white"/>
</g>
<defs>
<filter id="filter0_ddd_2_4" x="38.3846" y="53.1172" width="277.583" height="124.28" filterUnits="userSpaceOnUse" color-interpolation-filters="sRGB">
<feFlood flood-opacity="0" result="BackgroundImageFix"/>
<feColorMatrix in="SourceAlpha" type="matrix" values="0 0 0 0 0 0 0 0 0 0 0 0 0 0 0 0 0 0 127 0" result="hardAlpha"/>
<feOffset/>
<feGaussianBlur stdDeviation="4.5"/>
<feColorMatrix type="matrix" values="0 0 0 0 0.354833 0 0 0 0 0.341667 0 0 0 0 1 0 0 0 1 0"/>
<feBlend mode="normal" in2="BackgroundImageFix" result="effect1_dropShadow_2_4"/>
<feColorMatrix in="SourceAlpha" type="matrix" values="0 0 0 0 0 0 0 0 0 0 0 0 0 0 0 0 0 0 127 0" result="hardAlpha"/>
<feOffset/>
<feGaussianBlur stdDeviation="1"/>
<feColorMatrix type="matrix" values="0 0 0 0 0.693333 0 0 0 0 0.666667 0 0 0 0 1 0 0 0 1 0"/>
<feBlend mode="normal" in2="effect1_dropShadow_2_4" result="effect2_dropShadow_2_4"/>
<feColorMatrix in="SourceAlpha" type="matrix" values="0 0 0 0 0 0 0 0 0 0 0 0 0 0 0 0 0 0 127 0" result="hardAlpha"/>
<feOffset/>
<feGaussianBlur stdDeviation="24"/>
<feColorMatrix type="matrix" values="0 0 0 0 0.00833333 0 0 0 0 0.048 0 0 0 0 1 0 0 0 1 0"/>
<feBlend mode="normal" in2="effect2_dropShadow_2_4" result="effect3_dropShadow_2_4"/>
<feBlend mode="normal" in="SourceGraphic" in2="effect3_dropShadow_2_4" result="shape"/>
</filter>
<filter id="filter1_ddd_2_4" x="18" y="37.0991" width="318" height="156" filterUnits="userSpaceOnUse" color-interpolation-filters="sRGB">
<feFlood flood-opacity="0" result="BackgroundImageFix"/>
<feColorMatrix in="SourceAlpha" type="matrix" values="0 0 0 0 0 0 0 0 0 0 0 0 0 0 0 0 0 0 127 0" result="hardAlpha"/>
<feOffset/>
<feGaussianBlur stdDeviation="1"/>
<feColorMatrix type="matrix" values="0 0 0 0 1 0 0 0 0 0 0 0 0 0 0.721569 0 0 0 1 0"/>
<feBlend mode="normal" in2="BackgroundImageFix" result="effect1_dropShadow_2_4"/>
<feColorMatrix in="SourceAlpha" type="matrix" values="0 0 0 0 0 0 0 0 0 0 0 0 0 0 0 0 0 0 127 0" result="hardAlpha"/>
<feOffset/>
<feGaussianBlur stdDeviation="24"/>
<feColorMatrix type="matrix" values="0 0 0 0 1 0 0 0 0 0 0 0 0 0 0.721569 0 0 0 1 0"/>
<feBlend mode="normal" in2="effect1_dropShadow_2_4" result="effect2_dropShadow_2_4"/>
<feColorMatrix in="SourceAlpha" type="matrix" values="0 0 0 0 0 0 0 0 0 0 0 0 0 0 0 0 0 0 127 0" result="hardAlpha"/>
<feOffset/>
<feGaussianBlur stdDeviation="4"/>
<feColorMatrix type="matrix" values="0 0 0 0 1 0 0 0 0 0 0 0 0 0 0.9 0 0 0 1 0"/>
<feBlend mode="normal" in2="effect2_dropShadow_2_4" result="effect3_dropShadow_2_4"/>
<feBlend mode="normal" in="SourceGraphic" in2="effect3_dropShadow_2_4" result="shape"/>
</filter>
<filter id="filter2_ddd_2_4" x="25" y="44.0991" width="304" height="142" filterUnits="userSpaceOnUse" color-interpolation-filters="sRGB">
<feFlood flood-opacity="0" result="BackgroundImageFix"/>
<feColorMatrix in="SourceAlpha" type="matrix" values="0 0 0 0 0 0 0 0 0 0 0 0 0 0 0 0 0 0 127 0" result="hardAlpha"/>
<feOffset/>
<feGaussianBlur stdDeviation="1"/>
<feColorMatrix type="matrix" values="0 0 0 0 1 0 0 0 0 0 0 0 0 0 0.721569 0 0 0 1 0"/>
<feBlend mode="normal" in2="BackgroundImageFix" result="effect1_dropShadow_2_4"/>
<feColorMatrix in="SourceAlpha" type="matrix" values="0 0 0 0 0 0 0 0 0 0 0 0 0 0 0 0 0 0 127 0" result="hardAlpha"/>
<feOffset/>
<feGaussianBlur stdDeviation="24"/>
<feColorMatrix type="matrix" values="0 0 0 0 1 0 0 0 0 0 0 0 0 0 0.721569 0 0 0 1 0"/>
<feBlend mode="normal" in2="effect1_dropShadow_2_4" result="effect2_dropShadow_2_4"/>
<feColorMatrix in="SourceAlpha" type="matrix" values="0 0 0 0 0 0 0 0 0 0 0 0 0 0 0 0 0 0 127 0" result="hardAlpha"/>
<feOffset/>
<feGaussianBlur stdDeviation="4"/>
<feColorMatrix type="matrix" values="0 0 0 0 1 0 0 0 0 0 0 0 0 0 0.9 0 0 0 1 0"/>
<feBlend mode="normal" in2="effect2_dropShadow_2_4" result="effect3_dropShadow_2_4"/>
<feBlend mode="normal" in="SourceGraphic" in2="effect3_dropShadow_2_4" result="shape"/>
</filter>
<filter id="filter3_ddd_2_4" x="0" y="56.0991" width="115" height="98" filterUnits="userSpaceOnUse" color-interpolation-filters="sRGB">
<feFlood flood-opacity="0" result="BackgroundImageFix"/>
<feColorMatrix in="SourceAlpha" type="matrix" values="0 0 0 0 0 0 0 0 0 0 0 0 0 0 0 0 0 0 127 0" result="hardAlpha"/>
<feOffset/>
<feGaussianBlur stdDeviation="4.5"/>
<feColorMatrix type="matrix" values="0 0 0 0 1 0 0 0 0 0 0 0 0 0 0.721569 0 0 0 1 0"/>
<feBlend mode="normal" in2="BackgroundImageFix" result="effect1_dropShadow_2_4"/>
<feColorMatrix in="SourceAlpha" type="matrix" values="0 0 0 0 0 0 0 0 0 0 0 0 0 0 0 0 0 0 127 0" result="hardAlpha"/>
<feOffset/>
<feGaussianBlur stdDeviation="1"/>
<feComposite in2="hardAlpha" operator="out"/>
<feColorMatrix type="matrix" values="0 0 0 0 1 0 0 0 0 0 0 0 0 0 0.721569 0 0 0 1 0"/>
<feBlend mode="normal" in2="effect1_dropShadow_2_4" result="effect2_dropShadow_2_4"/>
<feColorMatrix in="SourceAlpha" type="matrix" values="0 0 0 0 0 0 0 0 0 0 0 0 0 0 0 0 0 0 127 0" result="hardAlpha"/>
<feOffset/>
<feGaussianBlur stdDeviation="24"/>
<feComposite in2="hardAlpha" operator="out"/>
<feColorMatrix type="matrix" values="0 0 0 0 1 0 0 0 0 0 0 0 0 0 0.721569 0 0 0 1 0"/>
<feBlend mode="normal" in2="effect2_dropShadow_2_4" result="effect3_dropShadow_2_4"/>
<feBlend mode="normal" in="SourceGraphic" in2="effect3_dropShadow_2_4" result="shape"/>
</filter>
<filter id="filter4_ddd_2_4" x="0" y="75.0991" width="115" height="98" filterUnits="userSpaceOnUse" color-interpolation-filters="sRGB">
<feFlood flood-opacity="0" result="BackgroundImageFix"/>
<feColorMatrix in="SourceAlpha" type="matrix" values="0 0 0 0 0 0 0 0 0 0 0 0 0 0 0 0 0 0 127 0" result="hardAlpha"/>
<feOffset/>
<feGaussianBlur stdDeviation="4.5"/>
<feColorMatrix type="matrix" values="0 0 0 0 1 0 0 0 0 0 0 0 0 0 0.721569 0 0 0 1 0"/>
<feBlend mode="normal" in2="BackgroundImageFix" result="effect1_dropShadow_2_4"/>
<feColorMatrix in="SourceAlpha" type="matrix" values="0 0 0 0 0 0 0 0 0 0 0 0 0 0 0 0 0 0 127 0" result="hardAlpha"/>
<feOffset/>
<feGaussianBlur stdDeviation="1"/>
<feComposite in2="hardAlpha" operator="out"/>
<feColorMatrix type="matrix" values="0 0 0 0 1 0 0 0 0 0 0 0 0 0 0.721569 0 0 0 1 0"/>
<feBlend mode="normal" in2="effect1_dropShadow_2_4" result="effect2_dropShadow_2_4"/>
<feColorMatrix in="SourceAlpha" type="matrix" values="0 0 0 0 0 0 0 0 0 0 0 0 0 0 0 0 0 0 127 0" result="hardAlpha"/>
<feOffset/>
<feGaussianBlur stdDeviation="24"/>
<feComposite in2="hardAlpha" operator="out"/>
<feColorMatrix type="matrix" values="0 0 0 0 1 0 0 0 0 0 0 0 0 0 0.721569 0 0 0 1 0"/>
<feBlend mode="normal" in2="effect2_dropShadow_2_4" result="effect3_dropShadow_2_4"/>
<feBlend mode="normal" in="SourceGraphic" in2="effect3_dropShadow_2_4" result="shape"/>
</filter>
<filter id="filter5_ddd_2_4" x="113.669" y="0" width="129.753" height="129.478" filterUnits="userSpaceOnUse" color-interpolation-filters="sRGB">
<feFlood flood-opacity="0" result="BackgroundImageFix"/>
<feColorMatrix in="SourceAlpha" type="matrix" values="0 0 0 0 0 0 0 0 0 0 0 0 0 0 0 0 0 0 127 0" result="hardAlpha"/>
<feOffset/>
<feGaussianBlur stdDeviation="4.5"/>
<feColorMatrix type="matrix" values="0 0 0 0 0.354833 0 0 0 0 0.341667 0 0 0 0 1 0 0 0 1 0"/>
<feBlend mode="normal" in2="BackgroundImageFix" result="effect1_dropShadow_2_4"/>
<feColorMatrix in="SourceAlpha" type="matrix" values="0 0 0 0 0 0 0 0 0 0 0 0 0 0 0 0 0 0 127 0" result="hardAlpha"/>
<feOffset/>
<feGaussianBlur stdDeviation="1"/>
<feColorMatrix type="matrix" values="0 0 0 0 0.693333 0 0 0 0 0.666667 0 0 0 0 1 0 0 0 1 0"/>
<feBlend mode="normal" in2="effect1_dropShadow_2_4" result="effect2_dropShadow_2_4"/>
<feColorMatrix in="SourceAlpha" type="matrix" values="0 0 0 0 0 0 0 0 0 0 0 0 0 0 0 0 0 0 127 0" result="hardAlpha"/>
<feOffset/>
<feGaussianBlur stdDeviation="24"/>
<feColorMatrix type="matrix" values="0 0 0 0 0.00833333 0 0 0 0 0.048 0 0 0 0 1 0 0 0 1 0"/>
<feBlend mode="normal" in2="effect2_dropShadow_2_4" result="effect3_dropShadow_2_4"/>
<feBlend mode="normal" in="SourceGraphic" in2="effect3_dropShadow_2_4" result="shape"/>
</filter>
<filter id="filter6_ddd_2_4" x="37.2629" y="18.7173" width="163.667" height="120.787" filterUnits="userSpaceOnUse" color-interpolation-filters="sRGB">
<feFlood flood-opacity="0" result="BackgroundImageFix"/>
<feColorMatrix in="SourceAlpha" type="matrix" values="0 0 0 0 0 0 0 0 0 0 0 0 0 0 0 0 0 0 127 0" result="hardAlpha"/>
<feOffset/>
<feGaussianBlur stdDeviation="4.5"/>
<feColorMatrix type="matrix" values="0 0 0 0 0.354833 0 0 0 0 0.341667 0 0 0 0 1 0 0 0 1 0"/>
<feBlend mode="normal" in2="BackgroundImageFix" result="effect1_dropShadow_2_4"/>
<feColorMatrix in="SourceAlpha" type="matrix" values="0 0 0 0 0 0 0 0 0 0 0 0 0 0 0 0 0 0 127 0" result="hardAlpha"/>
<feOffset/>
<feGaussianBlur stdDeviation="1"/>
<feColorMatrix type="matrix" values="0 0 0 0 0.693333 0 0 0 0 0.666667 0 0 0 0 1 0 0 0 1 0"/>
<feBlend mode="normal" in2="effect1_dropShadow_2_4" result="effect2_dropShadow_2_4"/>
<feColorMatrix in="SourceAlpha" type="matrix" values="0 0 0 0 0 0 0 0 0 0 0 0 0 0 0 0 0 0 127 0" result="hardAlpha"/>
<feOffset/>
<feGaussianBlur stdDeviation="24"/>
<feColorMatrix type="matrix" values="0 0 0 0 0.00833333 0 0 0 0 0.048 0 0 0 0 1 0 0 0 1 0"/>
<feBlend mode="normal" in2="effect2_dropShadow_2_4" result="effect3_dropShadow_2_4"/>
<feBlend mode="normal" in="SourceGraphic" in2="effect3_dropShadow_2_4" result="shape"/>
</filter>
</defs>
</svg>
